<?xml version="1.0" standalone="no"?>
<!DOCTYPE svg PUBLIC "-//W3C//DTD SVG 1.1//EN" "http://www.w3.org/Graphics/SVG/1.1/DTD/svg11.dtd" >
<svg xmlns="http://www.w3.org/2000/svg" xmlns:xlink="http://www.w3.org/1999/xlink" version="1.1">
<metadata></metadata>
<defs>
<font id="sun_kissedregular" horiz-adv-x="1228" >
<font-face units-per-em="2048" ascent="1638" descent="-410" />
<missing-glyph horiz-adv-x="614" />
<glyph horiz-adv-x="0" />
<glyph horiz-adv-x="682" />
<glyph unicode=" "  horiz-adv-x="614" />
<glyph unicode="&#x09;" horiz-adv-x="614" />
<glyph unicode="&#xa0;" horiz-adv-x="614" />
<glyph unicode="!" horiz-adv-x="571" d="M301 342q-27 -6 -53 4q-4 0 -10 6q-20 23 -23 54q-4 28 -4 43q-3 78 6 157q5 50 2 115q0 6 -2 8q-6 25 -6 74v47v29q0 50 4 75v39q6 53 6 105q1 10 2 32.5t2 32.5q0 6 -2 6q-8 45 -4 86q0 11 2 17v47q2 18 2 61q0 7 -4 27q-1 2 -5 5.5t-5 6.5q-8 11 0 19q18 22 35 22 q6 2 20 2q24 3 49 -8l21 -6l8 -8q5 -10 20 -10q7 -1 31 -11l23 -12q16 -13 22 -33q4 -8 4 -14q5 -14 19 -17q2 0 6 -8q2 -10 2 -35q-2 -6 -12 -77q-2 -6 -2 -21q-1 -4 -2 -13.5t-2 -14.5v-11v-37q-2 -6 -2 -14v-53q-5 -72 -5 -90q3 -29 0 -58q0 -10 -4 -34q-4 -8 -4 -17 q1 -9 -0.5 -27.5t-1.5 -23.5l-8 -47q0 -17 -12 -45q-10 -16 -13 -39v-19q0 -24 -4 -34v-7q0 -21 -4 -53q-4 -56 -8 -90q-4 -20 -4 -31q-2 -14 -10 -38q0 -7 -4 -7q-8 0 -17 -14q-3 -3 -6.5 -10.5t-5.5 -9.5q-5 -10 -6 -11q-6 -1 -16 -6t-15 -6zM303 14q-6 0 -10 2 q-10 0 -19 9q-7 7 -20 4q-2 -2 -6 -2q-21 -4 -33 16t-6 31v12q0 12 -2 18q-4 21 4 58q6 15 6 31q0 11 16 14h17q21 0 31 4q38 4 55 8q12 0 16 -6q2 -2 25 -37q2 -4 2 -16q0 -5 4 -17t4 -20q-2 -11 2 -23q4 -8 2 -12q-1 -1 -1.5 -11t-3.5 -19.5t-18 -20.5t-40 -17z" />
<glyph unicode="&#x22;" horiz-adv-x="966" d="M469 1212v123q0 16 -6 25q0 4 -4 12q-6 26 -37 53q-8 7 -25 18t-20 13l-17 10q-10 10 -24 13q-14 5 -20.5 4.5t-20.5 -10.5q-9 -6 -6 -19l6 -18q4 -13 8 -39q0 -59 -2 -90q-7 -74 -4 -133q0 -20 4 -56q3 -18 16 -35l11 -6q7 -7 22 -14.5t21 -13.5l4 -2q25 -5 28 -5 q2 0 8 0.5t11.5 0.5t9.5 -1q8 -3 12 9q3 4 8.5 13t8.5 13q6 9 6 25v47q0 47 2 63zM590 1286v-98q0 -33 10 -78l6 -16q10 -24 41 -43q4 0 7.5 -2t8.5 -6.5t7 -6.5q16 -12 28 -10q13 0 37 4q9 5 13 10q12 12 14 13q3 1 5 3t4 5t3 4q3 3 8 18q2 0 1 30l-1 30l-10 123q0 55 2 82 q3 27 -10 36q-2 0 -6 7q-2 5 -9.5 12t-9.5 10q-6 7 -19 16.5t-18 16.5l-4 4q-4 2 -45 14q-12 3 -53 -2q-12 -3 -20 -14q-2 -4 -2 -10l4 -8q8 -19 8 -50v-94z" />
<glyph unicode="#" horiz-adv-x="1460" d="M1354 985l2 2q-2 -6 -2 -20v-2q-2 -28 -13 -60l-45 -22q-150 -33 -168 -33h-4h-32q-16 0 -25 1t-11 2l-1 1l2 -8q-11 -17 -14.5 -21.5t-8.5 -13.5l-4 -20q-48 -103 -61 -142q8 4 12 2l6 2h100q6 0 14.5 -0.5t22.5 -1.5t27 -2q63 0 74 2t39 -10l18 -20q0 -11 4 -19l-2 -2 q1 -4 6.5 -17.5t12 -32t10.5 -38.5v2v-53l-2 2l-6 -1q-5 -2 -5 -7l-55 -2q-7 0 -68 -9t-69 -10q-7 -1 -74 4q-28 6 -47 2h-18h-4q-52 -8 -58 -10q-11 0 -19 1t-8.5 1.5t-2.5 -0.5q-15 -47 -27 -65l-2 6l-6 -21l-31 -82l-41 -102l2 -2l-10 -25l-2 2l-12 -45q-17 -38 -17 -39 v-2q-2 -8 -3 -19.5t1 -12.5q-6 -6 -14 -10t-13 -13q1 1 1 -1q3 -14 -7 -27q-1 -2 -2 -3q-29 -20 -39 -20l-4 6q-3 -7 0 -10q-21 3 -41 -2l-6 8l2 2q-10 0 -28 10l-43 29q-3 1 -7 23.5t-4 35.5v2q6 56 11 64q16 44 20 61l8 33l-2 2q6 16 14 41.5t11 32.5l6 14q3 13 6 16 l12 39q7 18 20 34.5t16 21t-1 22.5h-14l-35 -2l6 -2q-11 -5 -10 -6q-37 0 -57 -10h6q-23 0 -24 -3q0 -1 5 -1q-8 0 -14.5 0.5t-10 0.5t-5.5 1h-3l3 -4q-4 -4 -7.5 -9t-3.5 -6q-4 -4 -6 -8v4q-39 -75 -41 -84q-18 -41 -22 -59q-5 -10 -9.5 -21t-6.5 -15.5t-3 -4.5 q-14 -34 -33 -88l-6 -25v4q0 -12 -4 -24v2q-8 -43 -10 -43l-4 4l-8 -8l4 -2q-20 -5 -23 -11l-2 13q0 -13 -4 -21l2 -4q6 7 6 4q1 -7 -10 -18q-5 -5 -8 -4l4 2q-1 0 -10 -5t-19.5 -9t-27.5 3.5t-33 30.5l2 4q-8 0 -16 8q-11 11 -11 56q0 41 13 80l12 34q2 7 23 91t36 118 l19 45q1 0 2 1.5l2 3t2 2.5v-5q0 15 2 17l-2 6l-4 -8q-11 0 -31 -10l10 -5q-2 0 -21.5 2t-33.5 1q-15 -5 -29 -5l-12 27l-33 35l6 8q-5 5 -37 68v-4q-2 4 -2 21t2 26q9 9 9 16l82 21q29 -7 55 -5h27q59 0 77 2h39v-2l15 37v-4l4 17v4q24 52 57 116l6 17l-18 -29 q-17 0 -37 -4q-17 -2 -31 0l-33 8q-20 8 -49 4q-2 1 -7 4.5t-8.5 7t-2.5 3.5q-19 11 -43 77q-9 29 -12 60l-3 -4l-12 39l2 4q-2 2 -2 14l-2 -4q-1 4 21 19.5t44 28.5l23 13q48 0 62 2q34 5 100 5q41 0 53 2q10 2 27 2h33l2 -4q0 1 1 2t1 2l10 16q0 7 1 16.5t1 10.5v2 q30 53 31 55q14 32 31 74t22 53q4 8 4 14q2 4 2 6q0 25 2 25l6 14l2 -8v31l2 -2l5 31l6 34l39 29l26 -11q1 0 2 -1q12 -4 15 -4q8 -8 14 -11h2q1 0 8 -21q2 -8 2 -7q1 -2 5 -19.5t5 -19.5q15 -64 5 -107l2 -4l-5 -10l-2 2q0 -2 -1 -5.5t-1 -4.5l-8 -19q1 2 6 13 q-14 -59 -30 -105q-13 -43 -25 -67q8 4 18 4l-10 -2h37q12 -1 39.5 -0.5t32.5 -1.5h4q7 0 39 4l26 -10l52 120l16 43l2 -8v4q-2 5 0 20.5t6 22.5v-2q4 13 8 23.5t6 14.5l3 5v-4q4 14 4 19l-2 -2q0 36 2 36q6 12 12 9q0 2 -1 5t-1 5v4v31l2 -4q-1 1 1.5 2t6.5 2.5t9 3.5t11 7 t11 11l20 -8h4q7 -12 11 -16l35 -19h2l14 -45v-6l1 9q1 -3 1 -19q0 4 12 -8l4 -41q0 -38 -8 -62q-40 -107 -47 -123l-2 2q-8 -24 -8 -32q4 2 20 2q61 0 90 2h31q10 1 14 -2q17 -15 25 -21l2 2q-4 -12 0 -20q2 -3 5.5 -11.5t10 -25t13.5 -31.5zM686 1339l2 2q0 -1 -2 -4v2z M688 1341v-2v2zM825 1268q0 4 2 6l4 8v-2zM586 1096h-4h4zM1139 1073l2 -2zM1356 987q1 4 2 4zM842 848q4 4 4 0l-2 8q0 -4 -2 -8zM795 750q12 28 27.5 59l17.5 35q-3 -6 -19 -6q-6 0 -20 1t-21 1h-18l-64 -6h-34l-2 8v-2l2 -13q-29 -45 -31 -53l2 -4q-25 -59 -33 -84 l-10 -35q9 5 14 2h29q8 0 18 -2l35 -6q37 -5 46.5 -3t15.5 13q34 75 45 95zM311 823h-4h2h2zM961 647v-6v2v4zM106 633l3 -4q-3 -2 -3 -4q-3 -3 -3.5 -1t3.5 9zM291 451l-2 6q0 -1 -4 -13q-4 -2 -3 2q0 5 5 15q4 -2 4 -10zM184 442l-4 2h2zM987 440q-1 -2 -4 -2q2 0 4 2z M983 438h-4h4zM911 430h-4h4zM762 141zM332 27q7 2 9 1l-5 -3zM668 -55q3 -1 -1 -2q-10 -2 -16 4q15 0 17 -2z" />
<glyph unicode="$" horiz-adv-x="952" d="M563 -203q-8 0 -12 4q-6 12 -19 15q-12 4 -8 16q0 4 -4 16q-8 20 -8 29l-8 80q0 10 -2 14q0 31 -6 58q-2 8 -2 20q-2 11 -13 14h-18q-17 0 -27 -2q-33 0 -65 11q-16 5 -47 8q-54 7 -84 22q-14 7 -21 7q-32 4 -69 38q-5 5 -5 7q-31 46 -34 59q-6 17 -19 37q-5 8 -8 16 q-11 32 0 56l6 12q2 4 8 13t8 13q2 3 5.5 3t3.5 -3q27 -41 32 -59q0 -3 3 -8.5t4 -7.5q3 -17 20 -23q25 -9 55 -16l43 -8q40 -7 72 -7q3 0 43 5l59 8q5 1 19 4t22 4q7 0 7 6q4 34 2 47q0 18 -1 51.5t-1 49.5q0 47 4 145q4 78 4 111q0 4 1 12t1 12q0 9 -6 12l-4 4l-52 27 q-3 2 -26 19l-25 18q-3 2 -18.5 14t-22.5 19q-28 24 -59 84q-13 29 -17 47q-2 0 -2 4l2 4h2q3 -9 3 -10q2 -3 5 -10.5t5 -10.5v-2h2l-2 2q0 9 -2 13q-3 10 -8 53q0 37 2 53q3 9 -5 12q-2 4 -2 9q1 5 15 43q13 31 22 43q15 41 45 71q16 24 50 39l47 27q20 12 32 18l13 6 q6 3 6 13q-1 5 -2 17t-2 17q-4 27 -4 78q0 7 1 21.5t1 21.5v23q0 16 -9 28q-5 5 3 17q9 9 20 6l35 -6q12 -6 24 -6q22 -3 29 -15q13 -13 16 -28q0 -2 1.5 -4t3 -5t2.5 -4q6 -18 6 -36v-15q0 -21 -2 -31q-1 -9 -1 -20t0.5 -25t0.5 -20q0 -8 6 -8q39 -16 84 -13q13 0 20 5 q0 4 4 4q19 5 25 -4q11 -7 20 -5q3 0 14.5 1.5t16.5 3.5q7 5 14 -2t7 -11q12 -25 14 -35q12 -39 18 -71q0 -15 -4 -23q-2 -7 -16 -14q-18 -10 -47 -14h-43q-22 0 -43 -9l-27 -6q-35 -3 -57 -20q-6 -2 -10 -15q-1 -12 -5 -46.5t-4 -53.5q2 -1 1 -32.5t-1 -32.5v-70v-55 q0 -7 4 -20t5 -19q0 -4 4 -8q3 -1 8 -4.5t8 -4.5q72 -41 139 -114q24 -26 60 -88q1 -1 2 -4.5t2 -4.5q3 -11 11.5 -34t10.5 -35q10 -43 4 -78q-9 -67 -38 -117l-13 -16q-6 -6 -8 -10q-3 -12 -14 -23q-23 -23 -33 -35q-2 -2 -8 -6t-8 -6q-15 -10 -19 -14q-5 -4 -18 -9 q-15 -4 -23 -12l-7 -3.5t-9 -2.5q-19 -8 -33 -16q-1 0 -4 -7q-2 -2 -2 -6q0 -6 -0.5 -18t-0.5 -21.5t1 -17.5q0 -9 1 -26.5t1 -26.5q0 -25 -2 -39v-21q2 -30 -6 -84q0 -14 -15 -26q-2 0 -2 -2q-13 -13 -30 -13q-1 0 -19 -6zM504 807l2 2q2 2 2 6q0 29 2 43q0 72 2 107v57 q0 2 -2 4q0 2 -4 2t-6 -2l-11 -12l-26 -21q-16 -16 -17 -18q-2 -1 -4 -5t-4 -5q-10 -10 -18 -39q-7 -25 4 -39q0 -1 1 -2t1 -2q24 -46 72 -74q1 0 3 -1t3 -1zM627 342h4q3 4 10.5 13t11.5 14t9 13.5t8 16.5q1 4 4 12.5t4 12.5q10 18 18 49q6 40 -4 70l-14 30q-7 20 -45 54 q-1 1 -3.5 0.5t-2.5 -2.5q-5 -20 -2 -45v-13q-4 -39 -2 -61v-4q-2 -16 -2 -49v-17q0 -2 1 -6t1 -6v-53q0 -19 2 -25z" />
<glyph unicode="%" horiz-adv-x="1431" d="M807 649q-19 -19 -23 -22q-3 -6 -6 -9q-1 -1 -2 -1.5t-2 -1.5t-2 -3q-5 -7 -37 -39q-4 -2 -8 -6l-4 -4q-11 -16 -31 -33q-6 -4 -14 -12l-8 -8q-19 -27 -54 -55q-4 -4 -49 -54l-2 -2q-15 -15 -35 -39l-20 -20l-10 -10l-2 -2l-6 -6q-27 -36 -41 -50q-22 -26 -31 -39 q-28 -32 -43 -47l-19 -22q-10 -17 -30 -31q-13 -8 -27 -29q-19 -28 -27 -38v-3q-2 -4 -6 -8q-16 -16 -20 -26l-2 -4q-13 -13 -21 -29q-9 -18 -18 -27q-14 -8 -17 -22q0 -1 -1 -2t-1 -2q-15 -3 -28 -23q-4 -8 -8 -12q-2 -2 -5 -2h-2q-3 0 -41 10v2v2v4q0 9 -2 13q-2 8 2 28 q1 4 4.5 12.5t4.5 12.5q22 48 57 102q22 30 25 37q37 62 75 109q6 9 13 16l24 31l37 45l14 20q6 8 19 21l12 12q4 8 8 12l6 8l25 29l31 35q4 6 12 14q16 21 21 25q7 9 45 47q38 42 53 61q3 3 18 23q19 21 72 82q0 2 2 2q2 2 6 10q23 33 70 74l18 18q3 2 8 11q12 20 45 53 q3 2 17 16l8 8q4 5 45 52l62 63q9 12 18 21l16 18l27 31q11 11 23 24t26 29t23 25q27 25 73 79q32 36 54 58l20 22q36 32 49 45q9 9 13 15q3 -6 10 -13l2 -2q1 -3 2.5 -6l3 -6t2.5 -4l2 -2q2 -4 2 -10l2 -2q0 -30 -8 -54q-13 -36 -39 -73q-3 -4 -18 -29q-11 -18 -19 -29 q-9 -14 -10 -16q-3 -3 -7.5 -9.5t-8 -11t-7.5 -8.5q-5 -4 -16 -20l-6 -11l-2 -2l-8 -12q-6 -3 -9 -6q-20 -25 -24 -33q-8 -7 -27 -30q-2 -2 -12 -17q-28 -32 -41 -45q-31 -31 -43 -47q-7 -9 -22 -26t-17 -19q-9 -12 -18 -21l-23 -24q-4 -4 -24 -29l-37 -43l-21 -20 q-6 -9 -16 -19zM176 909q7 -52 29 -82q27 -42 80 -71q10 -5 26 -17q42 -20 76 -10q6 0 10 2q5 2 16.5 4.5t20.5 6.5t15 10q4 4 8 4q8 4 20 16q4 5 12.5 14.5t14.5 17.5t10 17q0 2 4 6t14 19q3 2 7.5 8t7.5 8q7 5 16 23l19 37q7 11 10 22q2 14 10 37q1 3 2 9t2 9l6 37 q6 29 -4 62q-4 12 -4 18q-6 27 -29 41q-18 10 -49 10q-2 0 -10 -4q-3 -2 -8 -7t-8 -7q-2 -1 -1.5 -4t3.5 -4q25 -25 30 -29q13 -10 19 -25q7 -32 2 -57l-12 -43q-3 -6 -8.5 -18.5t-8.5 -18.5l-12 -18l-33 -39q-40 -44 -76 -66q-25 -15 -65 -8q-11 4 -14 12q-1 2 -2 3.5l-2 3 t-1 2.5q-21 46 -8 106q0 4 2 6q16 43 17 45q3 13 12 25q30 41 61 70q10 10 11 12q21 35 49 45q12 2 22 16q4 11 13 17q9 9 6 28q-5 10 -8 13l-19 26l-10 13q-18 18 -39 10q-86 -36 -96 -41l-10 -6q-40 -30 -46 -37q-33 -36 -57 -82l-24 -53l-7 -23q-16 -44 -12 -121z M752 174q0 -1 1 -3t1 -3q0 -28 24 -74q6 -9 15 -18q31 -27 55 -39q10 -5 30.5 -14.5t30.5 -14.5q12 -6 62 -16h12q11 1 55 16l6 6q4 4 12.5 11t15.5 14t11 14q5 5 11 8q14 17 30 48q15 30 19 34l2 4q2 8 11.5 26.5t10.5 29.5v4q11 16 19 43q9 27 22 53l15 33q3 14 -4 24 l-2 2q-8 6 -13 25q-4 11 -8 37q0 12 -14 35q-5 10 -21 14q-19 6 -37 0q-4 0 -16 -8q0 -1 -1 -3t-1 -3q0 -2 1 -4.5t1 -3.5q8 -24 8 -52q-3 -19 4 -39q1 -2 2 -6t2 -6q4 -22 -4 -35q-15 -37 -39 -86q-4 -7 -47 -69q-2 -4 -12 -15q-32 -22 -41 -32q-17 -14 -39 -11 q-21 0 -27 21q-2 14 -10 37v12q0 31 -2 45q0 21 6 39q2 22 17 51l6 21q1 4 4 11t4 11l18 25q4 5 19 23.5t24 27.5t28 24t26 21q2 2 8 5.5t8 4.5q13 7 16 15q2 7 15 16q6 2 14 9t12 9q13 10 13 33q0 18 -11 29q-8 10 -14 26q-2 12 -20 25q-14 7 -25 2l-45 -12l-14 -6 q-25 -10 -60 -31q-27 -18 -47 -41q-25 -29 -41 -39l-6 -6q-27 -31 -41 -62q-23 -48 -33 -73q-13 -29 -16 -60q-3 -23 -10 -53q-11 -52 -6 -86z" />
<glyph unicode="&#x26;" horiz-adv-x="1331" d="M573 -233q-33 2 -100 10q-10 0 -12 2q-7 2 -68 20q-39 15 -63 33q-13 8 -52.5 51t-62.5 76q-10 14 -29 34.5t-26 31.5q-35 50 -47 96q-9 74 -9 98q0 5 -1 13.5t-1 16.5t2 15l7 68q2 8 2 26q18 69 30 91l31 49q2 6 11 16.5t12 15.5q29 29 45 39l63 49l60 78q1 2 1 5t-1 4 q-3 8 -15 14q-5 7 -17 21t-19 23t-16 21.5t-15 24.5q-31 58 -39 104q-4 2 -4 13q-3 47 8 90q1 20 24 76q20 30 25 36q0 7 4 15l37 43q10 12 57 35q51 26 115 41q23 8 74 12q30 4 43 10q7 0 21 2t18 2q12 2 41 2q6 0 16 1t16 1q11 4 19 0q13 -2 22 -12q4 -1 14 13t19 30 l37 53l10 23q10 6 12 4q16 -11 17 -14q11 -11 20 -17q22 -11 43 -26q1 -3 15 -13q2 -3 11.5 -11t12.5 -13l-20 -11q-2 -9 -11.5 -26t-11.5 -21q-7 -9 -17 -27.5t-16 -25.5q-1 -1 -6.5 -8t-7.5 -12q-1 -8 -4.5 -17.5t-8.5 -20.5t-7 -16q-2 -3 -29 -57q-18 -29 -18 -59 q-3 -5 -3 -7q-13 -22 -14 -26l-29 -51q-5 2 -13 8t-15 8q-37 24 -51 45q-12 30 -13 37q-7 31 2 57q9 15 9 27q0 5 -11 8q-14 0 -20 -2q-8 -2 -34.5 -15.5t-43.5 -13.5h-39q-15 0 -45 -24q0 -10 -4 -10q-8 -9 -44 -37t-40 -31q-12 -6 -14 -12q-2 -3 -7 -8t-8 -9t-4 -8 q-14 -21 -6.5 -71t23.5 -74q21 -31 49 -50.5t53.5 -25.5t52 -6.5t45 4t32.5 8.5l15 4q2 1 9.5 2t9.5 2q21 3 35 -4q22 -13 24 -14q4 -2 10 -2q13 0 13 -10q-1 -5 -1 -15t-1 -17.5t-4 -12.5q-3 -7 -13.5 -28.5t-13.5 -31.5q-2 -4 -10 -12q-19 -19 -25 -21q-1 -1 -6.5 -5 t-7.5 -7q-26 -20 -68 -37q-38 -11 -63 -28q-2 -4 -10 -7q-7 -3 -62 -36q-6 -4 -17 -11.5t-14 -9.5q-3 -1 -24 -18l-17 -19q-25 -19 -39 -51q-26 -50 -30 -82l-6 -43q-1 -3 -7 -39v-10q0 -3 3.5 -22.5t3.5 -28.5q0 -31 10 -58q5 -6 29.5 -56.5t33.5 -59.5q33 -36 78 -64 q47 -34 88 -39q25 -4 66 0q4 0 9 2t7 2q21 0 54.5 18t48.5 34q14 16 24 34.5t16 36.5t7 19q17 30 26.5 69.5t16.5 52.5q14 27 16 41q2 9 8 25.5t8 22.5q9 16 5 65q-5 59 -32 55q-15 -3 -34 -24l-53 -60q-3 -3 -12.5 -11.5t-14.5 -14.5q-12 -20 -24 -25q-1 -1 -5.5 -4 t-7.5 -6t-4 -6q-2 -2 -6 -8q-5 -9 -12 -11q-6 -6 -6 -12q0 -7 -9 -10q-15 -7 -26 0q-28 24 -31 27l-2 2q-2 1 -6.5 3t-6.5 2.5t-5 2.5t-4.5 4t-3 5t-1.5 7q0 17 -4 27q0 4 2 13t2 13q-4 20 9 56q4 8 4 10q13 37 30 59q20 30 52 47q9 3 12 9q30 28 94 63q61 34 84 43 q14 5 115 49q19 7 51 27q45 31 68 63q30 47 40 76q6 22 3 41q-4 22 -11 27q-3 3 8 10q11 0 21 -10q16 -14 43 -33q4 0 4 -4q6 -8 26 -32.5t29 -39.5q20 -27 17 -55q0 -8 -1 -22t-1 -21t-8 -16t-24.5 -23.5t-27.5 -28.5q-5 -6 -16.5 -16.5t-15.5 -15.5q-3 -2 -6.5 -4.5 t-6 -4.5t-4.5 -2q-14 -7 -36 -23t-33 -22l-19 -14q-6 -6 -8 -12q-9 -12 -23 -15q-27 -14 -49 -18q-5 0 -35 -15q-4 -2 -6 -2q-3 -3 -3 -6t1 -6.5t4 -13t6 -21.5l9 -43q4 -22 -2 -39q-2 -7 -7 -45l-4 -47q-1 -12 -16 -61q-1 -5 -6 -16t-6 -17q-6 -32 -39 -88q-14 -25 -19 -39 q-4 -4 -11.5 -16.5t-12.5 -18.5l-8 -8q-14 -20 -27 -27q-7 -3 -20 -13.5t-21 -14.5q-13 -4 -33 -13t-30 -12q-2 -2 -13 -2q-3 -4 -18 -12q-15 -1 -43.5 -7.5t-42.5 -6.5h-15z" />
<glyph unicode="'" horiz-adv-x="544" d="M252 1290h2q0 -59 -2 -90q0 -22 12 -72q0 -2 4 -14q11 -22 41 -41q4 0 12 -4.5t11 -5.5q12 -12 26 -12q25 0 35 4q12 4 15 8q6 9 14 12q3 0 5 2t4 5.5t3 4.5q3 2 8 17q2 20 -2 53q0 22 -3.5 62t-4.5 55q-3 43 2 74q3 27 -10 32q-1 1 -2 2.5t-2 2.5t-2 1q-3 6 -10 13 t-9 10q-5 5 -17.5 15t-16.5 16q-2 2 -7 2q-6 3 -43 14q-13 3 -51 -2q-15 -4 -20 -14q-3 -1 -3.5 -4t1.5 -4q0 -1 1 -3.5t1 -3.5q11 -20 8 -47v-88z" />
<glyph unicode="(" horiz-adv-x="759" d="M657 1393h-4q-7 -8 -4 -11q-21 -24 -33 -51l-26 -45q-2 -2 -4.5 -5.5t-3.5 -4.5l-9 -16q-17 -22 -20 -29q-3 -9 -6 -12q-36 -45 -55 -82q-8 -18 -29 -50l-8 -8q-37 -51 -41 -55q-28 -43 -54.5 -102t-27.5 -107l-4 -108q-2 -9 -8 -30.5t-9 -33.5q-1 -4 -2.5 -21t-3.5 -32 t-4 -19q-2 -8 -2 -20h10v-4h-10q0 -6 -2 -12q0 -21 -2 -31q-9 -73 6 -158l6 -45v-4q5 -39 8 -53q2 -4 2 -8q4 -42 25 -130q2 -4 5 -13t5 -13l2 -8q23 -55 41 -88l6 -17q7 -19 29 -55v-4q10 -10 10 -19q4 -3 17 -26l20 -33l12 -10q2 -6 9 -13q22 -31 47 -47q5 -3 16 -18 l10 -10q-3 -18 7 -31q0 -6 4 -14l-17 -13q-8 -3 -26 -14l-4 -2q-27 -6 -43 -6q-7 0 -31 4h-2l-5 2h-1q-47 9 -82 47q-16 13 -29 33q-5 7 -15.5 19t-11.5 14q-2 2 -7.5 10t-8.5 12q-5 6 -27 39q-18 28 -30 53q-3 3 -7.5 12t-7.5 13l-4 4q-2 6 -10 18q-5 6 -13 21.5t-14 23.5 l-4 15l-2 2q3 20 -8 45q-6 13 -35 98q-5 15 -2 27q0 6 -1 17t-1 14t-1 7t-1 5v10q2 24 -6 53q0 7 -2 9q0 8 -2 10q-7 27 -4 43q4 26 0 67l-2 9v38q2 16 2 46v6q0 10 -4 16v2q6 18 6 37l2 10q0 2 1 6t1 6q1 5 2 15.5t2 15.5l10 82v10q-3 8 8 41q12 30 21 76q9 44 20 80 q4 12 4 16q2 8 7.5 22.5t7.5 22.5l8 17q18 48 49 108q9 14 17 37q38 75 88 137q8 9 32 43l15 17l35 43q19 26 22 31l4 6q2 3 29 30l-8 9l4 4l8 -8l7 8q7 9 9 16l5 3q5 3 8 7q5 2 10 13v2q36 -30 39 -33q30 -26 71 -53zM102 516h11l-7 -16z" />
<glyph unicode=")" horiz-adv-x="675" d="M571 621q5 -37 -2 -97v-16q-2 -15 -5 -47t-5 -47l-6 -78l-6 -51l-6 -37q0 -9 -4 -25l-7 -30q-3 -24 -12 -48l-10 -26q-15 -34 -21 -60q-3 -8 -9 -21.5t-11 -25t-10 -22.5q-4 -15 -21 -58q-8 -17 -30 -47l-7 -6l-16 -22q0 -1 -10 -11l-23 -24l-20 -25l-19 -22 q-25 -25 -37 -41l-14 -13l-6 -8l-12 -8q-15 -18 -45 -33l-41 -18q-6 -3 -19.5 1t-24.5 11.5t-10 14.5q11 42 29 83l39 89l2 6q14 12 25 39l2 6q1 2 4 8.5t4 11.5l12 31l27 76v4l12 28q17 41 27 87q15 64 22 102q22 127 27 172q4 30 7.5 84.5t4.5 62.5v113q0 7 -1 21.5 t-1 21.5l-2 12q-5 68 -10 86l-2 23v8q-4 56 -13 90q-9 30 -12 70q-3 57 -24 106q-20 45 -29 84q-13 47 -33 72l-51 65q-17 13 -33 13h2q-6 14 -31 39h3q1 0 94 51l24 6q5 0 17 4t16 4l16 -2q35 -6 46 -20q13 -18 18 -21q19 -19 35 -43v-6l6 -6l2 -8q4 -6 10 -23l15 -26 q3 -3 8.5 -12.5t7.5 -12.5l2 -6q12 -28 29 -51l12 -21l4 -10l8 -12l10 -15q17 -26 19 -39l18 -65l6 -23l7 -26q9 -24 12 -60l4 -26q0 -13 2 -17v-6q0 -41 6 -76v-6q0 -8 1 -23.5t1 -23.5l2 -14q2 -12 2 -41l2 -64v-34zM172 -143v2v-2zM172 -143h-2h2z" />
<glyph unicode="*" horiz-adv-x="716" d="M401 1522h-8q-7 2 -22 -6q0 -3 2 -5q7 -3 4 -12v-4q-1 -6 -2 -18.5t-2 -18.5q0 -7 -1 -22t-1 -23q0 -5 -6 -2q-1 0 -3.5 1t-3.5 1q-9 6 -39 21q-16 8 -34 14q-9 4 -9 8q0 6 -6 12q0 2 -2 2t-2 -2l-6 -6q-2 0 -4 2l-6 9h-4q-2 -2 -2 -7q-2 -4 -2 -10q-2 -8 -3 -17.5 t-1.5 -20.5t-1.5 -17q0 -21 12 -33l12 -8q6 -4 14 -8q6 -4 23 -13q17 -7 29 -14q4 0 0 -4l-31 -35q-1 -1 -9 -8t-12 -12q-11 -11 -14 -13l-24 -18q-15 -10 -23 -8q-2 0 -2 -2t-4 -6q-1 0 -1 -2.5t1 -2.5q8 -5 8 -16v-2q3 -9 10 -14q17 -7 29 -19l4 -4q11 -7 23 -4q4 0 6 2 q2 0 6 1t6 1q4 0 6 4q4 8 10 11l17 14q3 3 10 9t10 9q12 9 21 21q4 8 8 10q8 8 10 12q4 8 10 11q5 0 5 -3l12 -24q15 -30 18 -35q5 -8 8 -16q4 -11 21 -37q6 -12 20 -12q11 0 15 2l24 6q1 1 4 2t4 2q2 1 15 6q2 0 5.5 1t4.5 1q9 3 6 12q0 1 -1 3t-1 3l-6 7q-3 9 -10 16 q-6 6 -6 12q-2 13 -13 35q-2 3 -5 11.5t-5 11.5l-12 26q-3 5 2 10q1 3 10 7q23 8 29 16q8 8 14 10q1 0 3.5 2.5t2.5 3.5q13 13 21 19l10 12q3 6 8.5 17.5t7.5 15.5t2 12q-3 8 0 17v4q-4 12 -10 16q-16 10 -18 14q-3 3 -15 9l-4 -2q3 -13 -8 -21l-6 -6q-7 -7 -21.5 -17.5 t-17.5 -13.5q-21 -11 -47 -29q-1 0 -3 -1.5t-3 -0.5q-2 1 -2 9q0 2 1 4.5t1 3.5q-1 6 4 22q3 5 8 27q4 16 2 23q-4 16 -4 24q0 4 -4 8q-2 4 -10 8q-2 0 -6.5 1.5t-6.5 1.5q-28 8 -43 6z" />
<glyph unicode="+" horiz-adv-x="1024" d="M463 219q-4 0 -10 6l-11 2q-4 0 -10 5l-6 4v6q0 2 -6 8q-27 15 -27 47q-4 10 -4 27q0 21 2 59.5t2 56.5q0 37 -4 82t-8 45q-8 1 -21.5 1t-30 -0.5t-22.5 -0.5h-8q-6 2 -37 2q-47 0 -72 2q-8 4 -24 4q-3 3 -10 3q-6 3 -6 6q0 4 -4.5 9t-4.5 9l-6 6l-8 19q-1 3 -2 8t-2 8 l-8 41q-8 21 -13 27q-2 6 2.5 13t10.5 10t8 1q4 -4 8 -2q9 2 16.5 3t10.5 -1q4 -8 10 -8q20 0 60 2t59 2q5 0 15.5 1t16.5 1h52q12 0 14 2.5t4 14.5v8q0 16 2 59.5t2 56.5q0 17 2 25q2 14 2 37q0 14 2 40t2 38q0 8 -4 14q-3 8 4 10q6 6 17 6h10q27 -5 35 -2h6q15 -6 33 -6 q3 -1 6 -1t6 1h4l17 -8l6 -2q16 -5 26 -22q3 -3 8 -11.5t7 -11.5q2 -4 2 -16v-13q0 -6 1 -16t1 -14q6 -32 0 -64q-1 -6 -2 -36.5t-2 -37.5q0 -5 -3.5 -11t-3.5 -7q-3 -4 -3.5 -8t0.5 -10t1 -9q0 -4 2 -4q0 -4 3 -4h4q27 -6 59 -6q13 -3 25 0h30q29 -2 92 -2q48 0 68 -4 q21 -3 33 -21l16 -36q6 -6 6 -17q0 -7 7 -18v-15q-13 -17 -15 -28q-1 -3 -5 -7.5t-5 -7.5q-4 0 -4 -2h-8q-29 0 -45 2h-23q-16 2 -47 2q-1 0 -5.5 2t-6.5 2q-7 -2 -15.5 -2t-20 1t-18.5 1q-5 0 -15.5 1.5t-16.5 1.5h-9q-12 -4 -61 -9q-8 0 -8 -6q-2 -7 -3.5 -15.5 t-2.5 -10.5q0 -17 2 -25v-23q0 -12 1 -24.5t2.5 -27.5t2.5 -23q2 -14 2 -41v-41q0 -18 -4 -64q-5 -9 -15 -12l-8 -6q-14 -14 -30 -19q-4 -4 -17 -4q-4 -2 -20 -2q-2 -1 -10 -2.5t-13 -3.5q-4 -3 -14 0z" />
<glyph unicode="," horiz-adv-x="413" d="M170 -199l-8 17q-3 8 4.5 21.5t22.5 33t16 21.5q6 9 13 31.5t9 27.5q6 25 -12 31q-3 3 -22 8q-1 0 -11 1t-16 5q-13 5 -31 16q-21 9 -29 37l-4 41q5 45 25 96q4 8 4 15q39 39 43 35q5 -5 8 -5q19 0 37 -6q14 -12 43 -20q5 0 16 -6.5t11 -10.5q14 -40 16 -40q0 -4 2 -28 t2 -26q2 -31 2 -92q0 -43 -8 -61q0 -19 -14 -47q-3 -20 -17 -41q-1 -2 -6 -11t-6 -12q-8 -13 -16 -16q-4 0 -17 -13q-10 -8 -29.5 -9.5t-27.5 7.5z" />
<glyph unicode="-" horiz-adv-x="1030" d="M205 438q0 -12 4 -16q2 -3 3 -6t1.5 -7t1.5 -6q2 -12 10 -32q0 -2 4 -6q4 -8 4 -11l3 -8q0 -7 6 -10q7 -3 10 -10q0 -7 8 -7q6 0 20 -1t21 -1h4h12h23h16q10 -2 29 -2h33q55 0 84 2h6q7 0 21.5 -1t21.5 -1h12q3 0 8.5 -1t8.5 -1q29 0 41 -2q10 -1 30.5 -2t30.5 -2h4h47 h15q20 0 30 2q9 0 13 -2q4 0 11 -1t11 -1h6l17 -4q8 0 20 -4q6 -4 21 -4h12q4 -2 12 2l8 8q13 13 13 29q1 3 1.5 15.5t2.5 19.5v6q0 23 -4 33q-2 5 4 8q4 8 2 10q-8 11 -8 25v2q-4 12 -13 14l-10 6q-10 0 -14 2h-17h-28h-82q-12 0 -33 2t-31 2q-7 1 -21.5 2t-21.5 2 q-29 3 -67 -4q-17 0 -25 -2h-20h-33q-15 0 -47 1t-49 1h-13q-29 0 -43 2h-39q-14 2 -43 2q-2 2 -8 2t-12 6q-4 7 -8 3l-13 -7q-17 -14 -20 -30z" />
<glyph unicode="." horiz-adv-x="403" d="M199 188q-25 6 -39 2q-1 0 -9.5 -2.5t-12.5 -4t-9.5 -6.5t-9.5 -11q-13 -16 -13 -68q-8 -38 0 -61q0 -11 21 -43q16 -12 25 -14q1 0 2 -1t2.5 -2t3.5 -2q12 -5 43 0q60 0 80 29l4 11q4 11 6.5 19t5 24t2.5 34q2 3 -1 16.5t-7 22.5q-2 9 -23 23q-14 10 -28 16 q-24 12 -37 14q-2 0 -6 4z" />
<glyph unicode="/" horiz-adv-x="1042" d="M928 1432q-16 0 -47 -9q-6 -3 -13 -10q-7 -16 -25.5 -44t-25.5 -42q-8 -21 -35 -72q-47 -102 -53 -120q-3 -8 -10 -19q-6 -13 -21.5 -48t-25.5 -54q-8 -16 -27 -50t-27 -51q-7 -9 -20 -39q-38 -59 -68 -124q-11 -14 -22 -39q-5 -10 -6 -11q-16 -24 -40.5 -73.5 t-27.5 -55.5q-24 -54 -41 -86l-6.5 -13t-5.5 -13q-11 -21 -28.5 -57t-24.5 -50l-49 -102q-47 -83 -64 -117q-14 -28 -31 -45q-1 -4 -3 -8l-3 -6q-7 -14 -49 -86q-20 -23 -29 -54q-9 -24 -24 -45q-9 -15 -15 -30q-4 -11 9 -19q3 0 28 -10q10 -4 21 -14q9 -18 35 -9q6 0 6 5 q30 24 59 69q28 42 33 51q9 15 39 63t45 75q4 7 26.5 45.5t34.5 60.5l74 150q4 10 13.5 29.5t13.5 29.5q5 15 61 123q10 25 55 117q6 10 9 20q32 59 57 100l47 86q73 132 102 193q5 13 30 69t34 87q2 5 5.5 14.5t7 18t7.5 14.5q22 50 41 116q9 27 17 35l2 2q1 3 4.5 14 t3.5 17q-3 1 -12.5 8t-14.5 8q-25 5 -26 5z" />
<glyph unicode="0" horiz-adv-x="1050" d="M922 1055q0 9 -2 19t-5 23t-4 21l-4 6q-4 9 -8.5 25t-5.5 18q0 5 -6 23q-5 6 -10 22q-5 14 -17 29q-7 10 -10 10q-3 3 -8 13q0 2 -2 5t-2 5q-3 9 -15 12q-11 11 -12 14q-7 11 -14 13l-15 10q-12 12 -30 12q-11 4 -23 -8l-4 -12q0 -4 2 -6q7 -7 16 -29q11 -37 29 -55 l14 -19q22 -29 43 -41l2 -2q13 -13 13 -18q4 -36 4 -47l2 -21q0 -8 1 -24.5t1 -24.5v-10v-33q-2 -18 -2 -47q4 -32 4 -53v-6q4 -16 -2 -31v-33l2 -20v-23q-4 -25 2 -47l2 -29v-24q-5 -66 -10 -86v-8q-2 -9 -5 -30t-5 -30q-10 -31 -13 -57l-4 -19l-24 -59l-6 -14 q-6 -18 -23 -52l-27 -61q-6 -12 -6 -14q-20 -23 -37 -33q-22 -12 -45 -19q-4 -3 -24 -8q-13 0 -37 4q-37 9 -66 29q-30 26 -43 47q-3 4 -9.5 14.5t-12.5 16.5q-31 64 -35 86q-5 16 -14 55q0 3 -2 9t-2 8l-7 57v14v19q0 31 5 53q-1 4 -1 9.5t0.5 11.5t0.5 8q-1 12 4 49 q7 29 10 51v10q8 20 8 33q6 18 6 20l8 19q4 5 8.5 18t8.5 17t4 10q0 2 2 5.5t2 6.5l10 19l6 14l11 20q0 7 6 13q2 2 7 11.5t10 15t11 10.5q4 4 4 8q14 18 15 24q2 3 4.5 8t5 8t6.5 5l6 12q2 5 9.5 14.5t9.5 12.5l12 14q7 7 31 37l12 14q3 5 6.5 11.5t8 13.5t6.5 10 q23 35 30 57q5 16 6 17v10q6 25 0 47q-4 11 -8 29q0 9 -10 16l-27 25q-13 16 -28 22q-13 3 -21 15q-18 12 -39 24q-2 0 -6 1t-6 1q-16 2 -47 2q-10 3 -19 -8q0 -4 -8 -12l-32 -25q-7 -6 -76 -75l-11 -15q-16 -19 -32 -41q-5 -8 -17.5 -25t-13.5 -18q-33 -38 -70 -98 q-23 -44 -47 -105l-30 -75q-26 -91 -27 -99q-8 -60 -14 -84v-4q-7 -54 -5 -90q0 -23 -4 -33v-10q0 -8 1 -26t1 -27v-27v-18v-23q-7 -21 2 -45v-8q0 -12 7 -26q9 -20 14 -39q6 -15 43 -103q4 -13 33 -49q40 -54 69 -88q2 -3 17 -25t27.5 -38t35.5 -34.5t47 -25.5 q50 -12 78 -12l39 4q29 -2 78 16l35 25q7 10 24 14q0 1 2 2t2 2q6 9 15 15q1 0 2 3q1 2 2 3q3 9 8 14l21 21q6 6 10 12q9 9 22 31l17 18q10 8 18 23q16 32 31 47l4 6q0 10 8 14l6 19q4 9 13.5 27.5t13.5 27.5q10 25 12 31q15 35 17 39q2 3 4 7l4.5 9t3.5 8q10 25 12 37 q0 12 10 25l4 12q0 2 3.5 21t3.5 30q0 3 1 8t1 8q8 19 12 58q2 11 5 34t5 33q0 3 1 10t1 11q-3 3 0 8q0 39 -2 59q0 9 -1 26.5t-1 25.5q0 31 -2 38q-6 16 -2 41q0 23 -2 35q-4 8 -4 11q-2 8 -2 20q0 15 -2 23q-4 17 -8 51z" />
<glyph unicode="1" horiz-adv-x="667" d="M223 23v-7q0 -4 4 -4q9 4 9 -4q3 -6 8 -6q8 -4 14 -4q10 0 12 6q2 4 11 4q4 -1 12 -2t12 -2q17 -3 29 6q11 8 31 8h2q20 0 36 13q12 8 17 8q14 3 20 18q4 8 4 11q3 9 13 12q8 4 10 8l14 45v8q0 3 0.5 8t0.5 10t-1 9v57q0 9 -1 28t-1 28q0 46 4 59l2 2v55l2 37v43 q0 38 2 45q3 18 0 35q-1 3 -1 6t0.5 7.5t0.5 7.5q7 16 7 43q0 35 4 51q2 4 2 8q-1 7 0.5 20t1.5 17q0 7 1 21t1 20q4 32 4 45q1 7 1 20t1 19q0 15 4 39q2 10 2 28v9q2 16 10 53l4 26q7 20 11 70l2 14q3 9 0 19q0 14 2 20q2 8 2 27q5 14 6 16q0 3 4 11q13 26 -2 47 q-6 16 -4 28v19q-13 33 -37 49q-2 0 -6 4q-12 8 -16 16q-9 15 -29 25l-19 10q-26 13 -36 21q-2 2 -6 3.5t-5 2.5q-17 8 -55 16q-4 1 -12.5 2t-12.5 2l-26 8q-9 5 -12 3q-26 -4 -37 -15q-22 -18 -27 -26q-21 -28 -39 -46q-20 -20 -37 -47q-8 -12 -10 -20q-1 -2 -7 -6.5 t-7 -9.5q-2 -3 -4 -3l-7 3l-4 -5l7 -14q2 -5 -3 -10q-3 -3 -2 -6q4 -9 0 -15v-6l7 -30q8 -19 22 -25q8 -4 12 -2q27 8 31 24q2 12 17 27q5 3 8 8q12 15 39 56q8 14 22 24q2 2 6 2q2 -2 2 -6q-1 -5 -2 -15t-2 -14q-6 -58 -18 -118q-4 -13 -8 -39q-15 -86 -17 -107 q-4 -20 -4 -31l-10 -71q-1 -16 -4 -45t-4 -43l-6 -66q-1 -11 -4.5 -34.5t-4.5 -36.5q0 -6 -1 -18.5t-1 -18.5q-4 -40 -4 -60q-1 -14 -2 -41.5t-2 -40.5q-1 -14 -2 -40.5t-2 -39.5q-4 -40 -4 -57l-2 -22v-9q5 -60 2 -135q0 -53 10 -80v-4q4 -12 8 -18q2 -1 11 -10q2 0 0 -3 q-1 -2 -2 -2l-19 -4v-2q6 -15 23 -18q10 0 16 -2q8 0 8 -8v-6z" />
<glyph unicode="2" horiz-adv-x="1075" d="M772 6q31 0 47 2q11 0 17 2l24 13q7 0 10 6q7 7 21 14q13 3 18 14l11 11q8 8 10 14q2 4 9 17.5t9 21.5q0 4 4 8q14 17 4 29q-6 6 -6 22q-3 6 -8 6q-11 -5 -39 -10q-6 -1 -19.5 -2t-19.5 -2q-16 0 -24 2q-9 0 -33 4q-2 0 -49 12q-17 8 -27 11q-90 28 -139 30q-15 3 -33 0 l-47 -6q-45 -8 -63 -20l-13 -6q-4 0 -4 4t2 4q2 16 10 39q16 41 23 63q4 18 20 45q1 3 23 41q6 9 12 21q9 12 15 24q3 10 8 15q5 3 8 8l35 41q23 27 30 45l5 6q11 18 47 63q15 20 22 27q7 4 15 17q7 9 17 27.5t13 23.5t9 15.5t11.5 19t10.5 14.5q2 2 14 20q4 6 13.5 16.5 t13.5 16.5q13 13 20 25q4 8 26 43t30 55q2 8 9 21t9 18q1 3 19 33l12 20q2 4 6 8q5 3 14 27l7 18q13 23 10 47q0 19 2 27q0 5 -1 14.5t-1 14.5q0 23 -13 49q-8 19 -10 31l-6 16q-22 47 -72 88q-32 23 -67 31q-34 9 -68 0q-6 -2 -20.5 -5t-20.5 -5q-55 -15 -131 -48 q-45 -17 -71 -40l-31 -23q-54 -40 -80 -66l-23 -16q-3 -7 -12 -4q-2 2 -8 2q-4 0 -4 -6q9 -26 16 -35l19 -25l6 -6q9 -6 20 0q21 12 37 31q14 17 47 45q30 25 45 35q2 0 6 3t5 3q32 23 45 31l4 4q10 6 34 14l62 19q12 4 16 4q40 4 60 4q10 0 14 -2q14 -7 8 -19 q-8 -16 -14 -24q-45 -62 -53 -76q-23 -34 -25 -37q-53 -75 -88 -119q-14 -19 -47 -57l-49 -55q-9 -11 -26.5 -33t-26.5 -33q-23 -27 -70 -90q-13 -16 -23 -33q-23 -39 -39 -59q-8 -11 -32 -49q-17 -25 -64 -117q-8 -17 -21.5 -51.5t-21.5 -50.5v-4q-8 -25 -10 -33 q-10 -24 -21 -62q-2 -10 -10 -30q-2 -3 -3 -6t-1.5 -7t-1.5 -6q-2 -15 -8 -47t-8 -49q0 -5 -1.5 -20t-0.5 -23q0 -10 -9 -16q-6 -5 0 -11l7 -12q2 -2 5 -7t5 -7q5 -8 2 -17q0 -3 -1 -8t-1 -8q-3 -5 2 -10q12 -9 20 -17q43 -27 80 -35q19 -6 37 0l39 13q17 4 25 10q1 1 4.5 2 t5.5 2q4 4 14 4q7 -4 12 4q12 19 27 27l25 14q7 2 14 13q3 4 23 14q8 5 18 2q5 -2 17.5 -5t17.5 -5q63 -24 88 -33q63 -22 67 -23q40 -6 115 -10z" />
<glyph unicode="3" horiz-adv-x="942" d="M115 283v-23q2 -34 14 -96l6 -14q20 -36 35 -56q1 -2 4 -5t5 -6t3 -7l2 -2q4 -2 17 -15q31 -20 39 -24q33 -23 69 -23q15 0 23 -8q4 -4 12 -4l12 4q2 0 5.5 1t5.5 1q3 0 18 2.5t18 -0.5q2 0 5 1t4 1q24 4 37 2q10 0 18 8q26 21 33 23l24 10q7 0 11 4l51 31q10 5 12 12 l6 6l12 11q11 10 52 61l10 12l20 27q3 3 8.5 10.5t8.5 10.5q4 4 6 8l10 14q1 2 4 5t4 5q31 47 49 86q18 46 25 76q3 12 8 37t8 37l7 41q4 62 4 88v55q2 19 -11 62l-4 14q-5 16 -16 39q-7 17 -35 63l-8 11q-7 11 -12 16q-10 9 -11 14q-7 23 -24 35q-5 5 0 10l22 23q6 6 15 12 l12 12q4 11 10 17q13 10 19 22q4 6 10 19.5t10 19.5q4 8 4 17l4 34q4 16 4 23l-6 35q0 3 -2.5 14.5t0.5 14.5q0 1 -1 3.5t-1 4.5l-4 10q-6 30 -24 51q-27 39 -56 62q-51 40 -90 57q-60 29 -121 29h-45q-37 0 -80 -17q-52 -22 -94 -51q-31 -23 -49 -39l-18 -14q-10 -6 -17 -4 h-24q-5 1 -21 -4v-7l2 -6l10 -18l7 -12q17 -28 53 -50q2 -1 8 -4.5t8 -5.5q21 -18 47 -24q3 0 11 -4q21 -10 51 -3q11 3 33 17l22 14q12 6 23 17l10 6q8 7 35 20q35 15 41 19h4q24 4 34 4q5 0 16 -1t17 -1q12 0 21 -9q28 -32 33 -43q8 -15 16 -45q3 -26 -8 -49 q-8 -12 -29 -33q-26 -22 -49 -38l-23 -17q-10 -6 -30 -22q-11 -4 -17 -2l-16 2q-28 4 -43 4h-10q-2 0 -6.5 -1t-6.5 -1q-15 0 -47 -8q-17 -3 -33 -13q-24 -9 -43 -28q-9 -9 -6 -19l6 -24q4 -11 13 -17l24 -18q14 -9 19 -11q10 -6 30 -10q10 -2 27 -2q10 2 31 2q10 0 26 4 t21 4q14 0 24 5q6 3 19.5 7t19.5 7q2 2 7 2q9 0 18 6q4 4 12 -2l35 -29l12 -14q11 -16 23 -47q15 -45 10 -76q-2 -21 -10 -78q-4 -16 -4 -24v-11q-15 -71 -41 -133q-2 -8 -10 -20q-7 -11 -16 -22.5t-21 -26t-17 -21.5q-61 -76 -149 -116q-48 -19 -66 -19q-10 0 -12 -4 q-4 -3 -8 -5t-9 -4t-8 -3q-2 0 -6 -4q-6 -3 -14 0q-10 3 -12 10q0 4 -4 8q-5 8 -5 16l-2 23v49v6q-1 3 5 21l10 18q16 40 26 60q7 14 25 32l20 21q3 3 23 18q1 0 6.5 2t7.5 4l11 11l2 2q4 2 4 6q-3 10 6 10l2.5 2.5t-0.5 1.5q-5 5 -2 10l6 9q5 5 0 10q-8 8 -14 10 q-26 17 -39 21q-2 0 -8 6l-7 6q-3 6 -10 2q-8 -4 -14 -2h-10q-9 0 -15 -6q-7 -10 -18 -17l-25 -16q-24 -19 -51 -49q-20 -20 -39 -58q-33 -68 -39 -86l-6 -12q-4 -16 -4 -22l-6 -35q-4 -16 -17 -21l-2 -2v-6l4 -2l5 2q4 2 4 -2v-18zM420 952h6q2 -2 0 -2l-14 -6 q-15 -4 -15 2q1 2 3 3t5.5 1.5t4.5 1.5h10z" />
<glyph unicode="4" horiz-adv-x="964" d="M512 4q8 -4 10 -4q6 0 6 6q6 3 9 0q12 -4 16 4q7 2 20 15l5 2q7 1 22 16q12 10 16 33q0 6 5 26v21q1 5 1 15.5t1 15.5l2 30q0 11 2 17l2 18q0 2 2 23.5t4 33.5q1 9 4 27t4 27q0 8 3.5 22t4.5 19q6 18 25 18q12 4 20 4q7 -1 33 4q28 8 39 6l18 3q5 0 13 4l30 20q8 6 15 19 q-1 4 8 18l10 14v11q-4 8 -8 10q-9 6 -23 6l-16 -2q-16 0 -24 -2q-32 -4 -54 -4l-59 -6h-8q-2 2 -2 4l-2 4q0 27 10 57q8 33 10 45q5 18 19 86q6 36 18 74q6 25 -16 41l-11 6q-10 3 -18 -2l-19 -14q-5 -3 -10 -13v-10q0 -11 -6 -20l-18 -41l-25 -68q-20 -41 -33 -92 q0 -6 -6 -12q-4 -4 -4 -13q2 -10 -2 -30q0 -9 -8 -9l-2 -2q-28 -4 -43 -4h-70h-8q-4 0 -4 6v7q6 41 18 86q4 12 13.5 39t13.5 43l18 57l25 80l29 80q5 10 8 22q9 34 16 49l4 8l25 66q7 22 14 33l6 14q1 11 6.5 31t6.5 24q10 45 10 54q4 27 10 39l4 8q0 4 4 0l4 -2q3 -3 7 0 v4q0 5 -5 8q-11 3 -2 12q6 15 9 33q0 2 2 6.5t2 7.5q0 1 -4 17q-7 23 -23 37q-9 9 -12 22l-2 4q0 4 -6 4h-5q-6 0 -6 6l-4 9q-2 5 -5.5 9t-10 8t-8.5 5q-9 0 -21 8t-20 0l-4 -2q-7 0 -19 -8q-3 -5 -8 0q-2 4 -5 5.5t-8.5 3.5t-7.5 3q-4 4 -8 0q-6 -2 -20 3q-5 5 -12 2 q-3 -1 -6 -1t-6.5 0.5t-4.5 0.5q-8 2 -20 2q-8 0 -11.5 -6t0.5 -13l9 -16q8 -11 -4 -19q-3 -2 -8.5 -7t-8.5 -7q-12 -6 -12 -20t-8 -19q-10 -10 -7 -22q0 -13 -8 -29l-18 -33q-7 -11 -14 -33l-25 -67q-23 -67 -45 -121q-34 -95 -45 -141q-18 -66 -21 -86l-2 -11l-30 -94 q-12 -34 -21 -72l-16 -77q-5 -18 -8 -25q-6 -6 -3 -16v-15q-4 -8 -4 -23v-18q0 -4 2 -6q2 -6 2 -18q0 -10 7 -21l6 -18q0 -2 4 -6l8 -6q11 -11 35 -27l27 -14q20 -12 47 -15q4 -2 10 -2q10 4 31 4q14 -3 22 2q6 0 8 -2q8 -11 17 -2h6q2 -1 5 0.5t5 1.5q4 2 4 7q0 8 8 8 q12 0 21 6q2 4 12 4l45 12q12 6 25 6t53 9q4 0 4 -7l-2 -12q-12 -50 -14 -76q-1 -2 -2 -7t-2 -7q-9 -31 -9 -45v-12q-3 -14 -8 -58v-28l2 -6q0 -14 6 -29q5 -5 2 -10q-3 -6 0 -11q1 -4 4.5 -12t4.5 -12q3 -17 14 -31z" />
<glyph unicode="5" horiz-adv-x="1048" d="M561 684q0 -64 -12 -125q-5 -27 -19 -61l-8 -27q-4 -13 -10 -27t-13.5 -30.5t-11.5 -26.5q-12 -28 -47 -76l-18 -22q-10 -13 -23 -21q-26 -15 -45 -22q-20 -8 -32 -10h-5q-9 -6 -18 0l-6 4q-8 4 -14 4l-11 2q-4 4 -4 6q0 4 -4 6l-2 2q-6 18 -6 21v18q-4 22 -8 29 q0 2 -2 2l-2 -2q-2 -2 -2 -6l-2 -3l-3 3v12l9 14l6 19l8 16q4 12 8 20q8 16 17 23q10 5 10 18q-2 7 2 15l4 8q1 0 1 2t-1 2q-9 14 -18 14q-9 3 -28 9t-26 8h-6l-8 -6l-8 -4q-11 -8 -15 -13l-4 -6q-8 -8 -16 -20q-28 -44 -29 -47q-18 -32 -28 -78q-7 -28 -7 -54l-2 -8 q-3 -28 4 -59l9 -47q4 -13 0 -19v-4v-6q-6 -6 2 -10q6 -3 6 -8l4 -7l2 -2l2 2q-4 12 -4 15l-2 4h2q4 0 4 -4q2 -4 5 -11l3 -6q11 -11 13 -20q7 -14 30 -33l29 -20q2 -2 7 -5.5t7 -5.5q11 -4 13 -8q5 -5 10 -2q2 0 6.5 -1t7.5 -1q16 -8 41 -8h21q15 0 30 6l23 4l24 6l19 9 q8 5 24.5 11t18.5 7l10 4q12 4 16 4q7 0 7 6q0 3 6 9l10 4l12 6q4 4 4 6l15 22q1 1 2 2.5l2 3t2 1.5q3 1 8.5 6t7.5 6l6 6q8 4 11 10l6 8q21 21 26 31l4 4l21 25l14 24q4 6 11.5 19.5t11.5 19.5l4 13q4 6 12 22l2 4q1 3 4 9.5t4 9.5l9 14q13 40 20 55l8 25l4.5 9t4.5 11 l10 37q0 2 5.5 17.5t6.5 23.5l8 33q6 28 6 29v6q0 3 1 7.5t1 6.5l5 35v41q0 5 -1.5 15.5t-1.5 15.5l-2 6q0 5 -1 14t-1 14q-4 32 -8 48v2q-3 18 -12 36q-5 13 -21 29q-4 4 -12 16q-5 10 -20 21l-4 4q-5 5 -15 8l-10 4q-18 13 -27 17l-37 12q-6 4 -22 4l-39 2q-12 1 -82 -4 l-41 -4q-7 -1 -8.5 0.5t0.5 9.5l2 6q1 3 4.5 10.5t5.5 10.5l15 45q6 9 6 18q0 5 4 13q8 20 8 30l2 2q3 10 8 17q9 18 11 28v5l6 18q2 7 5 22t5 23l4 14l6 23l2 4q0 11 8 35q4 8 4 16l3 25q2 4 6 6h12h16q40 4 60 10q4 1 12 2t12 2q13 0 19 2q6 1 17 1t16 1q8 -2 22 -2l18 2 q9 1 28 2t28 2l51 5h14q20 4 33 4h2q8 0 27 14l2 2q0 2 6 8q4 0 4 4t2 6q5 8 2 17l-6 12l-4 4q-22 12 -43 15h-39h-6q-7 0 -22.5 -1t-22.5 -1l-62 -5h-6q-27 -2 -78 -2q-9 0 -28.5 -1t-28.5 -1h-4q-15 -4 -49 -8q-28 -4 -41 -4q-19 0 -51 -4q-7 0 -9 2q-15 12 -34 12l-4 2 q-21 0 -29 -2q-15 -5 -15 -22q4 -7 0 -15l-12 -34l-24 -62l-9 -24l-24 -58l-37 -96l-18 -47q-31 -83 -31 -84l-21 -70q0 -2 -1 -6t-1 -6l-6 -29v-28q4 -17 10 -23l9 -10q5 -10 4 -14l2 -5v-4v-2l22 -6l29 -6q5 -1 15.5 -4t15.5 -4q4 0 6 -2q8 -4 14 -2l12 -2q2 0 6.5 1 t6.5 1q9 3 18 0q4 0 6 2l2 2q2 4 9 4l6 2q16 4 20 12l2 2q4 4 2 8q0 9 2 15t2 16v12q0 5 4 9l7 2q4 2 12 5t12 5q28 4 39 4l27 2q8 0 24 -4q6 -3 11 -8q11 -19 14 -37l6 -39q8 -58 6 -86z" />
<glyph unicode="6" horiz-adv-x="1073" d="M969 553q2 -12 2 -39l-2 -29q0 -23 -11 -49l-8 -24l-6 -13l-6 -10q-5 -16 -8 -20l-2 -2q0 -4 -1 -7.5t-2.5 -8l-2.5 -7.5q-1 -7 -11 -31l-6 -18q-6 -17 -20 -35q-14 -19 -19 -27q-1 -1 -2 -4t-2 -4q-5 -3 -20 -24q-12 -12 -15 -13q-1 -1 -6.5 -5t-7.5 -7q-8 -8 -14 -10 l-4 -2q-3 -3 -33 -21q-19 -8 -31 -10q-9 -3 -14 -8q-9 -12 -23 -19q-33 -25 -49 -32l-37 -21q-12 -7 -47 -20l-41 -13l-45 -10h-2l-49 -2h-14q-4 0 -12.5 1t-12.5 1q-6 0 -51 10q-13 4 -55 23q-24 16 -35 27l-2 2q-1 3 -25 26q-32 29 -49 64q-22 46 -31 76l-18 63 q-8 35 -10 55q-5 40 -5 47l-2 27v8l2 45q3 26 9 49q7 52 22 89l25 53q7 14 10 26q8 32 33 93q3 8 35 69l20 35l57 86q41 57 97 123q21 27 59 70l25 30q16 18 39 49l59 76q6 8 19 22.5t14 16.5l10 12q11 12 0 23q0 4 2 4q12 4 18 8l9 2q2 2 2 4l-6 11q0 4 4 8h6q12 -4 16 -8 q2 -1 6 -2t6 -2l31 -3q27 0 51 -14q2 -2 23 -12q34 -12 61 -33l6 -4q4 -3 8.5 -7t9 -9.5t7.5 -8.5l2 -4q3 -3 12 -19.5t11 -21.5l6 -28q4 -12 2 -19l-2 -6q0 -14 -10 -24q-7 -14 -19 -23l-12 -12q-28 -22 -29 -23l-49 -31l-4 -4q-15 -13 -49 -30q-14 -7 -19 -15 q-4 -8 -8 -12q-9 -9 -16 -23q-6 -19 -21 -28l-4 -4q-20 -20 -31 -39l-32 -41l-15 -19q-12 -20 -20 -30l-27 -41q-11 -18 -22 -27q-15 -15 -17 -18q-1 -2 -3.5 -5.5t-4 -5.5t-2.5 -4q-24 -24 -37 -45l-37 -59l-4 -10q-2 -3 -5 -11.5t-5 -11.5q-8 -12 -8 -20l-2 -4 q-6 -12 -6 -25q0 -4 -4 -8q-2 -3 -7 -25l-6 -22q0 -7 -2 -11v-10q0 -1 -6 -41v-22l2 -56q0 -20 2 -30l6 -39q8 -40 19 -62q5 -10 14 -37q4 -8 12 -20q14 -18 47 -51l11 -10l10 -5q58 -12 88 -8q10 0 14 2l39 11q8 4 10 6l31 22q14 8 25 27q12 24 39 55q15 21 28 47l29 64 q10 27 10 47v22q3 23 -4 50l-2 20q-1 9 -4 25t-4 22l-4 35q-4 26 -8 37l-11 41l-6 18q-7 15 -16 19q-8 9 -31 16q-7 4 -16 -2q-6 -3 -27 -10t-31 -13l-8 -6q-13 -16 -26 -24q-14 -10 -19 -21l-24 -31l-17 -22q-6 -9 -18 -18l-4 -7q-8 -8 -17 -8q-7 -2 -10 -8l-4 -10 q-4 -4 -8 -4q-22 3 -33 28q-4 16 -4 25q3 37 20 65q22 35 35 48l12 14q9 12 21 24l4 5q2 4 21 18l40 23q1 1 4 2t5 2l26 10q35 11 62 8q18 0 26 -2h11q48 -3 90 -14l10 -2q14 -3 25 -9l8 -4q10 0 14 -12l25 -47q4 -6 8 -18q2 -12 10 -31q7 -17 10 -33q2 -4 2 -12 q0 -14 7 -35q4 -11 8 -41zM369 16q2 2 0 2l-23 11q-10 5 -29 8q0 -4 2 -4q17 -10 50 -17z" />
<glyph unicode="7" horiz-adv-x="1124" d="M352 662h17h10l2 -5q0 -4 -4 -8l-33 -67q-9 -20 -28.5 -60.5t-28.5 -60.5q-20 -42 -33 -74l-41 -102q-29 -74 -35 -95q0 -4 -4 -16q0 -6 -1 -18t-1 -21.5t2 -17.5v-21q-2 -9 2 -22q1 -4 4 -11.5t4 -11.5l2 -2q4 -2 9 -7.5t8 -6.5q7 -5 14 -15q4 -4 -2 -4l33 -10 q6 0 10 -2q3 -2 11.5 -5t11.5 -5h10q8 4 22 4q19 0 23 2q9 4 16 2q8 0 10 4q1 1 11 6q2 0 5.5 1t4.5 1q9 0 12 9q4 4 8 4h7q12 0 14 8q1 3 8 6q14 14 17 31q0 14 2 22q4 8 4 17q0 14 6 26l18 60q10 25 33 73q1 1 2 4.5t2 4.5q3 12 10 26q4 6 9 21q4 12 16 32q4 4 4 9l12 24 q21 42 25 51l12 27q1 1 3.5 4.5t2.5 5.5q4 9 15.5 30t15.5 34q2 2 2 4q6 10 16.5 31.5t16.5 31.5l4 4q2 8 10 22t10 19q3 12 9 21q5 11 14.5 29.5t11.5 21.5q4 8 10 8q7 3 25 8q17 6 37 9q4 1 10.5 2t9.5 2q12 4 19 4q11 4 33 8q24 8 36 10l35 6q6 2 18.5 6.5t18.5 6.5 q21 7 29 20q4 4 4 6q3 3 0 6q-4 14 -14 17q-27 10 -52 10q-4 -1 -13 -2t-13 -2q-55 -8 -84 -14q-21 -5 -47 -9q-3 -3 -6 0l-3 2q5 6 15 27q3 10 12 19q2 2 5.5 8t4.5 8q10 21 15 27q11 14 18 34q6 12 8 13q4 5 9.5 16t9.5 16q0 1 1 3.5t1 3.5q0 2 10 22l6 12q4 9 17 27 q4 8 6 10q19 34 22 43q8 15 10 25q1 3 8 17.5t9 21.5q8 19 10 33q0 4 2 6q3 19 0 39q-3 17 -8 24q-1 2 -2 7t-2 7q-5 10 -6 11l-11 12q-21 21 -34 23q-1 1 -4.5 2t-4.5 2q-18 6 -30 18q-21 18 -54 33q-24 9 -51 2q-8 -5 -20 -2q-16 4 -29 4q-30 4 -43 8l-33 6q-41 7 -100 4 h-6q-37 0 -55 2q-15 0 -21 -2q-9 -1 -28.5 -2t-28.5 -2q-4 -1 -12.5 -2t-12.5 -2q-56 -4 -86 -8q-20 -4 -31 -4q-21 0 -71 -8q-22 -4 -37 4q-9 3 -29 6t-26 4q-9 0 -9 -8q0 -9 9 -23l6 -14q3 -14 14 -25q4 -4 12 -9.5t11 -8.5q16 -11 34 -25q22 -16 50 -16l8 -2q28 0 51 10 q24 8 37 8q21 0 33 2q4 0 6 2q18 6 39 9h8q4 2 14 2h6q17 0 45 4q25 0 35 4q1 0 3 1t3 1h31q27 -5 66 2q7 2 16 2t20 -1t17 -1q2 -1 39 -6h6q10 -3 4 -12l-6 -17q-3 -5 -9.5 -15.5t-9.5 -15.5q-10 -23 -34 -63q-7 -13 -60 -107q-13 -24 -53 -94l-80 -159q-4 -10 -10 -21.5 t-13 -25t-10 -19.5q-6 -12 -16 -12q-14 -3 -41.5 -9t-36.5 -8l-24 -6q-42 -6 -43 -6q-12 -2 -31 -10q-18 -6 -21 -6l-12 -6q-1 0 -1 -1.5t1 -3.5q15 -10 21 -16q4 -4 16 -8q2 0 6 -1t6 -1q15 0 27 -6q3 -1 7.5 -2t6.5 -2q7 -2 47 -2z" />
<glyph unicode="8" horiz-adv-x="960" d="M371 1266q-9 -9 -25 -21q-8 -4 -12 -8q-11 -8 -21 -10q-8 -3 -12 -10q-3 -7 -10 -15q-2 -3 -8 -9.5t-9 -10.5q0 -4 -4 -4q-5 -2 -16 -19l-8 -16q-15 -22 -19 -35l-14 -51q-12 -45 -8 -119q0 -6 1 -14t2.5 -18t2.5 -15q7 -30 14 -45q1 -2 2 -6t2 -6q0 -11 9 -17 q7 -4 4 -10q-3 -3 0 -6l6 -13q17 -27 37 -47q10 -11 47 -39q8 -3 12 -10q6 -9 16 -12q3 0 11 -4q5 -4 5 -6t-5 -6l-21 -19q-24 -21 -45 -45l-20 -25q-6 -11 -19 -18q-4 -2 -8 -10q-2 -4 -10 -8l-10 -7l-5 -6l-8 -6q-6 -6 -14 -18l-12 -21l-35 -53q-4 -8 -10 -14l-4 -4 q-4 -12 -9 -17q-14 -12 -18 -37l-2 -10q0 -10 -6 -10q-7 -3 -9 -8q-4 -24 -4 -35v-6q0 -13 2 -21q5 -15 5 -22q0 -3 6 -39q4 -16 4 -29q-1 -7 24.5 -43.5t30.5 -38.5q2 1 2 4l43 -28l19 -13l41 -18l55 -23q20 -9 43 -12q6 -1 18.5 -2t18.5 -2q16 0 24 2l8 2q13 4 19 0 q5 -2 10 0q20 4 29 4q12 0 16 4l-2 2l4 2q6 3 15 -2q8 -4 12 -2q12 0 18 -2h8l13 4q14 7 22 13q3 3 17 8q11 3 20 12q3 3 17 8l12 6l18 11q4 2 7.5 4.5t7.5 5.5t6 4q12 12 20 16q14 7 23 19l8 6q7 5 16 18l6 7l9 6l18 28q16 23 19 45l6 13l4 8q8 29 10 41q4 28 4 41 q3 31 -8 59q-6 24 -8 29q-1 4 -6 16.5t-7 20.5q0 8 -8 12q-6 3 -6 8l-10 19q-8 16 -14 22l-7 8q-2 4 -10.5 14t-11.5 17q-27 35 -43 53q-37 37 -45 43q-54 42 -68 50l-26 18q-10 7 -5 14l9 8l16 15q6 6 6 8q1 2 19 20l16 15q5 7 62.5 57t60.5 55q12 17 27 43q1 2 4 9t4 12 l12 31q3 10 9.5 27t11 30.5t8.5 26.5q8 28 8 45q0 31 4 45q2 4 2 16q4 15 -2 27v6v14q0 11 -2 15q-1 4 -4.5 17.5t-3.5 20.5q0 8 -6 17q-5 10 -17 26l-18 23q-9 12 -21 18q-28 19 -59 25q-17 3 -23 18q0 7 -12 7l-10 -7q-1 -2 -17 -4.5t-35 -5t-24 -4.5l-27 -14l-43 -27 l-30 -20l-29 -17l-55 -37q-10 -10 -23 -10l-4 -2q3 -5 0 -8zM737 1139q-4 -25 -10 -37l-2 -6q0 -22 -16 -58l-9 -16q-12 -30 -51 -78l-67 -72q-5 -5 -16.5 -14t-16.5 -14l-8 -6l-33 -35q-11 -7 -14 -17q-3 -6 -11 -2q-22 13 -45 29q-8 8 -8 12l-2 9q-6 12 -6 40v11 q0 31 8 45q3 16 14 35q0 3 5 8q6 4 14 20q21 34 57 56l27 20l16 12q13 13 19 17q23 15 30 24l23 13q50 17 98 45l2 2l4 -2v-19zM297 238l-4 8l-6 14q-4 4 -4 6q0 4 -3.5 11.5t-3.5 11.5l-2 2q-7 4 -4 12l2 4l-8 12q-2 6 4 23q1 6 7 18.5t6 20.5q0 2 17 26t33 47t13 23 q43 54 55 74q2 3 13 14l32 31q5 7 23 16q4 4 8 0l6 -6q32 -32 72 -86q19 -22 29 -43q23 -41 20 -80v-26q0 -34 -8 -58q-2 -4 -2 -12q0 -15 -12 -39q-1 -3 -2.5 -5.5t-4.5 -5.5t-4 -5l-12 -13q-6 -6 -14 -6l-82 -8q-2 0 -4 -2q-8 -4 -25 -4q-19 0 -37 -6q-4 -4 -14 -4 q-8 0 -12 -2q-4 -4 -9 -4q-4 0 -8 -4q-3 -2 -4 -3h-6l-2 5q-6 0 -10 2q-14 14 -17 20z" />
<glyph unicode="9" horiz-adv-x="950" d="M846 952v-18q3 -20 0 -41q-1 -6 -2 -18.5t-2 -18.5v-20l-2 -11q0 -14 -2 -22l-2 -8v-9q0 -4 -3 -14t-2 -16l-8 -62l-2 -8q0 -16 -2 -22q-6 -12 -6 -27l-2 -23l-8 -36l-6 -21v-4q-4 -7 -9 -31q0 -11 -6 -20l-14 -37l-8 -33l-4 -14l-4 -6q-4 -5 -8.5 -15.5t-4.5 -11.5 l-4 -10q-5 -18 -8 -25q-7 -11 -14 -33q-12 -28 -23 -41q-8 -10 -14 -26q-3 -10 -8 -17q-4 -4 -4 -10q-9 -18 -21 -30q-22 -22 -37 -46q-2 -4 -10 -8l-8 -8q-4 -9 -21 -18q-9 -5 -20 -19l-2 -2q-2 -3 -4 -4q-5 0 -9 -4l-10 -8q-11 -11 -20 -13l-8 -4q-9 -7 -27 -14 q-8 -4 -10 -8l-15 -12l-10 -5q-6 -5 -19 -9.5t-16 -6.5l-8 -2q-49 -4 -74 4l-34 12q-32 16 -50 43l-12 17q-20 28 -26 67q-10 56 -11 70v18q0 34 -6 48v10q0 6 4 6q19 0 27 4h20q16 -3 33 -10q12 -4 19 -4q10 0 18 -8l8 -5q17 -17 25 -20q21 -21 22 -23l6 -10q4 -7 11 0 l28 23q10 10 19 22q3 4 8 13.5t8 13.5l23 51l12 29q10 30 22 57q7 17 21 62q14 51 27 112q13 69 16 88q2 12 4 34t2 24l6 49l2 20q0 29 2 43v6q-18 -22 -28 -39q-4 -7 -13 -19.5t-10 -14.5q-3 -5 -10 -14.5t-10 -14.5l-2 -4q-4 -3 -8 -7t-8.5 -10.5t-6.5 -9.5 q-9 -14 -18 -18l-13 -10l-8 -5q-10 -2 -26 -10l-29 -14q-12 -4 -19 -4h-26q-2 0 -6 -1t-6 -1q-8 -4 -21 -4q-49 3 -90 30q-21 16 -43 45q-34 48 -49 111q-13 56 -15 78v20q-2 10 -2 33l7 33q4 30 8 43q1 4 2 12.5t2 13.5q5 20 8 23q2 2 2 8q17 41 29 60l4 8l4 10l25 37 q10 15 16 18l6 9l14 18q4 4 7 4l8 2q4 0 8 4l10 8q7 4 4 7q3 10 8 12q8 3 11 8q6 9 20 12h4q4 0 8 4l7 4l18 11l12 6q12 6 13 6q4 -4 4 0v4q6 6 10 6l14 2q5 3 8 8q2 7 11 11q6 3 12 0q2 -2 6 2q3 8 10 8t11 2l6 4q4 0 6 -2v-6q3 -6 6 -6q2 0 8 -6l27 -43q1 -1 2 -4.5 t2 -4.5q0 -8 6 -14q4 -4 0 -8v-8q2 -8 2 -25q-1 -1 2 -4h4q8 -5 8 -14q0 -7 -8 -11l-10 -2q-6 0 -10 -8q-15 -18 -17 -35q0 -9 -10 -16l-18 -12q-25 -21 -35 -35l-6 -6q-7 -4 -15 -17l-8 -8l-18 -18q-13 -13 -15 -21l-6 -6q-9 -12 -28 -55l-4 -17l-5 -12q-4 -24 -4 -41v-41 q0 -13 7 -30q1 -2 7 -16t11 -21q28 -39 33 -45l4 -7h6l4 3q45 36 57 51q33 33 56 69q30 44 43 86q9 23 14 31q5 10 14 37q4 8 4 25q-4 16 -4 49v45q0 8 -1 25t-1 26v8q0 15 -8 23q-10 10 -6 24q0 5 6 8q3 0 12 9l7 4q25 25 65 16l29 -12l37 -23l10 -4q29 -12 33 -14l8 -4 q1 -1 4 -2t4 -2q3 -4 23 -19q25 -19 28 -51l4 -29l2 -20v-10q4 -8 4 -29l3 -27q1 -5 2 -15t2 -15l6 -41l2 -17q0 -16 2 -24q0 -11 -2 -17zM360 1356q-8 0 -8 -4q3 -1 5.5 0.5t2.5 3.5zM324 1333q-10 -5 -21 -16q19 7 25 16h-4z" />
<glyph unicode=":" horiz-adv-x="673" d="M371 729v-8q-2 -13 2 -37q3 -30 33 -43l26 -12q13 -10 27 -4q15 0 51 10l10 -4q9 -3 15 0l10 6q3 1 8 4t8 4q6 0 6 8l-2 17q2 13 2.5 38t1.5 33v27q4 22 2 33q0 25 -18 35l-6 6q-24 14 -35 18h-51l-60 12q-16 0 -24 -2q-6 0 -2 -4q9 -12 6 -24l-4 -23q-8 -61 -6 -90z M561 102v21q0 25 -12 61q-4 12 -10 15l-21 14q-13 10 -29 10l-49 6l-24 2q-6 0 -8 -2q-6 -9 -19 -6q-8 0 -20 -4q-9 -3 -9 -10l-2 -4q-1 -1 -2 -4.5t-2 -5.5v-17q-8 -26 -4 -63v-13q-1 -6 -3 1t-3 1q-3 -17 4 -38q6 -24 6 -25q0 -2 4 -10l4 -11q0 -10 13 -14l10 -2 q5 0 21 -4l12 -2q4 -1 11.5 -2t10.5 -2q4 -1 11 1t10 1q4 0 16 4h6q8 -6 17 0l18 6q6 0 10 4q4 9 21 13q9 0 12 14v12v53z" />
<glyph unicode=";" horiz-adv-x="616" d="M422 641q37 0 51 10q2 0 4 2q6 0 8 2q25 11 25 31v6q1 8 2 25.5t2 25.5v11q-4 26 -8 37q-3 13 -14 18q-14 11 -25 16q-57 23 -66 25l-28 4h-17q-12 -4 -22 -4q-18 0 -21 -16q0 -19 2 -27q3 -10 0 -16q0 -24 -6 -48q0 -6 2 -19t2 -19q3 -21 13 -41q1 -2 8 -9 q2 0 15.5 -3.5t21.5 -4.5l30 -6h21zM354 -147l-8 14q-2 7 5 19.5t19.5 28t14.5 19.5q6 8 12 28t9 26q5 22 -11 28q-2 1 -20 7q-1 0 -10 1t-15 5q-22 11 -26 14q-19 8 -27 33q-1 6 -2 18.5t-2 18.5q5 41 22 86q4 8 4 12q35 35 39 33q4 -4 7 -4q15 0 32 -7q15 -10 39 -18 q5 0 15 -5t10 -9q12 -37 14 -37l4 -47q2 -29 2 -82q0 -39 -8 -55q0 -15 -12 -43q-2 -10 -15 -37q-10 -15 -12 -21q-6 -11 -14 -14q-4 0 -14 -10q-8 -8 -27 -8.5t-25 6.5z" />
<glyph unicode="&#x3c;" horiz-adv-x="1122" d="M1022 911q0 5 -2 11q-2 3 -5 11t-5 11q-28 42 -37 51q-14 14 -19 15q-8 5 -8 -4q0 -10 -8 -13l-12 -6q-9 -5 -28 -14.5t-28 -14.5q-33 -20 -65 -30q-2 0 -6 -4q-12 -12 -29 -15q-3 -2 -12.5 -7.5t-12.5 -8.5q-2 -2 -6.5 -4.5t-5.5 -3.5q-27 -11 -41 -21q-22 -7 -35 -16 q-9 -5 -47.5 -24t-60.5 -31q-20 -10 -21 -11q-15 -9 -36 -18q-49 -25 -64 -35q-10 -10 -22 -14q-1 -1 -15 -8q-11 -11 -61 -37q-11 -4 -37 -21l-8 -4q-7 -8 -11 -7.5t-10 9.5q-4 4 -4 6q-9 15 -27 11q-4 0 -8 -5t-4 -10q3 -14 -4 -31q-3 -8 -6 -25t-4 -22q0 -14 4 -20v-12 q-4 -3 -2.5 -12.5t-1.5 -12.5v-4l6 -21q4 -13 27 -32l28 -17q44 -24 74 -39q32 -19 68 -32q16 -7 32 -19q6 -6 31 -16q28 -12 39 -23q4 -4 8 -4q5 0 17 -8q20 -12 32 -16q4 -2 19 -10.5t24 -10.5l6 -6q12 -4 21 -10q47 -29 51 -33q2 -2 10 -6l31 -17q9 -7 43 -22 q19 -8 33 -16q28 -18 47 -27q46 -28 61 -43q6 -3 9 -6q12 -6 22 4l10 20q3 12 17 19q1 1 4 2t4 2q8 4 6 14q-4 8 -4 17q0 2 2 2q0 2 4 2l8 -6q9 0 9 4q4 20 4 30q1 4 2 13.5t2 13.5q0 6 2 8q0 6 -4 6q-6 0 -23 13q-8 4 -12 8l-45 26q-27 18 -33 21t-35.5 19t-46.5 24 q-19 12 -41 22l-22 11q-34 19 -86 51q-70 39 -74 41l-117 59q-2 1 -12.5 8t-15.5 9q-6 6 -3 6q4 4 7 4q21 14 39 29l47 28q33 18 57 29q15 10 57 31q0 1 1.5 1.5t3.5 1t4 1.5q3 1 23.5 9.5t31.5 14.5q8 4 12 4q16 5 57 33q5 0 13 8q4 4 6 4q4 1 20 9q6 5 19 10.5t16 7.5 q36 18 58 35q3 2 26 16q3 2 12.5 8t12.5 9q7 4 14 10.5t11.5 11t11.5 13.5t10 12q6 6 6 26z" />
<glyph unicode="=" horiz-adv-x="1024" d="M897 618q0 1 3 24.5t5.5 47t1.5 27.5q-3 17 -20 26q-10 3 -15 11l-2 2q-1 0 -1 -1.5t-1 -2.5v-2q-10 -4 -16 2q-3 6 -8 6h-25h-14h-133q-25 0 -35 2h-39h-47q-7 1 -27 1.5t-30 2.5h-19q-37 0 -57 2h-37q-15 0 -39 4q-4 1 -12.5 2t-12.5 2h-10q-21 1 -59.5 6t-46.5 6 q-16 4 -23 13q-2 2 -4 2q-1 3 -4 3.5t-4 -1.5l-16 -8q-14 -6 -11 -19l2 -4q4 -6 0 -18v-11q0 -2 -4 -6q-8 -11 -2 -24l4 -21q0 -9 6 -12q6 -6 9 -12q4 -12 4 -19l2 -8l6 -6q20 -8 31 -4h8q10 -2 33 -2q23 3 41 -2q4 -1 13.5 -2t14.5 -2h10q15 -5 41 -5h13q5 -1 15 -2t15 -2 h11q8 3 16 0q13 -4 23 -2h4q6 0 16.5 -1t15.5 -1q4 -1 12.5 -1t12.5 -1q4 0 12 -1t11 -1l47 -6q20 0 30 -2q20 -4 31 -4h8q4 0 11.5 -1t11.5 -1q6 0 18.5 -1t18.5 -1q27 0 41 -2h20q6 -2 21 -2h26h25h12h21q4 0 8 4q3 7 6 8q10 5 6 20zM852 307v2q4 0 11 -1t11 -1h13 q12 0 14 8l4 4q8 5 8 19l9 98q0 2 -4 2q-7 -2 -19 6q-8 6 -12 19l-2 6q-3 10 -11 10q-2 2 -6 2q-4 -3 -28 -8q-15 0 -21 -2t-18 -2q-20 -2 -62 -2h-34q-5 0 -14 -1t-13 -1q-10 0 -31 1t-33 1l-14 2q-2 0 -6 1t-6 1q-22 0 -58 4q-24 4 -36 4q-23 2 -68 2h-90h-14q-28 4 -43 4 q-29 2 -97 4t-76 0q0 -8 -2 -10q-2 -5 0 -10q0 -3 5 -23q0 -14 14 -28q13 -10 10 -31q0 -11 8 -16q2 0 2 -2v-4l-2 -3q-7 -7 -4 -16q2 -12 13 -18q2 -1 6 -3.5t6.5 -4t6.5 -3t7 -2.5q2 0 6 -4q4 -2 13 -2q40 8 65 8q6 1 19.5 2.5t19.5 2.5q12 2 35 2q16 0 47 1t47 1 q23 0 33 -2h16q34 -3 66 -9q6 -1 18.5 -2t18.5 -2l10 -2q24 -4 39 -4q25 -4 73 -4q5 0 17 1t18 1q4 0 13.5 1t13.5 1q21 0 31 -4q4 -2 8 2t14 4h35z" />
<glyph unicode="&#x3e;" horiz-adv-x="1126" d="M1022 506q4 -14 -2 -25q-2 -6 -10 -6q-6 0 -10 -4t-3 -10l-2 -4q-3 -3 -6 0l-4 4l-2 -2l2 -13q0 -8 -6 -8h-4q-4 0 -8 -4q-2 -13 -19 -26l-20 -19l-19 -12l-61 -29q-6 -3 -19.5 -8t-19.5 -8l-74 -33q-13 -5 -34.5 -14.5t-28.5 -12.5l-72 -32q-49 -24 -121 -70 q-8 -5 -25.5 -14.5t-25.5 -14.5l-66 -43q-15 -9 -32 -6q-4 0 -8 4q-4 3 -17.5 11t-19.5 14q-22 9 -29 16q-3 3 -10 0q-10 0 -13 8l-8 13q0 6 -8 6q-8 4 -8 10q0 10 -4 14q11 22 12 27q3 14 16 23l25 18l64 41q26 13 65 37l59 33l31 18q11 4 31.5 14t23.5 11q8 1 21.5 7.5 t19.5 8.5l43 18q7 3 22 9t19 8l78 31q6 2 18.5 7t18.5 7l8 4q2 0 2 2t-2 2l-28 21q-21 12 -45 24l-19 12q-35 20 -41 25q-5 5 -14 8l-66 37q-41 26 -53 31l-4 2q-4 2 -21 12t-28 14q-1 0 -17 11q-5 3 -25 17.5t-32 21.5l-12 10q-10 8 -23 14l-26 19q-7 7 -7 16l3 8 q0 10 -3 19q-9 15 -6 32l2 31q0 13 7 31q4 16 4 22l6 13q11 11 12 14l4 2l4 -4l4 -19q3 -16 19 -26l37 -23l55 -37q4 -2 11 -7t11 -7l84 -43l13 -6q5 -8 14 -8l14 -6q6 0 9 -7q0 -9 10 -6q12 0 12 -8l2 -4q1 -1 4 -3t5.5 -3.5t5.5 -1.5h4q14 0 18 -14l10 -5q20 -12 31 -12 q2 0 6 -4l2 -6q0 -8 6 -8l13 -2q8 0 10 -4l29 -19q8 -6 26 -16.5t21 -12.5q26 -13 47 -28l18 -8q0 4 4 4q6 0 6 -6q0 -7 5 -9l18 -8l4 2q8 0 8 -6q-2 -5 4 -7q1 -1 2 -1l9 2q4 0 8 -4l4 -4q0 -4 -4 -4l10 -13q21 -21 27 -41q3 -10 8 -12q6 -3 6 -10zM676 748q3 -3 6 -3l-6 3 q-2 2 -6 2q-3 3 -4 2q2 0 4 -2z" />
<glyph unicode="?" horiz-adv-x="1064" d="M514 326q-8 2 -25.5 4t-19.5 2q-6 0 -14 4q-7 1 -21.5 4t-21.5 4q-1 0 -17 8q-13 0 -10 13q0 2 -1 6t-1 6q-8 11 -8 29t-6 28v8q6 8 6 25q1 6 2 19.5t2 19.5q7 57 20 100q2 3 5.5 12.5t5.5 12.5q0 2 4.5 25.5t9 43.5t6.5 19q3 -3 8 2q9 13 11 20q0 8 6 11q4 3 12.5 11.5 t13.5 12.5l27 21q7 4 49 24t51 23q3 2 10.5 5t10.5 5l18 6q12 6 32 18.5t32 18.5l10 8q7 5 14 15q4 10 25 41q10 15 18 45l13 96q1 7 2 21.5t2 21.5v10q-3 26 -25 45l-20 19q-19 16 -58 32q-20 6 -45 2l-20 -4q-1 -1 -6 -2t-7 -2q-21 -6 -36 -18q-18 -11 -29 -19l-17 -16 q-21 -20 -38 -33q-21 -18 -43 -43l-31 -29q-11 -9 -23 -24q-7 -10 -20 -16l-17 -7q-4 0 -8 -4q-5 -6 -16 -10t-14 -6q-5 0 -7 2l-20 10q-3 1 -11 2t-12 2q-27 8 -41 17l-20 10l-4 6q-9 16 10 31q9 9 6 18q0 4 -2 6q-4 9 4 17q9 5 17 20l57 80q22 33 66 68l20 18q6 0 8 2 l10 6q10 7 25 15q10 2 16 12q6 6 9 6q48 23 75 31q30 10 58 10h4q48 5 123 -10q22 -9 28 -10l17 -7q10 -3 16 0q11 3 21 -2q26 -16 61 -47q37 -41 57 -69q10 -13 29 -56q13 -34 16 -84q2 -16 3.5 -41.5t1.5 -31.5q0 -39 -5 -68q-3 -38 -16 -80l-18 -41q-16 -29 -35 -51 q-18 -26 -51 -59q-1 -1 -3 -2.5t-3.5 -3t-2.5 -3.5l-30 -26l-2 -2q-8 -5 -24.5 -15.5t-24.5 -15.5q-10 -6 -35 -16q-11 -3 -17 -9q-30 -19 -49 -26q-1 0 -2 -1t-2 -1q-11 -6 -14 -19l-11 -45q-4 -16 -4 -28q0 -9 -4 -21q-2 -8 -10 -24q-3 -11 -8 -45q0 -27 -6 -39 q-2 -4 -2 -15v-12q0 -14 -9 -16q-6 -3 -6 -13q0 -2 -2 -2q-1 -9 -3 -10.5t-11 -3.5q-11 0 -27 -8q-4 -4 -12 -4zM436 41l-37 8q-8 0 -12 8l-2 2q-6 13 -4 27q4 38 8 53l17 82q-3 6 4 8l4 7q2 2 10 2q2 0 2 -2q6 0 10 2q4 0 4 2q3 2 21 2q9 0 41 -9q17 -3 24 -8q13 -3 15 -8 q8 -12 14 -18q1 -2 3.5 -5.5t4 -5.5t2.5 -4q2 -5 8.5 -19t8.5 -22v-6q-1 -5 -1 -16t-1 -17q-7 -15 -17 -22l-8 -6q-4 0 -8 -2q-11 -11 -21 -13q-2 -2 -14 -6h-4q0 -6 -4 -6q-2 -4 -8 -4q-20 -4 -56 -4h-4z" />
<glyph unicode="@" horiz-adv-x="1433" d="M645 -147q-5 0 -15 1t-14 1l-102 20q-2 1 -25 8q-3 1 -16.5 8.5t-21.5 8.5q-7 2 -18 9t-15 9q-14 7 -66 39q-3 2 -11 6t-11 6l-62 35q-1 1 -4 3t-4 3q-28 24 -43 39q-9 9 -22 31q-26 38 -54 92q-4 7 -11 22.5t-11 22.5q-1 3 -6.5 13t-6.5 16q-16 53 -18 65q-8 46 -8 66 q-1 13 -4 36t-4 36q-6 51 -9 100v41q5 55 7 69l4 48q3 25 12 49l25 71q36 86 63 125q27 45 53 78q26 31 33 37l8 12q6 10 21 25l8 8q35 38 90 76q7 6 47 31l35 20q40 27 92 27q4 4 8 0q13 0 37 4q31 7 62 10h24h23q18 3 39 0h22q13 0 45 4q9 0 33 -4q26 -5 66 -8 q56 -7 90 -19l16 -4q34 -7 74 -35q27 -18 49 -40q20 -24 39 -37q12 -9 41 -43q30 -33 49 -70q20 -35 29 -80l14 -74q4 -16 4 -24q0 -53 -4 -68v-16q4 -22 -4 -60q-10 -38 -10 -67q0 -6 -2 -8q-13 -39 -21 -52l-6 -18l-8 -33l-13 -22q-18 -26 -30 -62q-9 -27 -29 -47 q-18 -18 -29 -37l-14 -24q-11 -22 -20 -31q-7 -3 -9 -8q-2 -2 -8.5 -11t-11.5 -12q-14 -10 -21 -20q-13 -17 -30 -25q-2 -3 -11 -8q-8 -13 -30 -27q-19 -16 -41 -22q-12 -6 -39 -10q-2 -2 -8 -2q-14 -4 -39 0q-29 7 -47 14q-31 16 -54 45q-13 16 -24 41l-8 14q-6 21 -15 60 q-4 19 -8 61q-2 2 -6 2q-5 -3 -8 -8q-5 -5 -8 -14q-4 -9 -11 -13q-4 -4 -6 -8q-13 -18 -39 -31l-24 -10q-10 -4 -37 -4h-10q-26 0 -72 12q-32 6 -61 25q-29 12 -54 45q-13 17 -28 51l-7 15q-21 41 -24 86q-2 10 -2 32q-2 50 8 99q5 30 18 67q14 47 52 109l18 28q17 25 31 37 q50 45 65 54l9 6q11 11 30 14q24 3 39 10q8 4 25.5 11.5t25.5 11.5l27 12q12 6 23 6q4 0 12 -1t12 -1q8 0 12 -4q4 -5 29 -20q4 -1 23 -15q30 -17 41 -28q17 -12 28 -17q18 -9 29 -28q14 -24 16 -35q7 -22 -4 -39q-5 -5 -8 -2q-8 4 -12 10q-3 2 -8.5 7t-8.5 7q-9 6 -12 17 q-1 1 -2 3t-1.5 3.5t-2 3t-3 2.5t-3.5 2.5t-4 1.5l-4 4q-2 6 -15 15q-10 2 -31 2q-34 -2 -69 -21q-12 -4 -17 -12l-20 -25q-4 -5 -29 -30l-14 -17l-29 -45q-20 -28 -22 -45q-2 -6 -8 -17t-7 -12q-22 -60 -26 -77q-3 -10 -8.5 -31t-8.5 -31q-4 -16 -4 -24q0 -7 -2 -9v-10 l6 -47q6 -41 45 -68l15 -10q13 -8 28 4q2 4 11 13q18 21 90 112l20 33l25 45q15 21 18 45l13 41q13 36 20 78l2 8q4 13 -6 23l-4 14q0 10 8 10q11 0 19 -2q4 -2 16 -2q9 0 29 -8q36 -16 69 -49q8 -8 8 -21v-18q-2 -8 -2 -21v-6q0 -7 -1 -15t-2.5 -17.5t-2.5 -14.5 q-1 -6 -4 -18.5t-4 -18.5q-2 -8 -2 -22q0 -19 -4 -27l-2 -8q0 -11 -3 -33.5t-3 -34.5q-2 -6 -2 -14q0 -21 -1 -60t-1 -59q5 -34 8 -45t8 -45q3 -12 8 -22q4 -8 12 -5q26 10 29 11q13 6 43 28l10 11q12 15 25 28l29 33q4 4 4 6q24 24 59 96q15 36 35 105l20 61q14 49 19 82 l6 49q3 16 0 29l-4 49q-2 6 -2 15q0 8 -2 24.5t-2 24.5q-1 4 -2 14.5t-2 15.5q-7 57 -23 101q-10 30 -31 51l-6 12q-32 46 -71 80q-6 8 -35 27q-2 2 -10 6q-7 3 -21 8.5t-20 7.5l-21 4q-65 10 -76 13q-8 4 -32 4q-15 0 -19 -2q-31 -5 -65 -2q-17 2 -45 -2q-51 -6 -97 -27 q-29 -11 -76 -37q-3 -2 -23.5 -15t-29.5 -20l-10 -6q-5 -5 -17 -15t-18 -16q-3 -2 -8 -7t-8 -7q-36 -28 -51 -43q-7 -7 -22 -20.5t-25.5 -24.5t-18.5 -22q-38 -52 -55 -82l-21 -35q-3 -5 -9 -18.5t-11 -20.5q-2 -2 -2 -8q-5 -15 -8 -21q-2 -4 -2 -6q-1 -4 -7 -16 q-2 -3 -8 -21l-4 -28q-8 -55 -10 -80q-1 -1 -1 -3t-1 -3q-2 -7 -2 -43v-23q0 -37 4 -55q2 -14 2 -39q-3 -13 0 -25q3 -20 14 -51q4 -22 8 -29q3 -7 8.5 -21.5t8.5 -21.5q17 -40 18 -43q5 -10 23 -37l26 -43q13 -23 31 -36l6 -11q0 -2 6 -8q46 -59 78 -84q2 -3 9.5 -8.5 t9.5 -7.5q43 -30 63 -37q1 -1 2.5 -2t2.5 -2t1 -2q38 -21 86 -31q49 -8 76 -10q28 -3 57 0l50 6q34 8 55 18q45 27 59 43q1 0 6 5q33 27 56 55l26 28q4 8 11 5q6 -3 6 4l4 4q3 3 10 0q2 -4 2 -6q7 -13 2 -25q-1 -3 -2 -10.5t-2 -11.5q0 -26 -14 -43q-3 -2 -7.5 -9t-7.5 -10 l-8 -10q-13 -13 -16 -19q-11 -11 -23 -20q-18 -14 -28 -27q-3 -5 -12.5 -9.5t-12.5 -6.5q-5 0 -8 -6q-16 -8 -23 -8l-8 -4q-6 -4 -45 -19q-28 -14 -51 -14q-24 -6 -47 -6q-48 -4 -70 -2z" />
<glyph unicode="A" horiz-adv-x="1376" d="M109 -119q-13 13 -24.5 29.5t-17 27.5t-4.5 13v4q1 3 18 10.5t21 11.5q26 26 70 86l39 56q1 2 7 18t14.5 41t18 55t19.5 59t17.5 53t12.5 38.5t5 13.5l12 45l21 72l2 10q0 11 -43 11l-14 12q-7 0 -9 2t-5 6t-5.5 6.5t-4.5 6.5t-3 7q-12 32 -12 50q0 5 -3 13t-3 13l-7 31 q-3 11 9 23q1 1 42.5 1.5t83.5 6.5t46 20l18 45q26 75 49 123q2 4 12 28t15 38l24 67q1 3 23 41q44 90 61 144l9 26q22 64 24 68l19 39q0 6 10 16l6 8q2 2 2 8l4 66q10 25 45 18q6 0 10 2l80 -12q26 -4 68 -33l6 -6q2 -7 12 -10q35 -17 52 -43l8 -6q5 -5 16 -27 q6 -21 16 -41q15 -35 19 -47q9 -15 12 -33q0 -10 4 -18l4 -20q9 -50 15 -68l2 -23q8 -33 10 -45q2 -6 4 -18.5t2 -13.5q6 -20 6 -56q4 -34 11 -53q0 -1 1 -3t1 -3q16 -89 18 -105q5 -32 10 -43l2 -14q2 -7 5.5 -22.5t5.5 -22.5q4 -13 8 -47q0 -7 4 -19q6 -10 10 -34 q6 -36 6 -39v-2l15 -66q4 -8 4 -10q0 -13 10 -70q4 -30 8 -39q8 -18 16 -65l15 -47q0 -8 2 -10q1 -5 0.5 -16.5t1.5 -14.5q6 -8 10 -29q17 -50 25 -90q1 -8 2 -25.5t2 -25.5l4 -25q0 -8 -6 -14q-5 0 -8 -10q0 -1 -5 -6q-11 -11 -18 -13l-2 -4q5 -22 -14 -41q-3 -6 -9 -6h-10 q-1 -1 -9.5 -4t-12.5 -8q-1 -1 -15 -8l-20 -2q-2 0 -6.5 -3t-5.5 -4q-5 -7 -15 -4q-8 4 -24 0q-19 0 -25 2q-45 3 -80 41q-33 48 -43 68q-12 16 -28 53q-2 8 -11 27q-7 14 -25 91.5t-22 88.5q-15 57 -16 70l-15 57q-3 12 -7 34.5t-7 33.5l-4 30q-1 18 -7.5 50t-8.5 46 q-2 15 -11 46l-2 14l-6 6h-24q-124 -32 -156 -43q-45 -10 -61 -18l-27 -13q-8 -4 -10 -4q-16 -2 -23 -24q0 -1 -1 -4t-1 -5q2 -5 -4 -16q-11 -14 -8 -27q0 -6 -4 -10q-4 -12 -4 -20q-1 -1 -2 -4t-2 -4l-5 -17q0 -6 -4.5 -16.5t-5.5 -14.5q-12 -90 -35 -149l-53 -139 q-1 -4 -11 -35.5t-23 -70.5t-15 -46l-14 -55q-28 -38 -81.5 -46t-94.5 21zM563 748q9 1 27 2t26 2q89 5 109 4q12 0 18 2q5 0 11 4.5t10 3.5q2 4 2 6t-3.5 14t-2.5 19l-2 4l-2 14q0 3 -6 15v2q-1 7 -4.5 24t-4.5 27q-8 32 -8 53v6q-16 109 -20 170l-2 23q0 2 -2 2l-2 -2 q-1 -2 -2 -3.5t-2 -2.5t-1 -2q-7 -18 -10 -35q-17 -52 -26 -70q-4 -4 -4 -6q-19 -47 -23 -63q0 -1 -6 -19q-2 -5 -8 -17.5t-7 -17.5q1 -2 0 -5l-2 -3l-8 -16q0 -5 -6 -17q-13 -25 -16 -37l-13 -26l-4 -10q-3 -5 -14 -37q-2 -4 0 -4q0 -2 2 -2q2 -2 6 -2z" />
<glyph unicode="B" horiz-adv-x="1204" d="M508 -350q-25 -6 -57 4l-52 8q-21 2 -61 14q-38 12 -68 39q-24 21 -34 58q-4 20 -9 30q-4 13 -8 43q-6 32 8 66q11 31 41 86q34 52 84 90q2 3 7.5 8t7.5 8q0 5 6 5q7 3 10 10q0 8 12 8q10 -3 27 6q23 9 27 10h8q1 -1 2.5 -2t2.5 -2t1 -2q7 -11 20 -18q19 -12 29 -43v-4 q-4 -25 -12 -33q-5 0 -11 -6q-12 -23 -32 -37q-25 -25 -37 -49q-2 -4 -6.5 -11.5t-7.5 -14t-5 -13.5q-3 -15 0 -33q0 -10 13 -10h16q38 0 86 20q6 2 59 23q67 27 111 69q21 16 29 27q28 22 55 57q1 1 2 4.5t2 4.5q29 23 55 77l4 7q4 6 5 10l8 20q25 52 39 88q23 75 26 142 q1 10 -4 53q-4 16 -4 20q-4 23 -26 60l-9 8q-27 16 -45 20q-7 3 -14 -4q-10 -10 -18 -8q-17 -7 -39 -10l-2 -2q-5 -8 -21 -8q-8 0 -14 -6q-2 -2 -10 -2q-7 2 -25 -3l-43 -6q-7 -2 -41 -2q-16 4 -25 -2h-6q-1 2 -4 4t-4 2q-13 5 -41 33l-6 12v17q-1 3 -2 8t-2 8q-7 16 0 41 q8 12 8 19q0 2 6 2q10 4 17 10q10 16 45 47q12 8 33 24t30 23q72 58 88 74q5 5 15.5 17.5t15.5 17.5q15 17 29 49q22 39 24 41l2 2l22 49.5t25 62.5q1 2 8 23q10 29 33 117q4 14 4 41q2 7 -2 16q-3 10 -12 10h-8q-15 -7 -31 -10q-2 0 -2 -2q0 -1 -33 -20q-15 -7 -22 -17 q-4 -4 -19 -14q-18 -13 -22 -19q-23 -23 -27 -28q-9 -12 -29 -32.5t-24 -25.5q0 -6 -4 -6q-2 -2 -4.5 -5.5t-3.5 -4.5q-6 -4 -13.5 -13.5t-9.5 -11.5q-13 -18 -47 -61l-8 -12q-3 -4 -10.5 -17.5t-12.5 -19.5q-19 -27 -26 -43l-6 -6q-13 -12 -25 -50q0 -2 -4 -14v-4 q-10 -5 -10 -18q-1 -2 -2 -6.5t-2 -6.5q-13 -27 -21 -47q-12 -30 -14 -37q-6 -9 -6 -22q0 -4 -5 -19q-2 -16 -10 -43v-10q-3 -7 -7 -22.5t-7 -22.5l-4 -12t-4 -15l-13 -47q0 -1 -1.5 -10.5t-0.5 -15.5q0 -6 -2 -8q-3 -11 -5 -24t-4 -28t-3 -24q-1 -7 -2 -22.5t-2 -22.5 l-6 -64q0 -14 -4 -30q0 -7 1 -18t1 -15q0 -7 -6 -37q0 -5 -7 -8q-6 -5 -20 -23q-3 -1 -8 -12q-4 -4 -19 -14q-23 -8 -41 -19q-13 -9 -43 -20q-14 -7 -32 -7q-28 -4 -47 -4q-14 -3 -27 4q-15 8 -25 15q-9 6 -12 14q-25 29 -25 60q-3 36 0 73q5 21 9 51q0 11 4 31q2 4 0 13.5 t0 13.5q4 6 8 24q1 4 7 45t11 62q5 33 19 76q3 15 8 43t8 41q7 21 10 39q1 6 8 31t9 38l24 98q2 8 5.5 25t5.5 25q4 18 13 52.5t13 51.5l31 135q4 17 8 51q0 10 2 32t2 34v10q-2 6 -2 39q3 16 -4 33q-8 12 6 16q27 3 47 -4l31 -12q7 -1 18 -4t15 -4q44 -10 94 -49 q10 -11 12 -11q16 -8 23 -28q17 -29 20 -31q2 -2 2 -10q0 -19 4 -29v-8q0 -22 3 -37v-21v-40v-3h4q1 2 3 6.5t3 6.5q33 46 61 74q5 7 12.5 15.5t16.5 18.5t14 15q20 25 66 65q29 25 51 39q42 31 88 45q30 12 61 12q30 3 56 -8q16 -4 24 -8q30 -13 39 -25q4 -6 19 -16 q7 -7 10 -16q0 -9 8 -13q29 -16 47 -65q4 -8 6 -10q0 -1 1 -3t1 -3q6 -22 7 -25q1 -1 6 -21q1 -4 2 -12.5t2 -11.5v-12q-4 -32 -4 -45q0 -9 -2 -15q0 -4 -1 -12.5t-1 -13.5v-9q-2 -28 -19 -90l-18 -51q-16 -37 -27 -51q-5 -8 -14.5 -25.5t-14.5 -25.5q-7 -14 -14 -21 q-9 -13 -10 -18l-6 -13q-4 -10 -19 -20l-14 -14q-16 -13 -29 -33q-5 -7 -14 -10q-9 0 -12 -6q-6 -2 -15 -12t-12 -13t2 -6q4 0 8 -4q34 -20 62 -52q9 -8 45 -49q31 -52 37 -69q3 -18 12 -33q4 -15 12 -29q0 -2 1 -4.5t1 -3.5q1 -11 7.5 -30t7.5 -25q0 -1 6 -47v-60v-10 q-4 -37 -11 -61q-15 -55 -28 -86q-1 -2 -3.5 -8.5t-5 -11.5t-6.5 -9q-2 -2 -2 -6q-1 -1 -2 -4t-2 -4l-30 -60q-5 -8 -14.5 -21.5t-10.5 -15.5q-9 -13 -47 -51l-12 -10q-2 -1 -6.5 -3.5t-8 -5t-6.5 -5.5q-7 -2 -16 -15q-7 -9 -25 -20q-4 -3 -11 -11.5t-11 -11.5l-21 -8 q-2 -1 -5 -4t-5 -4q-27 -27 -51 -39q-4 -4 -6 -4q-1 -1 -31 -19q-26 -11 -45 -22q-5 -2 -29.5 -12.5t-38.5 -12.5l-22 -6q-12 -3 -27 -6q-30 -3 -51 -8z" />
<glyph unicode="C" horiz-adv-x="1163" d="M602 -215q-34 0 -72 10q-36 9 -67 21q-6 3 -17 6.5t-14 5.5q-14 4 -34.5 13t-30.5 12q-18 12 -21 16q-2 3 -5 5t-7 4l-6 3q-14 12 -39 37q-7 10 -17 8q-2 0 -6 4q-1 1 -12 17q-32 36 -74 104q-24 39 -35 74q-11 34 -22 51q-15 20 -19 60l-6 26q-11 30 -16 49q-8 19 -8 43 q0 5 -1 15.5t-1 15.5q0 2 -1 6t-1 6l-7 88q0 9 -1 27.5t-1 26.5q0 18 2 26q5 10 5 23q0 1 2 22.5t4 32.5v29q-3 10 4 24q4 8 4 25q2 8 2 22v13q7 52 39 121q3 5 11 20t13 23q6 12 20.5 33.5t20.5 33.5l27 39q4 6 10.5 17.5t10.5 17.5q16 22 18 26q0 2 2 6t2 5q4 3 7 7t6 9 t5 8q5 7 19.5 28.5t23.5 31.5q10 14 32 38.5t30 34.5l29 41q3 6 18 21q8 11 23 22l20 23q6 5 27 24.5t34.5 30t28.5 19.5l55 32q14 9 19 11q21 14 61 34q6 1 17.5 4.5t17.5 4.5q23 3 49 0q13 -2 35 -11q20 -10 35 -22q2 -1 7 -5t7 -5q13 -10 23 -23q14 -10 28 -16 q29 -18 48 -37l22 -37q6 -6 11 -13t8 -12.5t5.5 -13.5t4 -12.5t2.5 -14.5l1.5 -15t1.5 -17.5t1 -18.5t3 -14.5t3 -13.5q0 -4 1 -12t1 -11v-16q-1 -9 -2 -28.5t-2 -27.5q-4 -36 -10 -57q-2 -6 -5 -21.5t-5 -21.5q-4 -23 -23 -61q-3 -3 -15 -8t-30 -2.5t-27 20.5 q-5 10 -9.5 18.5t-6.5 11.5t-4 8.5t-2.5 6t-1.5 7.5t-1 10.5t-1 16t-2 23.5q-4 38 6 81t21.5 71t11.5 56t-21 46q-6 0 -8 2q-20 9 -49 -8q-2 0 -4 -2.5t-2 -3.5q-3 -3 -7 -10t-6 -9l-6 -8q-5 -7 -16.5 -19t-14.5 -16q-27 -24 -49 -61l-26 -39v-2q-14 -14 -33 -40.5 t-21 -29.5q-24 -34 -26 -36q-12 -15 -39 -60l-31 -59q-1 -2 -4 -6t-4 -6q-2 -7 -7.5 -18.5t-6.5 -14.5l-13 -33q-2 -2 -6.5 -11t-7.5 -14q-9 -13 -10 -18q-2 -14 -19 -53q-5 -7 -8 -17l-12 -26q-9 -17 -12 -41q-4 -26 -15 -37q-4 -8 -4 -14q0 -23 -4 -35q-2 -6 -2 -17 q-10 -33 -14 -39q-2 -4 -2 -10v-18q-2 -13 -2 -74q0 -10 -2 -14q-4 -27 2 -39q-1 -7 8 -39v-17q0 -17 8 -49l25 -110q0 -1 6 -35q0 -1 2 -8t4 -11q3 -6 7 -19t8 -22.5t9 -17.5q5 -9 15 -33q3 -12 8 -22l20 -25q1 -2 4.5 -5t4.5 -5l28 -16q3 -3 12 -9t13 -10l43 -22 q37 -22 90 -19q26 3 57 13q54 15 101 45q67 47 120 108q40 45 48 53q14 17 37 14t12 -26q-6 -15 -33 -47q-19 -30 -74 -74q-6 -6 -19.5 -16.5t-19.5 -16.5q-7 -7 -21.5 -19t-21.5 -19q-25 -20 -30 -23q-7 -4 -20.5 -13t-23.5 -14.5t-20 -9.5q-15 -9 -59 -26q-7 -1 -35 -9 t-45 -10q-50 -8 -74 -6z" />
<glyph unicode="D" horiz-adv-x="1138" d="M1100 956q1 -10 1 -27t1 -26q-2 -16 -2 -47q0 -1 -1 -3.5t-1 -4.5q0 -4 -3.5 -13t-2.5 -16q2 -6 -2 -28q-3 -36 -9 -70q0 -3 -1 -10t-1 -9q-1 -5 -3 -18t-4 -22t-7 -17v-12q-4 -4 -4 -12q0 -11 -10 -46q-9 -9 -9 -18q0 -5 -3 -14t-3 -11q-10 -13 -10 -32q-1 -2 -1.5 -9.5 t-2.5 -11.5q-1 -12 -21 -69q0 -4 -2 -4q-7 -8 -16 -41q0 -13 -10 -23q-10 -13 -17 -33q-10 -35 -30 -84q-13 -26 -15 -32q-37 -73 -57 -107l-20 -37q-30 -47 -48 -67l-47 -76l-4 -4q-9 -6 -22.5 -22.5t-20.5 -22.5q0 -4 -2.5 -6.5t-7 -5.5t-6.5 -5l-39 -39q-3 -2 -10.5 -8 t-12.5 -8q-7 -3 -16 -9.5t-12 -8.5l-70 -54q-13 -11 -47 -22q-16 -7 -25 -13q-17 -11 -36 -16q-7 -4 -13 2q-3 6 -10 6h-6q-5 -2 -17.5 -0.5t-17 2.5t-17.5 4.5t-18 4.5q-20 9 -33 28l-10 23q-3 3 -7 9.5t-7 8.5q-4 4 -4 6l-17 -26q-4 -6 -6 -6q-9 2 -20 -3q-9 -9 -23 -16 q-8 -4 -10 -4q-9 -3 -22.5 -9t-22.5 -9h-4q-12 -2 -33 -2q-26 4 -31 18q-23 17 -34 49q-5 27 -9 59q-2 29 2 80q0 39 5 68q4 4 4 12q-3 5 -0.5 26.5t2.5 24.5l24 240q0 26 6 53q0 2 9.5 117.5t11.5 124.5q3 33 12 72q2 15 10.5 51t10.5 57q5 42 16 111l16 88q17 84 29 115 l10 229q4 22 -2 39q-1 4 -1.5 8.5t8 9.5t24.5 10q-4 0 2 2q5 2 18 5q4 -1 10 -1t13.5 0.5t11.5 0.5q-21 -1 -20 -4q0 -2 10 0h66q13 -3 22 -17q1 -1 10 -6q20 -10 23 -18l6 -7q10 -6 23 -32q0 -2 1 -5.5t1 -5.5q9 -56 6 -75q-4 -29 -2 -41q0 -29 -8 -95v-12q2 4 10 12 q9 17 21.5 36t29.5 42t25 35l57 64l57 57q42 52 125 98q18 4 27 8l43 11q32 8 71 0q27 0 48 -15q49 -25 77 -69l27 -45q14 -18 25 -52q3 -11 12 -43.5t12 -50.5q3 -7 6 -20t6 -19q5 -5 2 -12v-27q2 -6 7 -34zM885 1036q8 64 4 150q0 24 -8 74q-7 41 -25 65q-7 17 -18 12 l-13 2q-23 -7 -34 -2h-5q-6 -2 -18 -5.5t-18 -5.5t-15 -6t-16 -9l-4 -2q-11 -6 -27 -18.5t-22 -16.5q-1 -2 -6 -5.5t-7 -6.5q-35 -35 -55 -66q-17 -17 -18 -22q-20 -20 -41 -48q-41 -52 -52 -71l-22 -41q-11 -18 -19 -29q-9 -15 -22 -53q-2 -6 -8.5 -19.5t-9.5 -21.5 q-2 -7 -17 -46.5t-20 -58.5q-28 -94 -29 -96l-6 -67q0 -29 -6 -66l-11 -78l-10 -100q-5 -64 -8 -76v-10q-10 -170 -25 -297v-16q-2 -11 -0.5 -35.5t-1.5 -34.5v-23q2 0 4 -2l21 -14q9 -9 25 -6q52 3 104 51q5 5 38 37t52 51.5t43.5 47.5t34.5 46q7 12 29 43q3 5 25.5 43.5 t31.5 59.5q11 13 14 30q3 14 11 25q3 2 6.5 8.5t5.5 9.5q21 55 39 117q1 2 1 7.5t1 7.5l8 14l4 6q10 42 12 57q1 2 1 6.5t1 6.5q12 20 27 67q-2 4 -6 8q-5 3 -4 4q7 8 18 41q8 27 12 58q11 33 11 55q4 10 14 51l4 17q1 11 6 35.5t6 33.5l7 58z" />
<glyph unicode="E" horiz-adv-x="1005" d="M127 -231q-30 11 -41 28q-2 1 -5 4t-5 4q0 -4 -2 -4q-4 -4 -4 2q-1 2 -5 11t-6 12q-9 9 -6 24v11q-6 7 -2 22q0 6 4 6q6 6 6 21q-1 4 -2 11.5t-2 12.5q0 5 -2 5q-4 2 -5.5 4.5t-1.5 4.5t0.5 5.5t0.5 5.5q4 22 6 25v16v10q4 10 4 31q-2 13 -3 27.5t-1.5 32.5t-1.5 28 q-3 51 2 92v4q0 4 -4 4q-4 4 -2 4q6 6 10 27q0 43 4 66v10q0 3 1.5 7t1.5 7v80q0 16 2 49t2 51q1 29 2 87.5t2 87.5l2 71l12 76v14q1 14 5 43t5 43q1 5 6.5 36t10.5 48q7 54 20 97q2 5 6.5 14.5t6.5 16.5t2 14l12 86q3 40 15 58q34 53 147 50q49 0 59 2q40 4 59 2h58 q84 0 127 2q8 0 24 -1t23 -1l35 2l170 25q9 -5 30 -8l15 -11q13 -9 47 -47q-2 -26 -13 -45.5t-27.5 -30t-30.5 -16.5t-29.5 -9.5t-16.5 -4.5l-135 -31q-11 0 -24.5 -1t-30 -2.5t-25.5 -2.5q-16 -2 -46 -7t-46 -7q-8 -2 -23 -2q-3 -1 -9 -2t-9 -2q-6 0 -10 -11l-2 -2 q-3 -10 -15 -10q-8 0 -10 -6l-2 -10q0 -2 -2 -15t-4 -20q-1 -1 -2 -6t-2 -7q-4 -12 -8 -18l-7 -84v-8l-6 -33q-2 -10 -2 -29l-24 -245q0 -9 -4 -29q-7 -16 -7 -47q5 -4 7 -4h12q10 2 33 2q62 3 124 12q10 1 43.5 4.5t51.5 3.5q13 3 49 -2q4 0 22 -6q9 -3 9 -12v-10 q0 -17 -23 -33q-2 -2 -6 -4t-6 -4q-5 -7 -17 -13q-4 -1 -11 -3t-12.5 -3t-10.5 0q-14 -5 -72 -10q-10 -2 -32 -2.5t-28 -1.5q-12 -2 -36 -5t-35 -5q-1 0 -19.5 -2t-29.5 -4h-2q-11 -4 -11 -11q0 -11 -4 -35q0 -6 -3 -16t-3 -12q-4 -8 -4 -21l-4 -104q0 -25 -6 -37 q-2 -10 -2 -29t-4 -47l-2 -12q1 -8 -0.5 -23t-1.5 -18v-18q2 -8 2 -17t-1 -19.5t-1 -15.5q3 -24 0 -45q0 -17 4 -49q3 -6 10 -6h2q46 4 76 4q22 1 101 11.5t87 11.5q72 10 133 4q42 0 58 -6l38 -11q25 -10 27 -10q6 0 6 -8q-2 -6 -7 -18.5t-7 -18.5q-6 0 -2 -8q0 -7 -12 -19 q-1 -3 -17 -8q-16 -8 -41 -8q-13 0 -37 -4q-5 0 -14 -6q-17 -7 -43 -10q-4 0 -10 -3q-16 -3 -45.5 -3.5t-42.5 -2.5h-19q-3 -1 -6 -1t-10.5 -1t-16.5 -2t-28.5 -3t-42.5 -5q-8 -1 -24.5 -2t-24.5 -2q-20 -5 -58.5 -11t-42.5 -7q-10 -1 -20 -3.5t-22.5 -7t-20.5 -6.5 q-36 -6 -39 -6q-5 -2 -17 -5t-16 -5q-2 -1 -6 -1t-6 -1q-12 0 -16 2q-15 0 -27 -6q-14 -9 -17 -9t-22 7z" />
<glyph unicode="F" horiz-adv-x="972" d="M258 -236q-12 -6 -29 3q-9 9 -26 12q-12 0 -15 6q-4 0 -4 8q-5 5 -8 14q-4 8 -16 17q-15 19 -15 37l-6 18l-3 5q-4 5 -5 10q-3 6 0 12q2 5 2 26q-4 21 -2 29q0 5 -1 14t-1 13q-6 27 -6 55q0 29 -4 41v74q4 16 4 51q4 86 10 129q0 1 4 28.5t8 41.5q10 81 11 100 q12 48 18 104v11q0 6 -4 6q-12 4 -18 4q-17 4 -37 20q-1 1 -10.5 12.5t-14.5 18.5q-6 6 -6 18q-2 16 -2 52q0 8 2 12q0 4 4 4q2 0 7 -2t9 -2q7 0 13 -6q2 -4 14 -8h6q24 -3 39 -11q2 0 6.5 -2t5.5 -2q8 -4 11 6q0 2 2 5.5t2 5.5l12 57q4 9 6 19t3.5 22.5t2.5 19.5 q5 29 17 81t14 61q28 115 31 125l6 47v10l-2 6h-2q-8 -2 -58 4q-23 5 -30 13q-28 14 -33 20q-2 3 -12 -2q0 -3 -1 -4t-3 0v4v6q0 11 -13 17l-10 10q-8 10 -22 53v8q1 1 6 27q2 8 8 11.5t12 -1.5q28 -9 35 -14q2 -4 8 -4q19 0 29 4q11 1 82 10l4 2q9 1 11 6.5t-3 9.5 q-8 8 -8 13q-1 1 -0.5 4.5t2.5 3.5q2 1 7 2t7 2q4 2 14 4t15 4q6 2 14 2h17q33 0 49 -8q6 0 6 -2q19 -9 49 -2q19 5 56.5 12.5t56.5 12.5q23 9 82 18q22 3 64 11t61 11l84 11q16 -3 32 0q25 0 39 2q17 0 21 6q1 3 4 2q7 -1 24 4q18 0 23 -4q2 -2 8 -2q6 -6 14 -6 q29 -17 48 -25q4 0 4 -4q3 -4 3 -10t-1.5 -13.5t-1.5 -11.5q4 -4 -2 -4q0 -4 -5 -4q-13 -13 -16 -29q0 -7 -10 -14q-2 -1 -22.5 -11t-32.5 -14q-16 -4 -25 -4q-6 -1 -18.5 -2t-18.5 -2l-74 2h-6q-3 10 -12 4q-6 -6 -14 -6q-9 -1 -25 -6t-20 -6q-2 0 -5.5 -1t-5.5 -1 q-25 -6 -51 -16q-2 -1 -7 -7t-7 -6q-47 -12 -68 -14q-6 0 -8 -2q-3 -1 -17 -5.5t-20 -6.5q-6 -3 -18 -7q-6 -9 -6 -14l6 -53q0 -3 1 -9.5t1 -9.5q3 -28 -8 -47q-9 -9 -9 -22q-4 -24 -4 -35q-15 -98 -20 -113q-2 -8 -8 -23.5t-9 -23.5l-14 -26q-4 -8 -7 -17t-6 -20t-5 -17v-4 l4 -8q8 0 20 6q5 0 21 4q14 3 44.5 7.5t45.5 7.5q17 0 41 4q30 4 39 8q13 2 67 2q4 -2 19 -2q10 0 12 4q7 4 10 2q26 -10 43 -22q2 -1 5 -6l3 -5q0 -4 5 -4q8 -11 8 -24v-6q6 -11 -6 -23q-7 -7 -20.5 -16l-16.5 -11q-1 -1 -33 -20q-8 -3 -16 -8l-7 -4l-186 -19h-10 q-4 -2 -16.5 -4.5t-20.5 -5.5q-3 -1 -19.5 -4.5t-25.5 -7.5q-8 -2 -26.5 -8.5t-26.5 -8.5q-7 -3 -9 -8q-2 -7 -7 -21.5t-7 -21.5q0 -6 -2 -18t-2 -19q0 -10 -2 -14l-14 -53q-8 -32 -4 -50q4 -4 0 -8q-5 -8 -5 -22q0 -3 -2.5 -16t-1.5 -21q0 -6 -4 -6q-10 -15 -10 -33v-6 q0 -13 -4 -29q-9 -27 -6 -65q2 -26 -2 -78q0 -17 -4 -33q0 -6 2 -8q3 -19 0 -39q0 -6 2 -8q2 -10 2 -29q0 -24 12 -74q0 -8 2 -10q0 -22 -4 -27q-4 -16 -4 -20q-8 -15 0 -23q4 -37 2 -53q0 -6 -2 -10q-2 -2 -8.5 -10.5t-10 -12t-11 -8.5t-15.5 -6l-23 -10q-12 -5 -34 -8 q-9 -6 -21 -9z" />
<glyph unicode="G" horiz-adv-x="1103" d="M893 1077q-8 0 -10 3t-2 10q1 3 -2 10q-5 10 -5 14q1 1 2.5 4t2.5 4q8 11 10 21q14 33 26 51q21 34 27 53q4 8 4 17q4 40 4 59q0 23 -2 33q-3 24 -24 45q-28 28 -58 31q-23 3 -49 0q-12 0 -26 -7q-18 -3 -31 -16q-3 -3 -10 -9.5t-12 -12t-9 -9.5q-4 -6 -11.5 -15.5 t-8.5 -10.5q-2 -4 -9 -11q-1 -1 -43 -49q-12 -8 -24 -28q-4 -7 -13.5 -20.5t-13.5 -20.5q-13 -17 -39 -60q-3 -8 -18 -30q-2 -3 -5 -10.5t-5 -10.5q-13 -31 -19 -41q-5 -9 -10.5 -28.5t-7.5 -24.5q-5 -16 -6 -17q-4 -4 -4 -10q-3 -15 -17 -37q-4 -12 -4 -20q-3 -29 -18 -53 q-8 -10 -15 -25q-6 -9 -6 -22l4 4l2.5 2.5t2.5 2t3 -0.5q5 -3 0 -8q-8 -30 -16 -41q-15 -29 -18 -41l-7 -41q0 -1 -2 -13t-4 -18q-4 -4 -4 -12q-7 -37 -4 -60v-6q-3 -5 -3.5 -18t-2.5 -17t-2 -16q5 -19 2 -43q0 -8 1 -23t1 -22q0 -33 2 -47q0 -11 -2 -17q-2 -16 -2 -49 q3 -5 0 -10q0 -2 4 -14q4 -6 4 -21q0 -8 2 -12q0 -4 1 -11.5t1 -11.5q-3 -11 0 -20q3 -6 4 -13.5t1 -16t1 -13.5v-8q16 -47 31 -68q8 -16 12 -22l5 -7q2 -2 5.5 -6t5.5 -6t5 -4.5t6.5 -3.5t7.5 -2q27 -10 47 0q29 12 58 31q30 21 67 53q14 16 33 43q4 7 2 10q-2 7 2 19 q0 6 2 17t2 17l2 2v16q1 16 6 23q3 23 9 43l6 41q4 15 8 49q2 4 2 15q-2 11 2 28q4 15 8 41q1 4 4 19.5t4 23.5q1 2 2 6t2 7.5t3 7.5q2 7 -9 10l-14 6q-23 5 -51 19q-16 7 -25 18l-12 14q-4 8 2 11q4 4 6 4q19 8 31 10q62 8 96 8q20 -2 60 -2q4 0 8 4q9 7 16 0l2 -2 q3 0 21 -6h4q5 4 24 4q17 -6 35 0q14 2 39 2q6 0 14 -4t11 -10q0 -4 4 -8q2 -2 2 -6q-2 -6 -2 -19v-8q-4 -26 -8 -37q0 -2 -3 -8l-4 -8q-12 -16 -12 -33l-6 -12q-6 -12 -6 -23q-2 -8 -5 -25t-5 -26l-7 -35q-1 -6 -2 -19t-2 -20q0 -25 -2 -39v-18v-17q-1 -6 -1 -13.5t0.5 -16 t0.5 -13.5q-2 -23 -2 -65v-6q-4 -31 -4 -92q1 -11 2 -34.5t2 -35.5v-14q1 -5 2 -16t2 -17q0 -17 4 -41l13 -76l6 -27q4 -12 4 -18q-3 -7 4 -14q8 -4 4 -11q-2 -7 2 -16q0 -18 -4 -22v-2q-3 -6 2 -11l6 -6v-4l-6 -8q-13 -10 -24 -12q-1 0 -4 -1t-5 -1q-11 -4 -18 -11 q-3 -10 -14 -10l-4 -2q-16 -10 -37 -14q-24 -5 -80 8l-6 6q-6 3 -9 6q-19 10 -45 39q-12 12 -16 18q-3 7 -8 9q-6 6 -6 16q-3 6 -9 12l-14 19q-10 10 -10 24q-1 1 -1 3t-1 3q-5 1 -4.5 13t0.5 14q2 4 4 4l4 -2l6 -16h2h2v6v10q-5 15 -10 51q0 19 -6 25v4q-1 4 -1 9.5 t0.5 11.5t0.5 8q0 6 -2 8q-4 12 -4 37v6q-3 10 -13 4l-2 -2q-15 -13 -43.5 -34.5t-34.5 -26.5q-24 -24 -63 -41q-24 -12 -49 -15q-47 -6 -80 -4q-3 1 -16 2.5t-21 3.5q-18 3 -33 15l-20 14q-21 12 -27 25q-4 3 -8 7t-8 8.5t-6 6.5l-23 23l-4 6q-2 4 -6 8q-2 3 -9 9.5 t-9 10.5l-15 27q-1 0 -2 1t-2 1q-4 2 -4 6q-15 30 -18 35q-5 0 -5 4q-2 6 -10 19h-6q-6 3 -6 10q3 16 -4 33q0 1 -2.5 1t-3.5 -1q-8 8 -11 24q-2 8 -7 26t-7 29q-1 3 -2 10.5t-2 10.5v4q-6 10 -9 29.5t-5 25.5q-2 12 4 25q7 10 4 20q-2 4 -2 13v2l-2 -2v-6q0 -3 -4 -11h-2 h-4q-5 67 -5 80t2 19q5 38 3 47q0 41 4 61v41q3 77 20 143l19 68q0 4 4 12q3 6 7 16t5 13l12 37q0 4 4 8l21 35q12 8 16 8q4 4 2 6q0 2 -4 2q4 9 8 10q8 3 15 17l8 16q6 12 6 21q0 13 10 18l4 4q0 4 4 8q6 3 9 11q0 6 8 18q4 8 10 14l8 7q-4 11 2 16q4 4 6 4q15 6 29 33 q13 7 16 18q25 42 43 58q14 16 37 47q4 6 12.5 16t10.5 12l67 58q1 1 10 9.5t15 10.5q4 5 8.5 10t10 9.5t8.5 7.5t11 8t11 8l17 19q11 11 14 12q0 -4 4 -6q3 -6 10 -2q9 0 15 6q8 8 18 6q12 0 16 4q9 6 21 6q50 13 67 13h5q9 4 18.5 5t24.5 0t18 -1q1 0 4.5 -1t5.5 -1h15 q30 0 65 -7q43 -6 78 -30q10 -6 27 -27q3 -5 18 -35q6 -8 10 -28q8 -21 8 -50v-22q2 -29 -18 -90q-15 -35 -16 -41q-2 -8 -23 -45q-5 -10 -27 -43q-11 -15 -22 -19q-4 0 -8 -4q-5 -5 -15 -2h-8h-12zM426 827q2 -2 2 0q2 2 2 4zM383 215l-2 -2l12 -31q0 -2 2 -2v4zM137 152 q0 1 1.5 2t0.5 2q0 -1 -1 -2t-1 -2z" />
<glyph unicode="H" horiz-adv-x="1343" d="M954 -289q-11 0 -22 8q-14 14 -14 33q0 12 -7 23q-4 4 -6 8q-27 38 -31 65q0 9 -4 21q-2 8 -2 22q0 13 -2 19q-10 48 -10 196q0 11 1 23.5t2.5 27.5t2.5 23v8q0 2 6 119q0 59 -2 72q-2 2 -2 8q4 18 4 57q9 9 9 15l-3 8q-4 0 -6 -2q-6 0 -6 4v6q3 18 0 33q0 12 2 18 q4 12 4 17q4 17 -4 30q-6 6 0 15q2 4 2 16q-2 2 -2 6q-2 16 -5 17t-17 0q-12 -2 -37 -2q-13 0 -21 -2l-43 -7q-24 -4 -39 -4q-12 0 -36 -4t-68 -8q-2 -2 -10 -2q-6 -6 -6 -8v-10q-5 -68 -4 -82q0 -44 -3 -88q-1 -11 -2 -33.5t-2 -34.5q0 -22 -4 -72q0 -2 -1 -6t-1 -6 q3 -10 -2 -47q-2 -18 -7 -53t-7 -52l-6 -61v-29q0 -22 -2 -32q-2 -6 -2 -15q0 -10 -4 -30v-19q0 -9 -5 -14q-5 -3 -14 -17q-24 -20 -47 -28q-11 -3 -49 -17q-6 -2 -14 -2q-19 3 -41 -8q-14 -7 -25 -4q-8 4 -10 10q0 6 -2 10q0 5 -2 5q-15 15 -21 18q-14 14 -24 37 q-7 21 -15 57q-4 40 -4 60v32q0 21 2 31q6 73 6 146q-1 30 -1 64t0.5 76.5t0.5 65.5v62q0 8 -1 23.5t-1 23.5q0 6 -6 6q-8 0 -12 -2q-6 0 -17.5 -2t-17.5 -2q-18 -2 -47 -19l-12 -6q-3 -1 -17 -8l-22 6l-27 13q-23 7 -35 24q-21 25 -26 37l-15 25q-14 29 -12 53q0 3 -1 9 t-1 9q2 2 4 2h2q7 -4 10 2q4 4 9 0q20 -12 32 -18q6 -6 15 -6h14q39 2 119 2q18 2 57 2q10 2 10 10q4 18 2 27q0 6 1 18.5t1 18.5t1.5 17t1.5 17q0 31 4 45q1 8 2 25t2 25q3 42 8 71q0 23 -2 33v12q6 30 6 62q2 6 2 20q4 40 4 64v55v23q0 20 2 30q3 9 0 17q-6 14 -2 32 q2 18 2 58q0 17 -8 41q-4 12 -4 14q-1 3 1.5 5.5t4.5 2.5h4q11 -1 53 4q7 0 7 7q2 4 2 12q0 7 6 4q3 0 8.5 0.5t10.5 0.5t9 -1h9q15 4 22 2q4 0 11.5 -1t11.5 -1q3 1 9.5 -0.5t8.5 -1.5q6 0 10 -4t9 -4q8 1 16 -1t18.5 -7.5t14.5 -6.5q8 -3 14 -12q3 -10 10 -12 q25 -6 25 -33q0 -2 1 -6t1 -6l6 -19q4 -16 10 -22q8 -8 8 -21q0 -10 2.5 -30.5t2.5 -30.5q-3 -15 -3 -29q0 -28 -2 -33v-6q2 -7 2 -47q0 -14 5 -86q0 -5 -1 -16t-1 -17l-7 -69q0 -29 -4 -43v-8q-2 -25 -10 -80q0 -1 -1 -3t-1 -3q-1 -12 -4 -37t-4 -37q0 -8 8 -8q12 0 34 1 t34 1q2 0 6.5 1t7.5 1q19 -1 82 8l63 6q11 0 35 4q10 0 12 10q0 4 1 13.5t1 13.5q1 9 2.5 28.5t2.5 28.5q0 4 1 11.5t1 11.5q2 25 10 90q6 35 6 70v12q2 8 3 17.5t1.5 20.5t1.5 17q0 6 1 18.5t1 18.5q0 47 10 102q3 15 3 27v14q4 52 8 76q3 36 -6 66q-3 13 -15 16 q-7 3 -7 9.5t7 9.5q4 2 8 6q8 8 21 8q10 0 14 -2q7 0 19 4q13 8 30 4q46 -11 68 -22q15 -7 22 -17q5 -5 11 -8q17 -12 24 -41v-12q-2 -16 6 -41q1 -1 2.5 -4t3 -5t1.5 -4q4 -8 4 -12q1 -7 3 -23t2 -21.5t-1 -20.5v-33v-27v-12q4 -9 8 -27q4 -13 8 -39q0 -8 4 -28 q2 -12 2 -39v-8q-2 -9 -3 -19.5t-1.5 -23t-1.5 -19.5q0 -10 -2 -14q-2 -6 -2 -33q3 -13 0 -25v-16v-49q-3 -7 0 -14q3 -16 -4 -33q0 -1 -1 -3t-1 -3q0 -12 10 -15h2q13 0 43 -2.5t47 -1.5q1 1 4 1t5 -1q10 -3 57 -8l18 -6l6 -6q5 -5 2 -10q-7 -14 -8 -15q-8 -8 -6 -18 q0 -2 -4 -6q-2 0 -6 -1t-6 -1q-7 -4 -10 -9q-1 0 -5 -2t-6 -2q-35 -6 -65 -6q-21 3 -37 -2q-17 0 -25 -2q-20 0 -20 -20v-2q3 -13 -6 -46q0 -2 -1 -5t-1 -5q2 -7 0.5 -24.5t-0.5 -24.5q2 -14 2 -43q0 -4 -1 -12t-1 -12q0 -31 -2 -37l2 -15v-22l-7 -56v-2q1 -8 -0.5 -23 t-1.5 -20q0 -22 -4 -34l-6 -43q-4 -5 0 -9q0 -8 -4 -20v-21q0 -6 -4 -18q-4 -17 -2 -25q0 -6 -2 -10q-4 -24 -4 -37t-4 -37q-1 -5 -2 -21.5t-2.5 -31t-3.5 -20.5v-6v-41q0 -12 -5 -17q-9 -12 -6 -24q0 -28 -8 -47q-1 -2 -1 -6.5t-1 -6.5q0 -4 -6 -4q-8 0 -8 -6q0 -11 -6 -20 q-11 -16 -11 -17q0 -4 -6 -4q-8 5 -14 -4q0 -4 -4 -4q-4 -1 -21 -14q-2 -1 -14 -5q-6 0 -10 -4z" />
<glyph unicode="I" horiz-adv-x="684" d="M205 -193q-28 -3 -51 13q-35 21 -48 47q-4 4 -4 6v8h4q18 -8 54 -4q5 3 8 8l-4 29q-4 8 -4 37q1 9 2 26t2 25q2 12 1 33t1 33l6 61q0 48 10 84l6 57q17 170 19 183q2 25 8 76t8 77q2 36 17 199q0 3 0.5 9.5t0.5 12t-1 9.5q1 4 1 12t1 12q2 20 4 58t4 57v45l2 14 q0 2 12 92q3 36 15 74q6 21 6 43q0 10 -9 10h-8q-2 0 -6 -1t-6 -1q-27 -3 -39 2t-29 29q-2 5 -7 15.5t-7 15.5l-6 16q21 -5 51 -2q14 2 47 2q10 2 31 2q23 6 41 2q18 -3 37 0q108 9 135 8h27q30 -7 43 -28q4 -8 1 -16t-10 -11q-28 -14 -36 -14l-41 -6l-19 -6q-9 -5 -6 -11 q0 -14 6 -26q9 -30 6 -64v-20l4 -33l7 -154q5 -65 -3 -176q-2 -12 -2 -39q0 -25 -2 -37q-18 -248 -18 -254l-10 -108q-5 -33 -10 -92.5t-7 -75.5q-4 -42 -8 -59q-9 -35 -12 -68v-8q4 -35 -10 -62q0 -6 -2.5 -20.5t-1.5 -22.5q0 -13 -3 -22q-5 -12 -3 -16t12 -7q15 -5 28 -26 q5 -5 2 -15q-11 -18 -26 -18q-6 -1 -22 -4t-25 -4q-19 -5 -45 -2q-40 10 -99 -4q-15 -5 -20 -5z" />
<glyph unicode="J" horiz-adv-x="899" d="M176 -201q-6 2 -18 2t-23 11q-5 7 -14 10q-3 3 -11.5 8t-11.5 8l-4 4q-5 2 -9.5 5.5t-10 10t-8.5 9.5q-3 0 -3 6l-12 27l-12 34l-2 11q-6 28 -8 32q-2 5 -2.5 16.5t-1.5 14.5q-4 18 0 55q0 11 -2 15l-7 24q0 9 4 11q5 5 0 8q0 5 3 8l6 27q2 16 10 43v4q1 1 1 8t3 10 q1 2 2 8t2 9q8 16 12 22q3 7 12.5 22t12.5 23l2 6q3 8 10 24.5t10 24.5l27 46q1 1 13.5 18t17.5 25l6 10q5 10 18 10l27 -2q1 -1 3 -2q2 0 2.5 -0.5t0.5 -1.5q10 -7 8 -14l4 -7q6 -10 -2 -30q-3 -4 -8 -13.5t-6 -11.5q-13 -23 -16 -45q0 -2 -2 -6t-2 -6l-15 -35 q-12 -28 -12 -47l-6 -25q-1 -5 -6.5 -38t-5.5 -50q-6 -31 -7 -33v-12l2 -29q-3 -16 0 -28q0 -33 5 -45q0 -3 1 -9.5t1 -9.5q-1 -7 0.5 -19.5t1.5 -15.5q0 -10 12 -10q10 -3 16 6l6 9q3 2 15 14q1 1 7 2.5t9 3.5q34 15 55 29q5 4 19 15t22 17q14 12 39 54q24 54 35 86 q14 48 17 63l4 21q3 17 8 49.5t8 48.5l12 80l2 12l7 37v4l12 78l4 37l6 45l2 31v26v10l6 105v65q4 31 8 89l2 45l7 61l12 94q1 17 10 66l8 49q0 6 4 22l2 15v3q1 7 -6 5q-38 -11 -73 -14q-12 0 -35 -3.5t-27 -3.5q-18 -3 -37 0q-3 1 -8 1.5t-8 1.5q-17 12 -19 14q-3 6 -10 8 q-8 4 -10 8q-11 13 -14 33q2 5 -4 16q-4 30 4 45q1 3 4 8.5t4 8.5l8 10q10 10 21 2l4 -4q8 -12 10 -18q3 -9 12 -9h14q35 0 105 -4q20 -2 65 -2l21 2q6 0 6 4q3 9 10 9h11h10l65 10h19q10 0 14 -2q11 -8 27 -8q10 0 22 -4q13 -4 13 -15v-6q2 -6 8 -12q0 -1 2 -2t2 -2 q1 -6 5.5 -16t6.5 -18.5t0 -17.5l2 -8q1 -9 -4 -55q-4 -8 -4 -25v-2q-4 -12 -4 -34l-2 -29v-23l2 -2q-2 -6 -2 -13.5t1 -17t1 -14.5l-2 -14q-8 -66 -8 -96v-9q0 -8 -2 -23t-2 -22q0 -6 -2 -10v-41q-3 -12 -3 -26q-2 -8 -2 -25v-23q-5 -10 -2 -20q0 -4 1 -12.5t1 -12.5 q-2 -3 -2 -18q-2 -16 -2 -49q-4 -12 -4 -33v-10v-49q-2 -8 -4 -25t-2 -18l-6 -54l-2 -4q0 -14 -14 -61q-10 -40 -11 -47q-3 -20 -16 -68l-6 -16q0 -17 -12 -45q-8 -19 -15 -29q-8 -21 -10 -29q-2 -5 -5 -15t-5 -15q-1 -2 -6.5 -16t-6.5 -21l-2 -8q-13 -32 -32 -72l-5 -6 q0 -2 -4 -2q-13 -3 -16 -13q-4 -8 -12 -20q-2 -1 -4 -4.5t-4 -5.5q-10 -28 -27 -47q-2 -2 -4 -6.5t-4 -6.5q-7 -14 -15 -22q-3 -2 -10 -10t-8 -9l-10 -12q-7 -7 -13 -10q-8 -2 -16 -14q-17 -17 -25 -21q-11 -7 -14 -16q-3 -8 -16 -15q-16 -7 -29 -16l-31 -12 q-22 -11 -39 -11q-5 0 -13.5 -1t-12.5 -1l-27 2q-20 0 -24 2q-3 3 -9 -2q-8 -8 -12 -4z" />
<glyph unicode="K" horiz-adv-x="1179" d="M193 -178q-34 0 -50 4l-10 6l-6 4q-17 7 -25 27q-7 10 -4 20l-2 6q-5 31 6 78q10 63 11 74l10 57q2 29 10 78l17 100q2 9 5 29t5 29l18 82l19 104q3 13 12 57.5t16 69.5q2 12 23 92q6 27 20 103l19 71q5 15 13 45.5t13 45.5l13 43l18 69l10 37q27 96 31 107q2 7 5 19.5 t5 18.5q4 8 0 15q0 4 2 10.5t2 9.5q15 35 17 41q7 23 39 94l8 21q4 12 2 18q-2 5 2 13q10 10 16 12h19q27 -2 65 -21q3 -1 8 -3t8 -3.5t5 -3.5q13 -3 22 -12q8 -8 25 -8l4 -2q6 0 6 -9l-2 -12q-8 -27 -8 -57q2 -2 2 -4l-10 -58l-4 -34l-2 -11q0 -6 -3.5 -18.5t-3.5 -18.5 q0 -12 -4 -36l-6 -33q-2 -9 -5 -27.5t-5 -27.5l-4 -17q-8 -28 -8 -41q1 -2 -0.5 -6.5t-1.5 -5.5q-6 -18 -15 -68q-3 -23 -10 -53q-3 -9 -6 -24.5t-4 -20.5v-10q0 -2 2 -2h4q2 2 12 11t15 15l51 58l35 37l2 2q3 5 7 9.5t11.5 10t9.5 6.5l27 25q17 17 45 41l31 26l12 13l8 8 q6 8 21 18q2 1 10 9q2 4 5 7t7 6t6 5q1 1 6.5 5.5t6.5 6.5q2 3 34 30.5t35 33.5q0 8 8 8q15 6 21 18q0 6 6 9q35 35 51 53q65 74 84 102q14 23 17 31q7 14 2 22q-4 12 -4 17q-4 8 4 8q3 -1 14.5 -1.5t17.5 -2.5q25 -4 54 -25q5 -2 8 -8.5t4 -7.5q17 -29 14 -60t-11.5 -50 t-18.5 -31q-26 -22 -37 -37l-4 -4q-4 -3 -11 -12t-10 -11l-80 -65q-10 -8 -23.5 -20.5t-17.5 -16.5l-30 -31l-11 -8l-34 -37q-4 4 -9.5 -1.5t-13.5 -16t-12 -13.5h-1q-2 3 -37 -34l-3 -3l-88 -94q-3 -3 -30.5 -25t-29.5 -24l-47 -57q-7 -9 -14 -29t-11.5 -49t5.5 -53 q22 -52 37 -127l4 -15q5 -20 10 -65q4 -4 4 -10q6 -10 10 -35q1 -3 4 -8.5t4 -8.5q10 -20 11 -24l26 -74q7 -22 23 -59q8 -20 17.5 -46.5t13 -36t9.5 -22.5t11.5 -19.5t13.5 -13.5q7 -6 24 -14.5l19 -9.5q6 -4 27 -8q16 -3 33 8q6 4 18 16q37 32 47 56l6 18q3 2 5 2h2 q4 -15 10 -23q15 -25 12 -84q0 -19 -9.5 -40t-20.5 -36l-11 -16l-22 -30q0 -3 -4 -7q-6 -3 -15.5 -11.5t-11.5 -10.5l-37 -25q-16 -10 -25 -12q-27 -8 -55 -8h-12q-26 -3 -53 6q-34 8 -54 21q-19 11 -43 28q-42 26 -73 82q-18 35 -27 72l-31 102l-16 66q-9 26 -25 88 l-22 121q-18 60 -21 82l-4 4q-3 -6 -8 -21l-18 -94q-1 -6 -4.5 -18.5t-4.5 -18.5l-18 -111q-10 -27 -10 -43l-6 -40l-2 -11q-6 -20 -9 -43q-8 -49 -10 -76l-6 -36q2 -8 -2 -25l-4 -29q-1 -3 -1.5 -7.5t-1.5 -8.5t-3 -8l-2 -8q0 -20 -5 -31.5t-20 -30.5q-10 -13 -35 -33 l-49 -36l-6 -5q-4 -4 -47 -22q-12 -4 -14 -4z" />
<glyph unicode="L" horiz-adv-x="909" d="M899 -78q6 -4 10 -20q0 -4 -2 -8q-8 -12 -8 -21q0 -2 -2 -4t-2 -4q-3 -9 -6.5 -15.5t-5.5 -10t-5.5 -6.5t-5 -4t-5 -2.5t-5.5 -2.5q-35 -18 -88 -10q-14 2 -37 2h-14q-15 -3 -40 -7.5t-38 -7.5q-19 -2 -62 4.5t-57 4.5q-20 0 -41 -3q-2 -2 -8 -2q-7 1 -61 -4 q-12 -2 -35 -2q-4 -1 -12.5 -2t-12.5 -2q-5 -1 -17 -4t-20 -4q-4 0 -10 -1t-13 -2.5t-11 -2.5q-24 -9 -67 -9t-60 -3l-19 -7l-19 -1q-19 -1 -24 -1l-6 2q-12 9 -27 9q-17 11 -18 14q-1 1 -2.5 4.5t-3.5 5.5q-20 20 -25 37q0 7 -6 10q-12 12 -4 37q1 3 3 9.5t3 12.5t0 11 q0 19 2 29q1 11 2.5 17.5t2.5 12.5t5 27t9 53v15q2 2 2 10q4 10 10 41q5 37 8 49q2 4 2 14q8 33 15 51l12 60q15 69 18 78l4 22q0 15 9 27v12q11 47 24 145q1 6 5 24.5t5 27.5q0 4 2.5 10.5t2.5 9.5q8 53 24 115q10 61 59 223l13 49q6 40 18 76v6q11 45 15 66l6 26q4 4 2 6 q5 34 22 72l13 39q1 6 4 16.5t4 16.5l-4 16q-5 5 0 10q13 13 30 13q13 0 19 2q5 -1 15 -2t16 -2q7 -1 30 -13q12 -2 29 -8q7 -7 29 -16q13 -6 16 -19q12 -9 16 -26q0 -6 1 -12t1 -7q7 -21 7 -37q3 -3 -3 -16q-4 -8 -4 -27l-6 -36q-7 -36 -10 -68q-1 -2 -1 -7t-1 -7 q-4 -30 -8 -86l-2 -15q-1 -5 -2 -15t-2 -15v-9q0 -2 -1 -5.5t-1 -4.5t-1 -2t-1 -2v-6q-1 -9 -9 -49q-12 -55 -18 -115q-2 -5 -5.5 -20.5t-6.5 -24.5q-2 -4 -2 -14l-13 -56q-1 -8 -3 -18t-5 -22t-4 -19q-2 -14 -10 -51l-13 -80q0 -11 -8 -35q-8 -13 -8 -26q-1 -4 -7.5 -22.5 t-8.5 -29.5q-1 -1 -4 -10q0 -6 -7 -31q-1 -3 -2 -9t-2 -9l-6 -33q-5 -12 -14 -43q-11 -31 -14 -61l-7 -31q-2 -4 -2 -12q0 -5 -3 -20t-3 -25q1 -1 -1 -5l-1 -4q-2 -14 -3.5 -25t-2 -17t-1.5 -10.5t-1 -6t-0.5 -2.5t-0.5 -1.5t-0.5 -2t-0.5 -4.5q0 -4 -1 -14t-1 -15 q-4 -12 -4 -31q0 -3 2.5 -5t5.5 -1h20q62 7 103 15q42 5 106 8q36 2 74 6q113 12 168 4q29 -4 84 -16q10 -2 25.5 -10.5t21.5 -10.5zM498 965q0 -2 -1 -6.5t-1 -6.5v4l3 13q0 -1 -1 -4zM496 948q0 -2 -2 -2q2 2 2 6v-4zM492 936q0 1 1 4.5t1 5.5q0 -3 -1 -9t-1 -9v8z" />
<glyph unicode="M" horiz-adv-x="1413" d="M1145 -119l-10 4q-34 10 -56 35q-8 7 -30 33q-2 3 -11 8q-35 28 -61 72l-19 28q-8 16 -6 27l-2 4q-4 11 -10 34t-10 34q-1 4 -2 10.5t-2 9.5q0 7 -1 20.5t-1 20.5q0 6 -1 19.5t-1 19.5v6q2 12 2 37v14q0 1 -1 4t-1 5q4 19 0 63q0 69 6 139q3 13 7 38.5t7 37.5 q12 69 14 107q2 28 10.5 77.5t10.5 65.5l4 20l6 52l8 45q6 49 15 102q2 16 10 43l8 31q-5 -5 -8 -14l-21 -39q-5 -10 -13 -30.5t-13 -29.5l-19 -41q-2 -4 -7 -13t-7 -13q-12 -35 -12 -37q-26 -59 -29 -78l-12 -27q-3 -4 -8 -20q-5 -18 -9 -27q-10 -20 -16 -41 q-10 -23 -10 -41l-4 -8q-6 -14 -9 -31q0 -4 -2 -8l-22 -82q-3 -9 -8 -27.5t-8 -27.5q0 -3 -1.5 -9t-1.5 -9q1 -8 -4 -48q-7 -17 -4 -34q2 -11 -2 -31q-4 -16 -4 -23q0 -14 -8 -22q-6 -6 -6 -10q3 -15 -10 -25l-21 -18l-6 -4q-6 -1 -15 -4.5t-12 -4.5q-46 -10 -86 4l-12 2 q-35 11 -57 48q-26 48 -37 94q-10 38 -10 74q0 12 -1 37t-1 38v21v43q0 17 1 48t1 48q-3 29 4 64q10 55 10 98l6 53q0 15 -2 21v12q0 4 4 4l3 -1q3 -2 3 1l2 10l6 51l5 33v4l-5 -2q-4 -10 -16 -26l-10 -25q-22 -42 -37 -86q-2 -7 -7 -20.5t-7 -20.5l-9 -18l-18 -64l-4 -20 q-13 -33 -16 -64q-2 -16 -11 -63q-12 -59 -14 -86l-6 -37q-6 -23 -6 -70q-2 -6 -2 -18l-2 -17v-24l-5 -51v-21v-35q0 -6 -2 -8q-3 -8 -4 -17.5t-1 -20.5t-1 -17q-3 -10 0 -17l8 -73l7 -31q2 -6 2 -19l4 -26l2 -8q0 -2 2.5 -12.5t-0.5 -12.5q-2 -4 -4 -12t-4 -12 q-6 -6 -9 -15q-11 -22 -20 -31q-4 -2 -8 -10q-4 -4 -19 -14q-34 -18 -84 -25q-37 -3 -67 21q-19 11 -35 33l-21 32q-5 7 -14 29q-8 32 -16 92l-4 35q0 19 -2 27l-4 51v33l-3 8q-3 29 0 57l3 60q0 40 8 73v23q-2 16 2 45q8 36 8 55q1 24 7 68t7 59q4 44 8 62q5 25 5 30 q0 6 2 8q4 10 4 35q2 10 5 32t5 32q2 12 5 35t5 34l8 64q6 34 5 39v8l10 53q8 54 8 80q-2 9 2 25q0 8 8 8q22 -4 29 -8q8 -4 12 -4h10q31 0 62 -17q35 -18 59 -45l10 -10q4 -3 6.5 -6.5t5.5 -8.5t5 -8q12 -29 14 -41v-4q3 -8 10 -8q4 0 6.5 -3.5t0.5 -6.5q0 -6 -5 -6 q-9 -3 -6 -13q0 -6 6 -12q7 -4 3 -12q0 -3 -2.5 -8.5t-2.5 -8.5v-18q0 -12 -3 -34.5t-3 -33.5l2 -4h2l4 7l31 104q11 42 33 80q24 40 39 55l33 43q6 9 6 19v6q0 7 6 10q11 4 14 10q15 10 39 10h19l36 7q5 0 25 -5q8 -2 22.5 -9t22.5 -9l6 -6l35 -39q9 -6 12 -16q0 -3 4 -7 q12 -20 19 -34l12 -35q7 -14 8 -41t-4 -37q-4 -20 -4 -29q0 -8 -1 -23.5t-1 -23.5v-4q-1 -6 -1 -19.5t-1 -19.5v-10v-47q-1 -9 -2 -26.5t-2 -26.5l-6 -29q-1 -3 -2 -8t-2 -8h4q3 7 10.5 25.5t11.5 27.5q18 46 39 90q8 19 54 102l57 111q8 12 8 22q10 29 45 74l10 10l13 13 q11 11 22 14q3 1 9.5 4t9.5 4q8 5 22 2l41 -14q3 -1 9.5 -4t9.5 -4q4 -2 8 -10l6 -11q7 -6 13 -14t13.5 -20.5t10.5 -16.5l6 -8q9 -37 8 -47q0 -6 2 -8q6 -20 10 -66l2 -8q-4 -93 -12 -137l-8 -68l-6 -43q-10 -40 -13 -70q0 -10 -3.5 -28.5t-4.5 -22.5q-1 -8 -4 -24.5 t-4 -24.5q0 -22 -6 -43q-2 -12 -5 -38t-5 -38q-1 -14 -2 -41t-2 -41q0 -50 -4 -75v-19l-5 -76v-45q0 -7 5 -57v-35q4 -38 8 -57q1 -12 10 -35t10 -27l4 -6q1 -3 6.5 -10t6.5 -8l2 -8q17 -21 30 -17h19l12 2q8 0 8 -12v-2q-16 -32 -39 -55l-18 -13q-43 -21 -88 -6z" />
<glyph unicode="N" horiz-adv-x="1284" d="M182 -119q-35 0 -51 4q-12 2 -43 15q-4 0 -4 2q-4 5 -8.5 8.5t-13 7t-11.5 4.5q-11 4 -14 10q-7 2 0 7l2 4q-1 1 -2 4t-2 4q-14 27 -17 69q-1 9 5 62q0 25 4 65q0 15 2 19q6 37 14 104q6 51 18 101q0 6 3.5 18t3.5 14l18 91q0 4 6 34q2 13 14 71.5t17 88.5q6 27 14 88 q2 10 2 27q4 13 2 20q0 5 1 14.5t1 14.5l19 98q2 3 10 19q2 2 2 8q-2 5 2 16q17 88 25 117q1 5 4 14.5t4 14.5t2 14.5t2 13.5q1 5 2 14t2 13q1 5 2 16.5t2 16.5q3 23 -12 33q-3 3 0 8q33 22 57 22l58 -6q2 -1 10 -3t10 -3q45 -25 72 -37q3 -2 8.5 -6.5t7.5 -5.5l10 -10 q14 -9 19 -19q14 -23 16 -37q-2 -5 4 -8l6 -18q4 -42 2 -70l-18 -123q-17 -82 -18 -90l-11 -47v-4q2 -2 2 -6q1 1 3 2t2 2q2 2 2 4q17 33 30 65q36 79 47 99q10 20 39 71l31 52q51 93 90 145q27 31 55 70q2 2 5 5.5t4 4.5q23 33 53 57l37 35q4 4 10 4q8 0 10 4q13 0 21 -4 q4 -2 18 -2h12q36 -9 74 -27q8 -4 10 -8q44 -30 60 -49q3 -4 9 -12.5t9 -11.5q12 -16 15 -19q7 -5 10 -20q0 -3 2 -10t2 -11q10 -17 10 -45q1 -4 2 -13t2 -14q-1 -4 -1.5 -17t-2.5 -21q-6 -28 -8 -31v-8q-6 -16 -10 -47q-9 -32 -21 -80q-4 -24 -4 -31q-2 -7 -3 -14.5 t-1.5 -15.5t-1.5 -13q-8 -28 -8 -43q-2 -14 -2 -119t-2 -119q-2 -8 -2 -26q-1 -7 -4 -40.5t-7 -51.5q1 -12 -2 -38t-2 -40v-37l1 -7q1 -8 5 -12q4 -2 7.5 -60.5t3.5 -59.5q4 -4 10 -27q2 -11 9 -29.5t9 -25.5q5 -14 13 -25q6 -6 16 -6q13 0 18 8q1 2 4.5 5t4.5 5q3 13 14 21 q1 1 3 1.5t3.5 -0.5t1.5 -3q8 -5 8 -19q-5 -26 -20 -63l-8 -14q-3 -12 -11 -23q-9 -6 -12 -18q-10 -13 -18 -17l-14 -9q-15 -9 -25 -11q-4 0 -8 -4q-32 -22 -70 -19h-18q-27 -3 -50 10q-14 7 -22 9q-30 3 -57 22q-38 23 -56 58q-8 12 -8 16q-15 31 -22 78q-6 24 -19 90 q0 7 -1 21.5t-1 21.5q-5 42 -6 45q0 18 -1 55t-1 56l6 75q2 12 4 37t4 37q36 374 45 410q16 52 17 59q6 12 6 29l6 28q22 75 27 109q4 32 4 47q-5 16 -21 6l-26 -18q-5 -5 -9 -13q-15 -18 -39 -53l-18 -24q-1 -2 -8.5 -12.5t-9.5 -16.5q-9 -20 -25 -43q-15 -18 -25 -45 q-2 -3 -6.5 -10.5t-7.5 -10.5q-10 -16 -16 -32t-27 -41q-1 -4 -4.5 -9t-3.5 -6q-14 -21 -23 -39q-17 -25 -30 -55q-3 -8 -10 -21.5t-9 -19.5q-8 -15 -21 -40.5t-16 -31.5q-6 -12 -14 -36q-17 -44 -18 -47q-2 -4 -25 -62q-1 -3 -2 -9t-2 -9q-5 -10 -12.5 -33.5t-12.5 -34.5 q-16 -52 -20 -63q0 -2 -1 -5.5t-1 -5.5q0 -16 -15 -73q-12 -60 -16 -86q0 -2 -1 -6t-1 -7l-12 -47v-24q-2 -8 -2 -31q-6 -17 -9 -37q-4 -6 -4 -18q-6 -40 -8 -48q-8 -28 -8 -36v-4q-3 -5 -7 -18t-7 -19q-1 -3 -4.5 -12t-4.5 -15q-21 -42 -38 -57l-11 -6q-30 -13 -45 -15z " />
<glyph unicode="O" horiz-adv-x="1167" d="M485 -229q-12 -2 -36 2q-8 2 -29 2q-27 -5 -55 8q-28 8 -54 27q-18 11 -63 47q-2 2 -14.5 13.5t-18.5 18.5l-12 21q-1 2 -4.5 6.5t-5.5 5.5q-3 2 -3 4q-2 8 -12 17q-5 5 -2 10l-6 14q-5 10 -25 45l-6 8q-3 10 -12 13q-8 0 -4 8q-4 22 -8 31v12q-6 6 -9 4q-2 0 -4 2 q-6 8 -2 19q0 18 -6 26q-3 7 -8 33l-23 90l-8 59q-4 31 -4 91v32q0 1 2 28.5t4 41.5q3 23 11 41l6 37l8 28q3 12 10 34t10 34q1 8 11 37q2 8 10 24l12 29q1 3 4 9.5t4 9.5l13 20q8 18 22 43q2 2 6 10q2 11 19 37q24 43 51 84q3 4 8 13.5t8 13.5l76 127q7 12 22 33.5t21 33.5 q29 36 47 66l27 43q5 8 35 43l10 14l6 6q8 6 16 17q1 3 4.5 3.5t4.5 -1.5l4 -4q1 -1 3.5 -1t2.5 1q5 8 16 8q4 -2 8 2l17 14q8 12 4 21q0 6 4 6l14 2q17 0 23 2q4 2 12 -2q35 -11 70 -39l26 -20q33 -26 33 -70l2 -21q-3 -3 -5.5 -6.5t-5.5 -8l-5 -7.5q-2 -2 -14 -6 q-10 -3 -13 -13q-2 -4 -8 -10q-15 -11 -20 -24q-5 -8 -19 -17l-12 -10q-15 -9 -25 -22q-9 -14 -16 -17q-35 -45 -41 -57l-31 -49q-11 -22 -16 -37q-1 -1 -4.5 -10.5t-7.5 -14.5q-1 -1 -2.5 -4t-2.5 -4q-3 -13 -10 -23q-28 -46 -39 -69l-4 -10l-18 -48l-17 -32l-6 -27 q-1 -2 -2 -7t-2 -7q-3 -9 -24 -78v-6q-12 -30 -19 -74q-4 -6 -5 -13.5t-1.5 -17.5t-1.5 -14q-2 -18 -2 -55l-2 -37q-8 -50 -8 -74q6 -46 6 -47l16 -76q4 -25 10 -37q5 -10 9 -39l4 -38l6 -15l10 -28q5 -14 4 -17q0 -4 10 -24l21 -17q61 -44 80 -53q38 -19 61 -25q32 -6 60 0 q6 1 47 11q4 1 22 10l43 31q23 23 33 43q19 26 31 49q21 37 24 41q33 46 60 112q20 44 28 82l15 54q4 15 11 44.5t11 43.5q11 31 17 67q9 23 12 53l6 39q2 19 -2 56q-3 61 2 112l2 35q3 31 -2 53l-4 56l-10 41q-11 33 -11 59l-12 68q-9 27 -31 49q-3 4 -18 12h-8 q-28 -5 -39 -14q-17 -14 -25 -27l-16 -23q-21 -21 -37 -53q-4 -8 -16 -24q-15 -25 -19 -37l-8 -25q-4 -13 -14 -18q-4 -4 -8 -12q0 -7 -15 -17q-30 0 -39 14q-12 16 -12 27l-6 41q0 6 4 10q5 5 10 25l8 22q13 37 35 62q15 14 15 16l6 6l45 39q14 12 39 19l2 2q24 10 76 18 l14 2q72 -3 117 -57q21 -36 24 -45q10 -17 10 -33q2 -8 5.5 -24.5t5.5 -24.5l2 -14l8 -62q5 -14 10 -47l6 -37v-29q1 -3 0.5 -13t1.5 -15q-1 -5 -1 -15t-1 -18.5t-4 -15.5l-8 -41q-5 -32 -2 -41l-2 -10q-3 -24 2 -43q0 -29 -2 -41q-1 -12 -5 -34.5t-5 -31.5l-2 -47 q-1 -14 -11 -57l-18 -58l-16 -33q0 -5 -3 -8q-4 -6 -8 -16t-6 -14q-17 -38 -29 -54l-6 -12l-8 -18q-5 -20 -24 -43q-11 -21 -11 -23q-10 -33 -24 -61q0 -7 -6 -13q-10 -5 -13 -18q-5 -11 -10 -14l-4 -7q-1 -6 -4.5 -13t-9.5 -15t-9 -13q-20 -30 -28 -38q-5 -4 -21 -25 q-4 -4 -13 -15.5t-15 -15.5q-11 -7 -13 -12q-25 -30 -34 -39q-30 -25 -43 -33q-61 -33 -101 -47q-61 -22 -119 -22z" />
<glyph unicode="P" horiz-adv-x="1079" d="M350 -201q-27 -7 -45 2l-8 2q-16 4 -23 11q-4 4 -8 4q-12 6 -12 26v15q3 23 -8 37q-9 9 -6 22v41q0 3 0.5 10t0.5 13t-1 10q0 3 2 9t2 9q-4 8 -4 17l2 10q2 5 2 31v6q-7 10 2 16v10l2 33q-2 14 2 39l8 80l6 90l6 45q9 97 13 121l2 27q0 9 -6 12l-21 10q-4 2 -17.5 7.5 t-21.5 10.5q-14 6 -39 27q-5 4 -18.5 18.5t-22.5 20.5l-2 4q-2 5 -5.5 11t-8 12.5t-6.5 9.5l-6 12q-13 23 -7 47q0 8 7 8l36 3q6 0 21 -5q15 -7 45 -14q46 -8 68 -8q17 -2 20 0.5t6 19.5q0 2 6 62l2 39v6q-2 6 2 18v11l2 12q5 7 5 18q-1 0 -2.5 1t-2.5 1q0 1 -1 1q-2 1 -1 3 l5 13q0 2 -1.5 4.5t-1.5 3.5l3 29q4 13 8 43q0 18 4 26q2 9 5 28.5t5 29.5q4 17 8 55q6 43 15 92q0 2 1 7.5t1 8.5l2 21q0 4 -6 4q-9 0 -11 -2q-30 -20 -37 -27q-21 -21 -47 -24l-8 -2q-11 0 -31 -15l-6 -8q0 -7 -6 -4q-12 0 -18 -4h-6q-1 1 -11 7t-14 11l-18 15q-4 4 -9 10 t-11 13.5t-9 11.5q-1 1 -2 4.5t-2 5.5l-10 33q0 6 2 8l4 8q4 2 8 2l10 -2q8 -2 27 2l22 14q8 4 33 18t39 21q64 27 98 35q14 4 56 15.5t65 19.5q47 14 107 20q63 4 96 2q31 0 65 -6q22 -4 35 -8l90 -31q41 -10 82 -43l37 -26q14 -12 41 -39q14 -16 33 -43q25 -44 37 -80 q16 -36 16 -62q0 -38 -2 -45l-2 -36q-1 -14 -7 -39.5t-7 -34.5l-13 -27l-8 -18q-3 -19 -16 -35l-17 -25q-2 -2 -5 -9t-5 -9q-16 -27 -22 -31q-2 -1 -7 -6l-8 -16q-4 -4 -12 -14.5t-14 -14.5q-3 -3 -7.5 -8t-8 -8.5t-7.5 -6.5l-20 -20q-13 -13 -37 -29q-14 -9 -17 -14 l-24 -18l-6 -5q-11 -11 -23 -16q-62 -37 -74 -43q-12 -9 -30 -12q-7 0 -11 -4q-22 -13 -34 -15q-35 -14 -80 -24l-33 -8q-10 -2 -16 -17q0 -10 2 -14q-1 -3 -2 -10.5t-2 -10.5v-20v-8q-1 -1 -7 -25v-6q0 -7 -2 -20.5t-2 -20.5q-3 -23 -14 -39q-4 -12 -2 -18l-4 -35v-8 q-3 -7 -6 -21t-4 -18v-6q-1 -3 -1.5 -13.5t-2.5 -15.5q-3 -6 -3 -10l3 -19q0 -9 -3.5 -28.5t-3.5 -22.5q-4 -24 -4 -37q-1 -6 -1 -19.5t-1 -19.5l2 -4q-1 -10 -1 -30.5t-1 -30.5v-53q0 -7 -2 -9v-12q0 -10 -2 -14q-1 -2 -2.5 -4.5t-2 -3.5t-2 -3t-2 -2.5l-2 -2l-2.5 -2.5 t-3 -2t-4.5 -2.5t-5.5 -2.5q-12 -5 -23 -16q0 -6 -4 -6q-4 -5 -10 -15.5t-9 -13.5l-12 -19q-3 -6 -10 -6h-8q-15 0 -23 -2zM567 735l33 6q22 7 59 25l43 25q5 2 14.5 8t14.5 8l6 6q2 5 9.5 9.5t9.5 6.5l24 19q10 8 78 57q39 27 62 53q20 20 30 35q11 11 11 17l12 41 q0 1 6 53v20q-7 52 -25 84q-4 8 -4 13q0 12 -8 20l-27 33q-6 8 -14 14l-24 21q-14 12 -37 18q-16 2 -43 10l-31 11q-35 8 -66 6q-28 0 -55 6l-33 6h-28q-7 -1 -22.5 -2t-22.5 -2l-41 -6l-15 -6l-2 -2q-1 0 -1 -2t1 -3l27 -12q14 -11 31 -18q13 -5 26 -15q4 -4 8 -12 q1 -4 11 -14q6 -4 10 -21l4 -8q2 -10 2 -29l-2 -20q2 -14 -2 -47l-4 -17q-4 -36 -4 -51q0 -25 -2 -30v-5l-4 -65q0 -8 -4 -12v-25l-3 -22q-6 -34 -6 -58l-8 -114l2 -9q0 -3 0.5 -4t3.5 0z" />
<glyph unicode="Q" horiz-adv-x="1300" d="M1024 -287l-20 2l-39 13l-21 6h-2v4q-30 15 -74 39l-12 6q-4 2 -8 -2l-2 -2l-4 4q-30 23 -51 47l-11 10q-5 3 -10 -2l-27 -22l-14 -9q-2 -1 -10.5 -4t-11.5 -6q-2 -4 -10 -7.5t-9 -4.5q-7 -3 -10 -2q-4 0 -8 -4q-2 -4 -6 -4q-4 1 -19 -4l-33 -17q-24 -6 -28 -6h-6 q-4 0 -13.5 -1t-13.5 -1q-17 0 -27 2q-21 4 -41 12l-8 4q-19 5 -26 3q-11 0 -17 2l-18 6q-1 0 -19 6q-4 4 -16 12l-10 6q-8 8 -13 8l-41 19l-22 6q-13 3 -19 12l-4 9q-5 10 -18 20q-21 17 -27 31q-2 5 -7.5 12t-6.5 8q-16 18 -29 45q-1 3 -5 8.5t-5 8.5q-20 33 -31 61 q-4 8 -10 23.5t-10 23.5q-2 4 -5 14.5t-5 14.5q-1 3 -5 17.5t-6 21.5l-4 28q-1 3 -2 8t-2 7q-6 8 -6 26v25q-1 3 -6 66q0 18 -2 28q-3 16 -8 64q0 8 -2 12q-5 12 -5 29l-2 49q0 25 2 39v73v33q0 25 5 37q0 2 1 5.5t1 4.5q-1 9 2.5 24t3.5 21q3 7 6 22.5t6 22.5q0 1 6 35 q4 39 10 56q2 4 7 22q4 8 0 8q-5 0 -5 -4q-4 -4 -4 -6q0 4 4 16l3 2q8 -2 12 11l35 92q4 17 2 20q-4 4 2 4l4 5q6 2 6 10q-4 0 -4 4q0 8 6 8q5 0 8 6l6 12l17 37q4 11 0 17q0 6 2 8q9 9 12 25q0 4 2 4l10 10q6 8 16.5 26t12.5 21l2 4q4 12 8 16l11 13q21 27 24 32q3 8 12 17 q3 3 11 11.5t14 14t12 9.5q16 8 29 8l4 2q13 0 16 8q5 4 15 8q16 5 30 23l13 20q8 8 12 6q9 -4 23 5q4 4 8.5 6.5t10 5t9.5 4.5q2 2 8 2l2 -2v-2q-15 -5 -18 -8l2 -2q7 4 22.5 5t16.5 1q6 0 10 -2q18 -6 21 -8l12 -5q7 -5 20 -8q5 0 13 -8l8 -10q8 -12 8 -21l2 -8 q0 -8 -2 -12l-12 -14q-1 -1 -6 -11q0 -13 -4 -37v-6q4 0 6 -2q2 0 2 -4q-3 -6 -10 -8q-5 2 -9 -6l7 2l-9 -17l-18 -36q-5 -10 -8 -13l-4 -6q-4 -13 -21 -39l-6 -14q0 -7 -4 -19l-12 -32q-3 -10 -17 -43q-1 -5 -4 -14.5t-4 -14.5q0 -8 -4 -20l-10 -23q-6 -24 -6 -25 q-3 -13 -17 -61l-4 -27l-2 -8l-6 -18q-4 -43 -12 -60q-1 -2 -4 -13t-3 -17q0 -15 -8 -43q-4 -16 -4 -29v-8q0 -1 -6 -74q-4 -14 0 -39q0 -14 -2 -20q-6 -24 -6 -49q0 -15 -2 -23v-25q0 -16 -2 -24v-14q9 -21 6 -46q-3 -18 0 -36q5 -48 8 -64q5 -27 4 -35q0 -1 1 -4.5t1 -5.5 q2 -5 5 -17.5t5 -17.5l9 -37l6 -18q0 -16 8 -27q3 -6 8 -18.5t8 -18.5q2 -3 4.5 -10.5t4.5 -11.5q1 -2 5 -9.5t5 -11.5q4 -14 20 -38l6 -11q11 -23 45 -45l37 -18v-4h4q20 5 46 20l28 17l10 6v6l-2 4q-35 45 -45 55q-7 7 -16 10q-10 7 -14 -6q-3 -6 -7 -8l-18 -8 q-6 -2 -16 -2q-7 0 -9 2l-10 6q-5 0 -2 6q3 3 0 6q-4 7 0 29q7 14 10 29q0 1 1 3t1 3q10 5 13 8q5 7 12 2q6 -6 14 2q6 6 43 27q2 1 8 2t9 2l35 -2h20q10 0 14 -2q17 -7 33 -4h4q18 0 33 -6l31 -17q6 0 8 4l3 6q3 7 5 11l23 63l12 35q11 55 22 88q5 20 5 23l16 94 q1 7 2 22.5t2 22.5l4 57q10 62 17 150q8 75 10 108q4 20 4 58q-2 20 -2 59l-2 20q0 25 -2 37q-8 33 -8 72q0 25 -9 49q-2 7 -4 22.5t-2 16.5q0 16 -10 33q-4 6 -8 22q-5 31 -25 64l-10 18q-10 13 -37 33q-8 4 -14 4q-7 0 -11 -4q-6 -6 -18 -14q-6 -3 -6 -9q-6 -12 -12 -18 q-7 -3 -7 -8l-18 -35l-2 -8q-3 -9 -8 -14l-6 -13l-2 -18q-5 -23 -9 -29q-2 -2 -2 -8q-3 -9 -8 -14q-9 -9 -6 -19q0 -1 -6 -31q-4 -16 -4 -20q0 -7 -4 -23q-3 -19 -19 -32q-4 0 -4 2l-2 16l-2 2q0 -3 -2.5 -10.5t-1.5 -11.5q0 -2 -2 -4h-2l-4 2l4 24q0 13 -2 19q-4 11 -2 16 q0 4 -2 4l-2 6q0 7 -1 22.5t-1 22.5v23q0 4 1 12t1 12q2 10 5 32.5t5 33.5l2 12q2 7 5 20t5 19l4 16q9 13 9 21q0 7 6 10q4 2 7.5 10t4.5 9q13 33 37 49l10 10q8 8 12 8q11 4 15 10q2 5 10 2q7 -2 10 3q6 3 6 10q0 4 4 4l7 2q8 0 10 -2q11 -7 51 -17q24 -6 41 -20 q12 -8 18 -14q23 -21 37 -60q5 -16 10 -22q5 -8 9 -23q1 -2 4.5 -14.5t7.5 -18.5q2 -2 2 -10v-10l-3 2q-3 1 -5 0q-3 -1 2 -8l2 -4l2 -2q0 8 2 12q4 -4 4 -6q4 -16 4 -27v-24v-4q10 -12 6 -43q0 -5 4 -7q0 -1 1 -2t1 -2q0 -7 3 -19.5t4 -15.5q3 -13 0 -22v-10q-3 -9 0 -15 q4 -13 2 -20q0 -15 2 -23q3 -9 0 -18q-4 -18 -4 -57v-15q-6 -17 -2 -39l2 -30v-33q-2 -7 -2 -45q0 -25 6 -35q3 -3 0 -6q0 -2 -0.5 -6.5t-0.5 -8t1 -6.5v-8v-8q0 -3 -6 -39l-9 -39v-20q0 -21 -2 -31v-10q0 -7 -2 -11q-4 -14 -4 -43q-5 -37 -8 -45l-4 -10q-4 -24 -27 -104 l-4 -17q-3 -29 -16 -63q-4 -12 -4 -21q-5 -28 -15 -67q-1 -2 -6 -33q-5 -25 -10 -33q-4 -8 -4 -14q-4 -12 -4 -23q0 -3 3.5 -8.5t4.5 -7.5l12 -14q13 -14 39 -54q36 -43 37 -43l41 -41q43 -43 100 -22q21 6 27 24q4 20 4 33l4 31v12q-3 19 12 37q1 2 3 3t5.5 1.5t4.5 1.5 q8 0 8 -4l2 -8q4 -30 0 -47l-6 -39l-4 -8l-6 -17q-3 -6 -7 -10q-8 -10 -14 -26q-12 -24 -31 -46q-6 -8 -14 -14q-41 -32 -78 -37q-37 -4 -53 0z" />
<glyph unicode="R" horiz-adv-x="1345" d="M956 -145q-63 -2 -151 30q-15 7 -25 15q-46 32 -67 53q-8 8 -21 24.5t-18 22.5q-6 6 -6 14q-3 12 -13 25q-7 8 -20 43q-4 6 -8 18q-2 3 -3.5 9.5t-2.5 7.5q-10 20 -15 35l-4 8q-2 15 -14 30v17q-5 17 -14.5 53t-14.5 53q-6 37 -20 68q2 2 -2 2q-5 0 -5 -4q-4 8 -4 16 l-32 119q-4 13 -29 76q-5 18 -16 45l-5 2q-2 0 -2 -2v-6q0 -27 -6 -51q-1 -6 -2 -17t-2 -16q0 -11 -1 -23.5t-2.5 -27.5t-2.5 -23q-1 -5 -2 -16t-2 -17q0 -1 0.5 -3t0.5 -3.5v-3.5t-1 -4l-10 -80q-1 -6 -2 -17t-2 -16l-4 -59q0 -17 2 -23q-1 -6 -1 -16.5t-1 -15.5 q-4 -42 2 -60v-33q-2 -6 -2 -16l2 -27q2 -13 -2 -41q-4 -11 -15 -14q-4 -2 -4 -6q-4 -18 -8 -27v-10q-7 -3 -14 -18q0 -3 -9 -8l-10 -5q-11 -3 -14 -14q-7 -14 -15 -20q-9 -9 -16 -11q-5 -1 -15 -5t-14 -5l-26 -6h-23q-41 5 -55 8q-2 1 -5.5 2t-4.5 2q-14 10 -29 -2 q-2 -2 -6 -2h-31q-1 1 -4 2t-4 2q-4 4 -2 6l2 9q3 11 -10 8q-6 0 -8 4l-5 22q3 6 0 13q-3 10 -4 21.5t-1 25.5t-1 22q-2 12 2 41q0 48 6 97q5 63 7 75q2 19 8 55.5t8 53.5q1 20 4 42.5t7.5 50t6.5 42.5q2 28 10.5 80t10.5 70l39 297q0 1 1 4.5t1 5.5q-1 18 12 78q2 7 7.5 25 t7.5 28l2 6q15 63 22 100q9 53 35 135q18 50 27 99q4 16 4 26v23q0 6 6 6l8 2q12 0 25 10q7 7 18 7q16 0 31 6q4 2 16 2q28 -3 51 -13q32 -16 62 -34q6 -4 20 -27l8 -23q9 -30 7 -43q-1 -6 4 -36h4q4 2 10 8l29 35q20 24 32 34l19 19q29 31 78 55q35 19 59 29q57 22 92 22 l53 -2q19 0 43 -12l41 -16q43 -19 56 -29q20 -14 28 -29l7 -10q18 -20 28 -55l15 -41q0 -2 1.5 -9t0.5 -10q-2 -24 -10 -69t-9 -51t-4 -16t-4 -13q-4 -6 -8.5 -17t-5.5 -12q-7 -18 -17 -26q-6 -6 -6 -7l-22 -43q-22 -31 -25 -41q-1 -1 -2 -2.5t-2 -2.5t-2 -1 q-4 -2 -5.5 -4.5t-3.5 -6t-3 -5.5q-7 -17 -19 -29t-16 -20q0 -5 -10 -10l-7 -3q-15 -7 -20 -20q0 -4 -2 -6.5t-6.5 -6.5t-5.5 -5l-25 -19q-4 -2 -10 -8q-3 -7 -13.5 -12.5t-13.5 -8.5h-4q-9 3 -18 -6q-4 -4 -7 -4q-18 -10 -32 -28q-10 -13 -25 -19q-6 -2 -18 -10l-39 -23 q-20 -13 -35 -8q-18 6 -37 -10l-8 -8q-6 -4 -4 -11l10 -28q2 -4 6 -8q6 -9 13.5 -28t11.5 -26q4 -19 24 -47l23 -41q1 -2 2.5 -5.5t2.5 -6.5t1 -6l2 -8l23 -58q4 -8 6 -10l18 -76q0 -4 2 -6l31 -78q1 -4 10 -23.5t10 -31.5l2 -4q15 -24 27 -51q3 -10 14.5 -26.5t14.5 -22.5 q6 -9 26 -29q32 -35 78 -57q22 -8 49 -15h6q24 3 43 17q5 2 11.5 9t9.5 9q1 2 41 53l29 31q48 60 59 80q0 6 6 6q7 0 11 -3t3 -9q-1 -7 -4 -29t-6 -33q-7 -23 -18 -43q-2 -3 -7 -11t-7.5 -14.5t-2.5 -11.5q-10 -22 -20 -38q-5 -8 -35 -48q-12 -9 -35 -36q-1 -1 -4.5 -5.5 t-5.5 -5.5q-5 -2 -11 -9t-11 -9q-3 -3 -11.5 -7t-11.5 -7q-44 -41 -111 -41zM504 877h18q25 2 32.5 5t25.5 21q33 33 84 66q52 40 92 82q33 37 45 69q31 68 37 92l10 33q18 47 20 80l2 12q7 27 4 49v21q-4 4 -8 4l-8 -2l-41 -23l-20 -10q-21 -10 -25 -16q-8 -4 -20 -15 t-17 -14l-18 -12q-33 -22 -47 -41l-17 -14q-15 -10 -45 -35q-4 -2 -16 -19l-25 -39q-18 -24 -30 -51q0 -1 -3.5 -10.5t-3.5 -15.5q-4 -20 -4 -33v-10q-3 -8 -5.5 -21t-4.5 -18q-4 -8 -4 -15v-14q-13 -44 -18 -78l-5 -22q0 -4 5 -4q4 -2 10 -2z" />
<glyph unicode="S" horiz-adv-x="985" d="M862 346q2 -14 2 -45q0 -4 1.5 -14t1 -17t-4.5 -12q-3 -8 -8 -41l-14 -49q0 -8 -2 -12q-10 -16 -27 -70l-8 -16q-4 -7 -11 -18t-8 -13l-4 -10q-11 -11 -14 -13q-14 -20 -49 -51l-8 -8q-4 -6 -27 -29l-49 -30q-16 -7 -51 -29q-8 -6 -23 -10q-8 0 -12 -2q-13 -7 -51 -15 q-6 -2 -17 -5t-16 -5q-9 -5 -26.5 -6t-22.5 -2h-4q-10 2 -29 2.5t-25 1.5q-5 1 -13 -0.5t-11 -1.5q-19 0 -27 2q-5 0 -28.5 4t-36.5 4h-43q-9 0 -13 2q-20 5 -24 4q-4 0 -8 2l-39 13q-21 6 -37 22q-32 29 -68 82q-4 12 -4 16q0 13 -2 17q-14 79 -2 131q1 8 6.5 23.5 t5.5 17.5q12 28 49 92q30 44 89 96l10 11q10 6 47 34q2 1 10 13q33 3 57 -17q2 -4 2 -12v-2v-2q-1 -3 -1 -6t-0.5 -5t-2.5 -6q-5 -7 -32 -30q-4 -4 -24 -20t-28 -25q-27 -24 -52 -88t-25 -101l-2 -22q0 -24 45.5 -71.5t58.5 -49.5q77 -12 141.5 10t106.5 68t68 110t30.5 133 t-10 139.5t-49.5 127.5q-16 28 -164 164l-68 55q-15 15 -47 43q-38 44 -53 67q-25 37 -31 56q-15 42 -10 71l-2 5v2q-2 24 2 69l2 21q0 10 4 26l17 23v2q21 53 65 94l2 6q24 28 35 39q6 7 14 13.5t17.5 14t13.5 11.5q19 9 25 14q1 4 17.5 12.5t36.5 16.5t21 8q71 28 101 37 q57 16 123 23q46 13 159 -9q23 -4 35 -10.5t35 -23.5q24 -17 32 -51q1 -4 7 -31q7 -30 -8 -56.5t-36 -70.5t-24 -105q-53 15 -82 35t-34.5 43t-2.5 43.5t9.5 45.5t5.5 40q-3 34 -34.5 47t-94.5 -4q-2 0 -5 -1t-5 -1q-1 0 -3.5 -1t-3.5 -1q-19 -8 -64.5 -42.5t-88.5 -74.5 q-30 -29 -50.5 -103.5t-14.5 -161t48 -132.5q62 -67 158 -127q143 -92 201 -137l14 -23q29 -34 57 -88q24 -53 31 -90z" />
<glyph unicode="T" horiz-adv-x="985" d="M459 -205q-38 -3 -64 2l-8 2q-19 3 -59 23l-6 4l-31 29l-15 20q-4 12 -4 23l-10 26q0 5 -1 16.5t-1 16.5v29q-2 30 6 98l17 88l6 14q-1 10 -1 22t0.5 26t0.5 22v8q2 7 3 15.5t1.5 18.5t1.5 15q2 8 2 23l6 41v26q0 26 6 50q16 148 41 344l12 69q0 21 7 49q0 19 4 29 l20 117q0 2 2 21.5t4 29.5l7 33q8 28 6 43q1 23 2 42t3.5 33t4 22t4.5 19.5t4 14.5l2 18q0 6 -6 6h-10q-11 -3 -45 -8q-46 -5 -62 -10l-28 -6l-17 -4q-3 -1 -10.5 -2t-11.5 -2q-25 0 -54 -11q-13 -5 -28 -2q-25 5 -29 5q-13 3 -20 10q-8 4 -11 10q-4 12 -10 18q-1 1 -6 11 q0 5 -3 12.5t-3 9.5l-2 6q-1 3 0.5 9.5t-0.5 9.5q-1 1 -6 16q-1 3 -1 10t-1 11q0 18 2 22q0 8 10 8q10 -2 35 -2q6 -2 16 -2q15 0 21 -2q4 -2 16 -2h31q32 4 49 4q18 0 53.5 3t40.5 3q2 0 5 1t5 1q12 0 84 5q33 0 51 2q6 2 23 2q4 0 12.5 1t12.5 1q2 0 6 1t6 1q19 -2 63 2h6 q1 -1 33 -0.5t33 0.5q23 2 68 2q2 -2 4 0q25 0 37 4q8 -4 36 -4q12 -2 39 -2q13 0 41 -1t43 -1h13q4 0 12 1t12 1t11.5 -1t11.5 -1q8 -4 12 0q4 2 25 2q34 -4 47 -8q7 -4 10 4q2 2 2 0q5 -2 10.5 -7t7.5 -6q2 0 2 2q6 6 7 5q3 -2 18 -17q19 -23 -14 -80q-1 0 -12.5 -6.5 t-14.5 -5.5q-1 0 -23 6q-1 0 -25 2t-36 4t-45 2q-30 0 -35 2h-10q-3 0 -10 -1t-11 -1q-13 1 -38.5 2t-38.5 2h-35q-7 0 -20.5 1t-20.5 1q-28 0 -55 3q-2 0 -5.5 -1.5t-5.5 -1.5q-7 -1 -8.5 -3.5t-3.5 -10.5q0 -9 6 -12q7 -7 21 -14q12 -9 18 -21q13 -16 10 -37q-2 -6 2 -14 q3 0 7 -4q1 -2 -5.5 -37.5t-13.5 -74.5t-6 -48l-6 -18q-1 -10 -5 -32t-5 -32v-6q1 -11 1 -16t-2.5 -16.5t-3.5 -16.5l-4 -43q0 -2 -2 -12.5t-4 -16.5q-8 -24 -8 -57q0 -11 -2 -13q-8 -13 -8 -47q0 -14 -4 -34q-6 -8 -6 -25q-5 -18 -5 -41q0 -3 -1 -9t-1 -9l-12 -52 q0 -4 -3 -10.5t-3 -9.5v-21q0 -4 -4 -12l-2 -8q3 -11 -4 -25q-4 -12 -4 -18q2 -3 2 -18l-6 -48q-3 -21 -3 -45l3 -18q-3 -25 -11 -37q-6 -10 -10 -31q0 -48 -8 -71q0 -25 2 -39q0 -17 -4 -45q0 -5 -1 -15t-1 -18.5t2 -15.5q0 -1 -1 -5t-1 -6q-6 -12 0 -24q0 -6 1 -17.5 t1 -17.5v-6q-4 -17 -2 -25q-1 -5 -2 -15.5t-2 -15.5q-7 -41 -17 -67q-2 -3 -2.5 -10t-1.5 -9q0 -8 -6 -12q-13 -8 -20 -29l-5 -6q-11 -7 -14 -20q0 -2 -2 -4t-4 -2q-3 -2 -37 -19q-8 -4 -16 -4zM995 1393v2q0 2 -2 2q-1 2 -4 1.5t-4 -3.5q2 -2 10 -2z" />
<glyph unicode="U" horiz-adv-x="1284" d="M303 -225q-8 0 -24 4q-53 10 -84 35l-5 2q-25 15 -57 51q-2 2 -4.5 5.5t-3.5 4.5l-29 43q-9 12 -12 25l-2 16q-1 2 -2 5.5t-2 4.5q-5 10 -8.5 22.5t-6 27.5t-4.5 22q-9 38 -12 74q0 10 -1 31.5t-1 31.5v6q1 18 -0.5 48.5t-1.5 39.5l2 27q0 22 4 68l4 65q5 76 19 170v14 l18 144l4 31q2 14 5 42t5 42q1 5 17 84l4 36t7 45t11 35l11 23q2 6 2 35l4 14q4 28 4 41q0 6 -2 8q-1 1 -2 4q-1 1 0 4l2 4v17q1 11 -13 21t-14 34l-2 2q0 1 2 6t3.5 10t0.5 5l-6 12l-16 8q-1 0 -1 3t1 3q1 1 2 2.5t2 2.5t2 1l55 27q25 12 71 13t54 -5q2 -1 34 -1t34 -1 q11 -6 35 -14l30 -10l17 -7l41 -22q25 -13 32 -51q0 -20 -4 -52q-2 -10 -2 -32q0 -3 -1 -8.5t-1 -8.5q-1 -13 -1 -27t-1 -28q0 -36 -2 -49l-4 -12q-9 -19 -18 -74l-7 -23q-5 -21 -4 -26q0 -13 -4 -29q-2 -4 -2 -10l-4 -25q-2 -7 -4 -20.5t-4 -20.5q0 -1 -6 -49l-17 -72 q-1 -4 -2 -12t-2 -12l-8 -86l-6 -60q0 -23 -8 -59q-4 -29 -4 -82l-2 -4q0 -21 -2 -31q3 -14 -3 -28q0 -7 3 -13v-14q-7 -40 -7 -66q1 -9 5 -34.5t4 -40.5l18 -78l2 -8q0 -11 8 -27l6 -16q12 -17 23 -6l20 20q18 24 19 25q7 14 22 39t19 32l39 74q1 2 55 119q5 17 17 46 t16 42l6 26q12 58 12 62q0 10 -2 16l4 29q4 8 6 14l9 70q2 9 5 28.5t5 28.5l10 72q4 8 4 12l4 35q2 7 5 22t5 23l13 62q6 42 18 86v4q-1 9 8 41q2 6 4.5 19.5t4.5 19.5q7 49 14 84l4 30q2 9 4 27t4 26q7 16 -4 27q-4 4 -4.5 7.5t1 8.5t1.5 7q0 7 10 14q20 8 31 8q3 0 7.5 1 t6.5 1q34 6 64 0q29 -7 65 -22q21 -9 64 -35q7 -4 45 -37q14 -18 14 -35q2 -7 5 -23.5t5 -23.5q3 -18 3 -41q2 -16 2 -47q-6 -46 -7 -51q-1 -12 -5 -37t-5 -39q0 -1 -6 -55l-8 -41q-1 -7 -1.5 -19.5t-1.5 -23t-3 -19.5l-4 -24q-9 -41 -11 -58q-1 -10 -0.5 -134t-1.5 -134 l-12 -78q0 -27 -2 -41l-2 -102q0 -44 20 -80l15 -25q2 -4 6 -8h6l14 21q24 30 52 55q5 5 15 -0.5t10 -27t-23 -56.5l-19 -29q-17 -30 -22 -43q-8 -18 -21 -38q-7 -12 -20 -29q-12 -9 -15 -17q-1 -3 -12 -20q-10 -15 -31 -29q-20 -14 -43 -14q-38 -5 -96 6q-7 0 -25.5 5.5 t-45.5 22t-42 40.5l-45 90q-28 71 -24 174q1 9 -8.5 21t-10.5 18q-2 2 -4 2v-2l-2 -4q-19 -37 -22 -54l-6 -12l-13 -31q-13 -42 -22 -59q-22 -49 -31 -80q-4 -4 -8 -12l-21 -37q-14 -24 -30 -43q-2 -3 -6 -10t-5 -10q-15 -26 -28 -35q-14 -10 -19 -21l-20 -18l-39 -29 q-14 -14 -47 -18h-74z" />
<glyph unicode="V" horiz-adv-x="1314" d="M1288 1343q3 -23 -4 -38q-1 -3 -2 -10t-2 -11l4 -14q0 -13 -4 -19l-6 -24q-3 -26 -10 -58l-2 -8q3 -8 -5 -20q-7 -5 -12 -25l-14 -47l-14 -43q-6 -9 0 -18l12 -25q12 -18 18 -39q2 -10 8 -18q11 -15 11 -23q8 -19 -2 -31l-3 -6t-3.5 -6.5t-4.5 -3.5q-4 -4 -4 -6 q-4 -8 -16 -12l-8 -4q-3 -9 -15 -9q-4 0 -18 9l-16 14q-16 16 -19 20l-6 2h-4q-4 -8 -4 -14q-6 -34 -41 -94q-9 -13 -10 -17l-13 -18q-6 -9 -6 -20q-3 -17 -10 -35q-8 -12 -6 -19q-3 -24 -21 -45q-3 -4 -7.5 -13l-6.5 -13q-6 -6 -6 -19q1 -2 -6 -16q-3 -7 -11 -22.5 t-10 -22.5q-7 -14 -12 -19q-17 -26 -19 -37q-12 -25 -14 -36q0 -1 -3.5 -4t-4.5 -5q-4 -8 -4 -10q0 -6 -8 -18q-15 -30 -21 -37q-11 -15 -14 -29q-3 -18 -12 -33q-13 -18 -15 -26q-1 -5 -7.5 -15.5t-6.5 -11.5q-11 -17 -25 -41l-2 -2q-2 -8 -11 -23t-9 -16q-4 -12 -10 -18 l-31 -45q-4 -5 -10 -16t-7 -13q-16 -28 -41 -59q-10 -15 -28 -33l-10 -12q-13 -20 -48 -47l-32 -25q-35 -25 -82 -35h-72q-6 0 -8 2q-6 3 -25 11.5t-28 15.5q-11 7 -19 10q-23 9 -47 29q-5 3 -12 18q-3 15 -12 27q-3 5 -6.5 17t-6.5 18v10h2q-5 0 -8 8q-2 2 -2 12l2 4 q2 5 0 6.5t-8 0.5q-2 -1 -3 0t1 2q-4 8 -2 14q6 13 0 25l-8 28q-10 10 -7 23q0 3 -2.5 8t-1.5 8v17l-4 38l-6 39q0 11 -1 23.5t-2.5 27.5t-2.5 23l-4 16v31l-2 12q-2 43 -10 134l-2 47l-2 22q-5 32 -9 125q-1 11 -1.5 37t-1.5 46t-5 38q-1 8 -2 24.5t-2 24.5q2 6 2 37l-6 86 q-4 29 -4 86q0 27 -2 39l-2 108v17v78l-4 34q0 7 -4 15l-2 10q0 10 -13 14l-12 4l-8 7q-7 7 2 16l6 8q14 8 25 27l2 4q2 -2 2 -6q0 -6 2 -6q6 -3 6 4l6 8q6 6 8 6q2 2 9.5 4.5t11.5 5.5q4 4 8 4l43 7q6 1 41 -5q35 -3 59 -18q9 -4 31 -8q28 -8 39 -17q4 -4 10 -4 q12 -2 35 -20q11 -8 22 -23q6 -11 9 -28l-2 -17q2 -8 4 -24t4 -23l4 -37q4 -12 4 -16q-1 -10 4 -51q1 -5 1 -15.5t1 -15.5l2 -20q0 -2 1 -6t1 -5q-2 -11 -1.5 -29.5t-0.5 -29.5q1 -3 1.5 -13.5t2.5 -15.5q1 -8 2 -25.5t2 -25.5q2 -29 2 -88l6 -51l5 -41q2 -6 2 -23l4 -45 v-28q4 -35 0 -54v-16v-41v-10q6 -14 6 -47q2 -8 2 -21q5 -16 2 -37l1 -9q0 -9 -1 -9q8 -46 6 -68l4 -30q7 -27 4 -50q0 -8 2 -12q10 -35 11 -43q0 -11 4 -35q8 -35 10 -57q5 -21 16 -55v-4q6 -6 11 -3l6 5q57 61 80 98l6 10q19 24 63 96q17 25 45 71.5t35 57.5l2 2 q20 28 64 105l12 20q6 9 14 27.5t10 22.5q1 3 46 90q14 24 22 49q1 3 18 49l35 88l15 35l8 18q0 6 -2 6l-10 13q-33 38 -41 75q-3 20 -17 31q-11 11 -22 33q-18 44 -21 61q-6 18 -10 72v12q24 70 39 101q24 49 65 84q14 14 17 20q0 4 8 4l18 8q10 3 19 0q16 -8 26 -6 q5 2 13 -2q7 -4 41 -14q30 -9 47 -35l12 -18q2 -6 2 -21zM268 -6q2 0 2 2l-2 2v-4z" />
<glyph unicode="W" horiz-adv-x="1585" d="M270 -260l-37 4q-2 0 -5.5 1t-4.5 1q-2 1 -10.5 7.5t-11.5 9.5l-9 9t-9 12t-5 13q0 6 -2 8q-7 7 -14.5 23t-11.5 22q-10 10 -13 19l-31 65q-16 44 -18 50q-13 40 -20 55q-3 10 0 16q2 2 2 13l-7 20q-3 12 3 27q3 6 0 16q-9 16 2 41q4 16 2 25v6q1 21 -0.5 58t-1.5 48v13 q-5 15 -5 20q0 4 3.5 10t3.5 8q1 2 1 7t1 8l6 141q2 30 14 88q16 93 39 174q16 66 33 121q6 19 31 111q23 94 28 120q6 30 6 31q0 9 2 13l35 145q4 13 8 47v14q4 57 2 64l-4 8q-3 5 2 10q20 12 29 21h6q9 -6 17 0q6 4 14.5 5t19 0.5t15.5 0.5q2 0 6 -4q15 -6 29 0q10 3 16 0 q14 -8 45 -17q12 -5 47 -22l8 -8l45 -60q10 -15 11 -16q17 -44 26 -59q20 -37 17 -72q0 -8 -2 -12v-50v-28l-7 -58q0 -8 -3.5 -23.5t-4.5 -19.5q-5 -44 -18 -96l-23 -84q-1 -4 -5 -16.5t-5 -18.5q-9 -26 -10 -34q-2 -10 -10 -31q-17 -34 -17 -62q0 -17 -6 -32 q-1 -3 -4.5 -17.5t-7.5 -21.5q-6 -9 -6 -25q-2 -26 -13 -67q-2 -10 -2 -29l-2 -39q0 -4 -1 -12.5t-1 -12.5l-2 -6q0 -5 -6 -53q-1 -6 -2 -18.5t-2 -18.5l-4 -65q-1 -2 -2 -6t-2 -5q-10 -14 -6 -45q4 -25 2 -41v-10l4 -6l6 4q2 5 7 15.5t7 15.5l25 57q4 14 13.5 37.5 t12.5 32.5l27 80q8 26 41 112l35 94q18 52 39 105q14 39 26 78l14.5 43.5t14.5 42.5l51 135q14 37 15 45q0 6 6 12q11 8 14 25l4 16q7 18 23 21q1 0 8 4t12 4q1 1 4 2t4 2q6 6 21 10l16 2q11 3 23 0l8 -2q2 4 14.5 1.5t13.5 -2t12.5 -4.5t12.5 -5q16 -7 23 -23 q2 -7 6.5 -20.5t7 -24.5t2.5 -22l6 -51q0 -6 1 -13t2.5 -15t2.5 -13v-2q8 -12 4 -37l-4 -19q-2 -6 -2 -16q2 -12 2 -35l-2 -22q0 -36 -4 -54q0 -18 -2 -28q0 -36 -6 -74q-8 -55 -8 -121q0 -85 2 -102q1 -10 1 -27t1 -30.5t4 -26.5q2 -8 2 -25l2 -4l6 2l6 6q2 5 8.5 14.5 t8.5 14.5q23 40 78 133l12 23q51 105 106 194l9 17l47 90q28 50 55 141q4 22 16 57l2 13q5 13 -8 20q-9 5 -31 23q-71 59 -86 147q-7 51 0 82l11 59q0 5 2.5 14.5t3.5 12.5l2 16q1 2 2 6.5t2 6.5l18 37q11 22 11 36q0 13 10 13q8 0 8 10q-2 5 4 8l25 10q2 9 16 4q2 0 5 -2 t5 -2q4 -2 11 -2q6 6 20.5 8t16.5 3q6 2 18 -2q8 0 12 -11q3 -9 10 -16q7 -5 17 -25q22 -48 22 -108q0 -33 4 -49q1 -6 1 -14t-0.5 -17t-0.5 -14q0 -62 -2 -93l2 -18q0 -10 11 -14q52 -17 88 -2q11 3 26 7t38.5 9t44.5 6t39.5 -1.5t27.5 -13.5t4 -30q-1 -3 -3 -5t-4 -3 t-3 -2t-1.5 -2t-1 -1.5t-2.5 -3.5t-5 -8q-9 -15 -21 -20l-5 -3q-4 -3 -5 -5q-5 -7 -17 -11.5t-58 -14t-144 -25.5q-14 -3 -17 -13l-12 -28q-7 -26 -20 -45q-8 -14 -15 -37q-5 -24 -20 -58q-9 -16 -19.5 -90t-13.5 -86l-6 -12q-9 -17 -10 -23q0 -1 -5 -6q-4 -5 -7 -12 t-6 -15.5t-5 -13.5l-82 -239q-6 -14 -19.5 -37.5t-15.5 -28.5l-8 -18l-35 -84l-4 -21q-10 -49 -21.5 -86.5t-22 -57t-19 -30.5t-15 -16t-6.5 -6q-6 -9 -6 -21q0 -6 -4 -6q-8 -2 -12 -14q-3 -15 -15 -27q-6 -6 -6 -10q-2 -13 -18 -29q-33 -33 -58 -53l-14 -14 q-40 -40 -98 -43q-12 -4 -21 2q-6 4 -28 8l-25 6q-26 3 -35 27q-3 10 -12 16q-26 16 -41 53q-8 21 -10 29q-3 12 -17 39l-10 20q-6 21 -18 146t-17 143l-8 25l-2 2h-6q-13 -16 -16 -37q-2 -9 -11.5 -39t-14 -50t-7.5 -40l-2 -8q-4 -11 -14.5 -44t-18.5 -49q-3 -9 -18 -34 q-5 -10 -5 -11q5 -13 -2 -32q-7 -16 4 -27q3 -3 1.5 -5.5t-7.5 -2.5q-12 0 -16 -14q-1 -4 -2 -12t-2 -11l-6 -14q0 -5 -8 -9q-22 0 -35 -30l-13 -21l-12 -12q-13 -7 -18 -14q-1 -2 -4 -5l-4 -2l-25 -10q-4 -2 -14 -2q-12 3 -23 -4q-35 -11 -74 -8zM293 -238l2 2l-2 3 q-1 0 -2 -1.5t-2 -1.5q2 -2 4 -2z" />
<glyph unicode="X" horiz-adv-x="1466" d="M1128 -147q-9 -3 -12 2q-4 4 -8 4q-10 2 -25 12q-18 12 -36 18q-5 3 -11 0q-1 -2 -4 -1.5t-4 3.5q-4 9 -9.5 17.5t-16 20.5t-13.5 16q-14 16 -37 47q-34 49 -47 74q-10 12 -26 40q-44 67 -54 84q-10 16 -26 52q-17 31 -31 53q-8 12 -39 63q-2 2 -12 17q-8 9 -19 26 q-10 18 -34 54q-19 28 -25 39q-9 20 -25 43l-10 18q-9 16 -27.5 46t-27.5 46q-7 14 -10 23q-6 6 -7 8q-4 4 -12 0q-1 -4 -5 -11.5t-5 -9.5q-7 -20 -25 -41q-52 -73 -67 -102q-22 -43 -23 -47l-12 -37q-2 -8 -10 -24q-30 -57 -43 -78q-27 -44 -49 -95q-3 -10 -13 -29t-12 -24 q-29 -56 -45 -94q-10 -27 -43 -90q-20 -35 -25 -45q-2 -4 -5 -12.5t-5 -12.5l-6 -14q-14 -20 -35 -8q-3 1 -31 24v4q1 1 4.5 3.5t5.5 4.5t3 5q4 8 2 12q-4 4 -5 9.5t-0.5 12t-0.5 9.5q0 5 0.5 6.5t2.5 3t7 2.5q8 3 12 10q28 43 33 53q24 56 51 130q28 70 47 118q1 3 49 113 q1 4 4.5 11l4.5 9q13 31 16 39l2 6l41 84q0 1 1 4t1 5q1 2 10 19.5t15 25.5l28 43q3 5 9.5 15t9.5 15q5 10 6 13q7 17 18 28l23 37q4 8 2 13l-6 14q-4 8 -13.5 23.5t-13.5 23.5q-4 4 -4 8q-7 17 -23.5 45t-19.5 35q-15 25 -33 61q-7 10 -14 23q-1 2 -10 19.5t-15 25.5 q-3 5 -8 16.5t-8 16.5q-6 12 -8 14q0 6 -6 0l-2 -2q-9 -4 -9 2q-2 4 -2 12q0 11 -8 27l-12 31q-10 16 -12 22q-10 26 -11 29l-4 8q-6 4 -10 25q-1 7 -6 23t-6 18q0 2 -2 2q-7 6 -17 30q-10 21 -26 31q-29 17 -31 19q-11 8 -14 22q0 5 -1.5 15.5t-1.5 15.5q0 18 15 41 q6 6 14 18q0 4 2 8t5.5 8t4.5 7q3 6 11 2q4 2 4 4q7 10 16 8q11 0 17 6l24 6q2 1 11 2t14 3h8q13 -7 16 4q0 4 6 4q5 -1 16 -1t17 -1q3 0 10.5 -3t12.5 -1q8 2 24 2h19q18 0 33 -9l38 -18q2 -2 7.5 -4t7.5 -4q6 -4 51 -27q19 -8 33 -16q15 -9 26 -23q2 -4 7.5 -11t7.5 -11 q15 -24 18 -56q0 -13 8 -18q13 -11 21 -35q0 -6 2 -8q3 -19 12 -31q19 -28 25 -59q3 -9 -6 -12q-2 -2 -2 -9q6 -6 6 -8q-2 -7 6 -22q8 -12 26 -47q0 -1 3 -1t4 1q27 32 28 34q35 40 43 48l64 57q14 14 26 29q4 7 9 10q13 7 18 14l4 4q11 8 37 30t41 32l24 16q15 11 27 14 q31 12 49 7q3 0 51 -11q9 -3 9 -12v-10v-8q-15 -19 -23 -25q-4 -2 -19 -13t-24 -14q-4 -2 -12 -10q-2 -1 -5 -4t-5 -4q-27 -34 -72 -64q-20 -15 -25 -20q-26 -26 -32 -31q-17 -16 -29 -24q-23 -17 -35 -37q-14 -23 -20 -29l-5 -10q-10 -23 -36 -49l-15 -19q6 -33 27 -80 q7 -15 14 -45q10 -25 15 -30q19 -33 20 -43q0 -1 1 -2t1 -2q3 -7 62 -112t63 -114q2 -5 5 -16.5t5 -16.5q1 -7 11 -26q19 -39 26 -64l6 -12q7 -14 4 -29q-2 -8 4 -14q22 -38 23 -41q12 -16 27 -47q0 -2 4 -2q6 0 6 -4l6 -23q1 -2 8 -7.5t8 -10.5l4 -4q11 -4 11 -10 q4 -8 24 -39q2 -3 6 -10.5t7.5 -14t7.5 -10.5q4 -8 8 0q4 4 6 0q5 -15 4 -17q-4 -11 6 -18q12 -7 23 -25l31 -53q9 -12 12 -28q0 -7 6 -13q14 -21 10 -59q0 -11 -12 -27q-8 -6 -20 -18l-15 -15q-2 -1 -2 -10q5 -9 -6 -12q-2 0 -4 -2q-12 0 -19 -10q-7 -14 -20 -17l-37 -20 q-18 -7 -29 -10z" />
<glyph unicode="Y" horiz-adv-x="1157" d="M1001 887q4 -17 0 -27v-12q-1 -5 -1.5 -15t-1.5 -18.5t-3 -15.5q-2 -4 -2 -13v-49q0 -5 -1 -16t-1 -16l-2 -31q0 -13 -2 -21q-1 -6 -2 -20t-2 -21v-8q-3 -6 -4 -14t-1 -18t-1 -15v-8q-3 -7 -8 -47q-4 -20 -4 -29q2 -11 -2 -31l-7 -24v-8q0 -11 -2 -15v-10q0 -11 -4 -35 l-2 -8q1 -10 -2.5 -28.5t-3.5 -26.5q-2 -6 -6.5 -23t-9.5 -26t-10 -28.5t-7 -25.5q-9 -21 -12 -26t-8.5 -14t-10 -17t-8.5 -16l-12 -23q-12 -18 -18 -39l-4 -8q-9 -15 -37 -57l-4 -7q-4 -3 -35 -45q-12 -12 -21 -14q-2 0 -8 -6l-6 -10q-24 -16 -35 -29q-10 -5 -25.5 -19.5 t-23.5 -19.5q-8 -6 -20 -18l-9 -4h-4l-2 4q0 1 -1 2t-1 2l-4 -2l-4 -4q-4 -10 -18 -17q-6 -3 -11 2q-2 2 -6 -2l-8 -6q-8 -8 -14 -10l-33 -10q-11 -4 -14 6q0 4 -7 4q-14 0 -18 -6q-5 -8 -16 -8l-17 -5q-6 -3 -12 0q-2 2 -4 2t-5 -1t-5 -1q-2 2 -11 2v-2h11q2 -1 1.5 -4 t-3.5 -4q-16 -4 -25 -2q-43 6 -88 6q-16 0 -25 9q-4 4 -9 7t-11.5 6t-9.5 5q-49 21 -84 65q-39 53 -48 123q-4 27 -4 82q3 57 17 105l24 92l21 31l2 -2q13 27 16 45l6 12q41 37 66 51q20 12 29 21q13 10 24 4l6 -4q20 -12 47 -15l33 -2q15 0 23 2q30 5 69 -12l9 -6 q10 -9 43 -51q8 -12 2 -23q-4 -4 -4 -8q-3 -16 -29 -37q-2 0 -4.5 -1t-3.5 -1q-35 -4 -52 6q-23 15 -32 31q-9 9 -15 18l-12 15q-3 3 -10 0q-32 -16 -47 -31q-3 -3 -27 -33q-4 -6 -11 -19.5t-11 -19.5q-22 -47 -27 -78l-2 -8q-3 -12 -8 -47q-1 -9 -2 -26.5t-2 -26.5v-25 q0 -16 4 -24l2 -6q-2 -20 18 -48q16 -26 45 -26l17 -2q6 -3 10 4q2 4 8 10q4 4 14 4q19 0 39 10q45 19 103 60q21 16 53 57q31 45 39 60l12 24l17 45q8 20 8 31q5 19 8 22q2 4 2 15q0 8 4 24q7 32 10 58q0 10 1 21.5t2.5 25.5t2.5 22v52l7 100q0 4 5.5 50.5t6.5 70.5l2 24 q-1 4 -1.5 16t-2.5 19q0 1 1 5t0.5 7t-3.5 5q-3 -1 -6 -6.5t-4 -6.5q-4 -4 -11.5 -13t-11.5 -13q-3 -6 -10.5 -14.5t-9.5 -10.5q-25 -30 -31 -35l-12 -18q-2 -4 -19 -21q0 -4 -4 -4q-7 -2 -23 -14q-16 -16 -30 -21q-3 -1 -10.5 -4.5t-12.5 -3.5q-4 -1 -11 -4t-11 -4 q-8 -1 -23.5 -3t-28.5 -3t-24 0q-49 0 -107 20q-28 11 -55 35l-22 14q-24 20 -37 33l-37 43l-2 33l2 4q-1 2 -2 6t-2 6q-3 8 -13 72v4q-4 22 -4 103q0 39 7 90q0 13 4 41v4q1 18 4.5 35.5t9.5 42t8 34.5q5 19 10 34q3 6 7 18l20 59l8 33q0 3 2 7.5t2 6.5q3 7 2 8q-2 7 2 19 q1 3 4.5 12t4.5 14l4 6v15l6 20q0 17 -2 25q0 1 -2.5 6t-1.5 8l12 6l4 2q5 6 12 10t12 6t15.5 5t13.5 4h13l36 -2q33 0 74 -18l60 -33q16 -7 28 -21q3 -6 8 -6q12 -8 27 -22l12 -11q11 -11 13 -14q4 -8 16 -20q19 -19 16 -52q-5 -23 -10 -32q-4 -16 -4 -25q0 -32 -14 -72 l-19 -47l-18 -57l-4 -10q-15 -35 -15 -70l-6 -43q-4 -25 -4 -74q0 -18 2 -26q3 -26 8 -29.5t31 2.5q8 3 19 10q26 16 61 47l16 17q16 25 52 71q20 27 47 80l33 62q12 18 18 39q12 39 37 86q6 10 12.5 30t9.5 27q2 6 2 20q0 23 11 56l2 4q24 28 47 33q5 2 28 2q20 -4 33 -4 q7 0 17 -5q6 -6 6 -12v-16q0 -17 2 -25q6 -30 10 -86q3 -19 0 -35q-7 -22 -4 -53l2 -39v-30q-7 -26 0 -52q2 -14 2 -43q0 -33 2 -49q1 -5 4 -14t4 -14zM201 1386q2 0 2 -2z" />
<glyph unicode="Z" horiz-adv-x="1232" d="M225 -51q-4 8 -8 8q-17 0 -20 -6q-1 -1 -4 -1t-5 1q-8 8 -14 8h-6l-70 41l-37 82q3 -2 5 -2l4 2l2 9q1 9 -2 9q-5 11 1.5 43t20.5 78t14 47v2h-6l-2 -2l2 8q4 7 9 7q8 0 8 8q-2 6 2 14q2 2 8 11t10 12q3 5 9 16t8 14q-2 2 -2 4q8 23 20 31q1 1 3.5 4.5t2.5 5.5l4 13 l17 22l22 35l27 39q1 2 7 11t11 14q10 10 10 22q4 11 11 16q9 6 12 15l4 10q31 53 53 80l31 47l2 2q36 58 68 96l71 88q44 54 117 134l29 30q204 218 170 247q-2 2 -6 3q-38 13 -61.5 12t-52.5 -8.5t-32 -7.5q-18 3 -33 -6q-2 -1 -7 -2t-7 -2q-17 -2 -37 -19l-100 -32 q-23 -12 -39 -7q-28 5 -35 7l-72 -13q-59 13 -61 12t2 -4l-45 33q-56 37 -61 58q-2 4 -5.5 12t-5.5 12q-8 37 -22 51l-2 7q-2 2 -2 5t2 5h2q9 6 78 -2h51q4 0 13 2t13 2l29 4q37 0 55 2t56 2h225q36 4 55 4h78l43 -2q32 0 90 -4q12 -2 31 -2h27q24 0 30 2q8 4 15 0l18 -6 q22 -11 29 -27q12 -18 51 -88l2 -4l18 -57q3 -34 -10 -66q-13 -29 -33 -55l-22 -39l-6 -14q-14 -14 -17 -27q-7 -12 -20 -29q-37 -51 -57 -75q-5 -6 -18.5 -23.5t-22.5 -26.5q-10 -13 -23 -32l-35 -41q-4 0 -4 -4l-37 -48q-9 -13 -18 -20l-4 -4q-4 -8 -25 -29 q-22 -27 -22 -28l-4 -5q-18 -18 -31 -41l-64 -75q-23 -29 -49 -70l-41 -63q-15 -23 -41 -56q-9 -13 -32 -55l-27 -49l-31 -51q-34 -52 -47 -82l-2 -2q0 -7 4 -9h6l154 -14q58 -4 84 -4q9 -1 25.5 -1.5t30 -1.5t26.5 -3q6 0 19.5 -2.5t17.5 -3.5l14 -2q17 0 50 -3t38 -3 q38 -3 68 2q11 1 34 2t35 2h43q15 0 41 -11q12 -6 6 -18l-6 -25l-8 -16q-11 -26 -27 -37q-21 -21 -51 -31q-65 -13 -84 -12l-6 2q-20 4 -61 0l-9 -2q-9 1 -33.5 0.5t-33.5 1.5h-12q-31 -3 -62 0q-13 0 -35.5 3.5t-27.5 4.5q-20 3 -39 0l-45 -4h-9l-94 6q-1 0 -12.5 2.5 t-17.5 4.5q-10 2 -35 2q-6 0 -10 -2q-17 -6 -41 -9l-37 -8q-16 -4 -27 -2q-2 0 -37.5 -9t-38.5 -7z" />
<glyph unicode="[" horiz-adv-x="782" d="M645 1479q10 -5 17 -19q14 -28 17 -76t-3 -67q-18 -3 -33 -21h-2q-27 0 -51 -12q-2 -2 -10 -2l-33 -2q-8 0 -12 -2q-6 0 -17.5 -1t-17.5 -1h-8q-1 0 -3.5 1t-3.5 1q-10 0 -16 2q-2 0 -7.5 1t-8.5 1l-9 -2h-20l-14 2h-13q-14 0 -26 -6q-5 -4 -23 -8h-4l-33 -13h-4 q-22 -11 -22 -34l-2 -23v-12v-43q0 -45 2 -70l-2 -18v-8l-9 -119q0 -40 2 -58v-8q3 -42 0 -86v-92l3 -29v-57l-3 -39v-70l-2 -79q-2 -37 -2 -131l-2 -33v-146v-213q1 -17 8.5 -27t14 -12t12.5 -2h10q13 0 19 -2q4 -2 16 -2h47q4 -2 15 -2l22 2h10l21 2q4 0 12 1t12 1l25 2 h74l8 2q12 0 27 -6h2q2 0 5 -1t5 -1l4 -20q4 -30 8 -41q9 -42 12 -90v-2q-10 -5 -24 -19q-3 -6 -12 -6h-7l-18 -2q-20 -3 -33 -16q-11 8 -28 8h-5q-7 -1 -21.5 -2t-21.5 -2l-22 -2h-39l-27 -2q-4 0 -10.5 -1t-9.5 -1h-12q-8 -2 -23 -2h-10q-21 0 -35 -7l-45 7q-62 10 -74 10 l-6 -2q-8 8 -16 8h-6q-2 0 -2 2q-9 18 -21 25l-2 6q-3 18 -12 33l-4 8q10 17 4 39q-2 16 -2 53v45q0 57 -4 86l-7 86v22q-2 25 -2 62v18q0 78 2 117l5 94q1 8 2 23t2 22v29q0 8 1 23.5t1 23.5l2 78q4 98 8 149q8 82 6 144q0 49 4 135l2 70q2 43 2 147v47q0 37 6 78l5 23 q0 12 4 40q0 44 -9 70l11 -2l14 -2q19 0 33 14h6q16 -4 22 -4q9 0 13 -2q8 -4 12 -4l8 2q4 2 15 2l16 -2h10l17 -2q17 0 32 6h2q3 0 9.5 -1t9.5 -1q4 0 11.5 1t10.5 1l17 2q11 0 39 4h14q2 2 6 2h4q11 0 15 -2q10 0 30.5 -1t30.5 -1q19 0 43 4l29 5q16 4 20 4z" />
<glyph unicode="\" horiz-adv-x="1124" d="M156 1464q-7 0 -27 -4q-5 -1 -14.5 -8t-12.5 -8q0 -6 4 -16.5t5 -14.5l2 -2q7 -7 16 -35q19 -66 41 -116q5 -8 12 -27t8 -21q9 -31 33.5 -86t30.5 -69q29 -61 102 -193l47 -86q35 -57 58 -100q4 -14 8 -21q47 -97 55 -116q6 -12 20 -37.5t24.5 -46t17.5 -39.5 q4 -10 13 -30t13 -30l74 -149q12 -21 34 -59t28 -48q16 -27 45.5 -75.5t37.5 -61.5q5 -9 33 -51q29 -45 60 -70q0 -4 6 -4q27 -9 35 8q13 12 20 15q25 10 29 10q11 8 8 18q-9 23 -14 31q-17 24 -25 45q-9 29 -29 53q-42 72 -49 86l-3 6t-3 9q-17 17 -31 45l-63 117 q-41 86 -49 102l-24.5 49t-29.5 58q-1 4 -5.5 13l-6.5 13q-17 32 -41 86q-5 10 -28 57.5t-39 71.5q-4 4 -7 10q-11 25 -22 39q-32 69 -68 125q-13 30 -20 39q-8 16 -26.5 50t-26.5 51q-10 19 -25.5 54t-21.5 48q-10 15 -11 18q-7 21 -53 121q-27 51 -35 72q-7 14 -25.5 42 t-25.5 44q-8 8 -12 10q-28 8 -47 8z" />
<glyph unicode="]" horiz-adv-x="735" d="M633 -262q-6 -14 -6 -43q-11 -16 -4 -37l-2 -4q-14 -5 -48 -10q-25 -3 -49 -13q-11 -3 -70.5 -9.5t-76.5 -6.5h-2q-1 0 -4.5 -1t-5.5 -1q-6 -2 -19 -2q-17 0 -37 4q-4 2 -12 2h-2q-4 0 -12.5 -1t-12.5 -1q-31 0 -47 -2q-14 0 -22 -2q-8 14 -27 14h-4q-4 4 -6 10 q0 1 -1 3.5t-1 3.5q0 2 -4 10q-8 25 -27 33v4l-2 4q0 12 -2 18q-5 31 -8 41q0 2 -1 8t-1 9q22 5 22 30v2q13 13 41 27h4q13 0 17 2q46 4 73 4h13q14 0 40 -1t38 -1q6 0 17.5 -1t16.5 -1h7q21 0 31.5 9.5t11.5 41.5q0 25 -11 82q-9 61 -8 70q0 31 2 45q0 14 2 20v13l6 206v23 q0 12 1 32.5t1 30.5q4 33 4 95v118q0 38 3 68v51q-3 30 -3 60q0 7 -1 22.5t-1 22.5v32q0 20 -4 66v68q2 16 2 51q0 21 -4 71v13q-2 14 -2 45v12q-2 15 -10 25t-20 10h-5q-10 0 -18 -6h-8q-3 0 -17.5 2.5t-23.5 3.5q-52 8 -66 8h-32q-1 0 -3.5 -1t-3.5 -1h-4q-10 2 -24 2h-25 q-21 0 -29 -4h-2q-10 2 -26 12.5t-17 20.5v102q2 37 2 74q50 8 154 8h6q22 0 43 -6q48 -6 51 -6h7q23 2 67 2h37l4 2h12q9 0 13 -2h18q8 -2 27 -2h8l4 -4q0 -9 -2 -13q-5 -28 12 -45v-4q3 -38 8 -57q0 -1 1 -9t1 -14q-2 -14 -2 -49l-2 -14v-47v-23q-2 -4 -2 -10t-1 -18 t-1 -17v-6q-2 -2 -2 -8q-4 -20 -4 -29q0 -10 -2 -14q0 -15 2 -19v-2q1 -8 2 -25t2 -26q0 -21 2 -31v-16q4 -62 4 -90q0 -25 2 -37v-16v-60q0 -5 1 -15t1 -15q0 -12 3 -27v-55q0 -13 4 -49q6 -68 6 -132v-184q1 -6 2 -20t2 -21v-43q4 -36 4 -57q0 -4 1 -11.5t1 -11.5 q0 -16 2 -24v-31q4 -37 8 -102q0 -20 4 -56v-18q0 -11 4 -17q0 -5 5 -10l2 -4q0 -14 4 -24q4 -4 0 -19v-2q0 -27 4 -37q0 -1 1 -4.5t1 -5.5v-6z" />
<glyph unicode="^" horiz-adv-x="1245" d="M1106 621q-5 -19 -16 -33q-9 -12 -9 -25l-10 -6l-2 -2q-15 -4 -18 -20l-11 -3q-13 10 -28 13q-1 0 -19 14q-15 18 -22 33l-6 6q-6 11 -22.5 36t-24.5 40l4 -8l-17 30l-49 88q-9 25 -22 47l-9 21q-8 26 -16 37l-6 18q-6 20 -25 58l-18 43l-2 10q-27 63 -29 67l-12 33 q-8 21 -10 29l-11 20q0 9 -4 13q-12 16 -26 16q-15 0 -21 -12l-8 -10q-8 -11 -19 -29l-24 -43q-9 -13 -10 -17l-2 -4q-4 -4 -13 -22q-24 -42 -30 -49q-3 -3 -15 -21l-20 -37q-13 -20 -27 -49l-10 -16q-20 -36 -31 -58l-6 -12q-26 -38 -33 -57l-8 -12q0 -3 -2 -5l-18 -24 q-22 -30 -33 -53l-8 -7l-4 -8l-15 -18q-4 -8 -6 -10l-2 -5l-22 -30q-2 2 -7 2l-14 2q-13 0 -25 -6q-16 -4 -26 -4h-4q-5 0 -15 1t-14 1h-12q-16 0 -37 6l-6 2q-2 1 -4 1.5t-6 1t-7 1.5q19 8 33 29l29 45l2 4l16 24l31 47q3 4 9.5 15.5t10.5 17.5l31 62q12 20 27 49l4 8 q15 12 18 33l4 12q21 10 21 31q7 3 10 10h2l8 14q12 2 19 17l2 2v6q9 6 6 22l2 3q1 2 2 5.5t2 4.5l2 8h6l3 3q4 2 7 4.5t5 6.5q2 6 2 13q10 10 12 18q2 6 2 23q6 6 10 14l15 20q16 24 30 52l9 14q20 35 22 39l16 24l11 21v2l4 8q8 8 10 14l10 21q4 4 4 10q10 5 13 19l2 6 l2 2q4 2 8 6l2 2l12 10q20 23 45 29q23 11 27 18h12q0 -14 11 -20l8 -8q0 -5 4 -13q8 -10 20 -10h6q8 -20 25 -20q4 0 18 -17q4 -7 25 -28q3 -3 6.5 -9t5.5 -8l13 -24l24 -58l10 -24q8 -17 11 -27l24 -55q2 -6 10 -20t11 -23l24 -56q2 -11 11 -24l43 -96q-10 14 -5 5 q22 -45 59 -102l3 -4l22 -37q28 -51 54 -86q6 -9 6 -24q-12 -15 -19 -29q-11 -16 -12 -20z" />
<glyph unicode="_" horiz-adv-x="940" d="M102 -51q-6 2 -28 -2q-4 0 -4 -4q-9 -9 -9 -17q2 -4 2 -14q0 -7 4 -21t5 -18q2 -6 2 -14q0 -4 1 -12.5t1 -12.5q0 -2 4 -6l12 -14q7 -7 12 -7q4 0 11.5 -1t11.5 -1q19 0 56 -1t55 -1q6 0 17 -1t17 -1q10 0 31 -1t31 -1q9 0 28 1t29 1h27h35q4 0 25.5 2.5t25.5 -0.5h2 q27 0 39 2h4q55 0 82 -2q8 0 12 2h39q19 -3 35 0q18 0 26 -2q34 -4 52 -2q24 0 36 -2h9q12 4 20 6q8 0 8 11v4q-2 4 2 8q12 16 9 33q0 3 -2.5 8t-2.5 8t-6 33q0 6 -4 18q-2 8 -10 15q-12 8 -16 12q-5 5 -15 2q-8 -4 -12 -4l-31 -6q-6 -1 -18.5 -3t-18.5 -3h-24h-23h-86 q-13 0 -37 4q-32 4 -49 4q-73 0 -112 -2q-17 0 -41 4q-4 1 -11 2t-10 2q-23 0 -33 2q-12 2 -36 2q-21 0 -31 2q-12 3 -25 0q-3 -1 -10 -2t-10 -2q-4 0 -12.5 -1t-12.5 -1q-16 3 -33 0q-5 -1 -15 -2t-15 -2q-11 0 -15 -2z" />
<glyph unicode="`" d="M508 1206q-30 -3 -53 15q-18 18 -23 28q-12 23 -49 64l-18 22q-4 8 -11 15q-12 12 -28 32q-7 7 -9 11q-4 8 -20 20q-13 10 -35 25l-10 8q-6 6 0 12l24 23l25 24q1 1 6 1.5t8 2.5l47 27q2 1 6 -0.5t5 -1.5l69 -45q2 -5 11 -19q8 -8 20 -28q30 -40 37 -47q12 -14 27 -37 l18 -33q13 -23 20 -59q0 -17 -6 -23q-4 -3 -10 -10t-11.5 -11t-12.5 -5l-3 -3q-4 -6 -16 -6z" />
<glyph unicode="a" horiz-adv-x="921" d="M676 -23q-38 0 -68 13q-27 10 -49 26q-10 5 -12 11l-10 10q-16 16 -21 33q0 2 -8 10q-23 39 -35 82q-2 13 -14 33q-4 4 -4 6q-3 6 -6 0q-7 -7 -27 -37q-12 -28 -49 -70l-31 -28q-30 -15 -37 -21q-16 -4 -26 -8h-5q-42 -9 -55 -8q-6 0 -10 2q-4 1 -13 2t-14 2 q-26 7 -49 10q-27 7 -41 23l-6 6l-5 4q-5 4 -7 8q0 7 -6 10q-5 5 -5 8q-3 4 -8 5l-4 2q-6 6 -8 12q-2 3 -7 8t-7 8q-6 9 -6 21q-7 14 -9 24q0 3 -1 6.5t-2.5 8.5t-2.5 8q-4 10 -4 31q-4 16 -4 47q-1 3 -1 8t-1 8q-1 13 -1 35t-1 33q0 10 2 14q1 2 12 47q0 4 4 12 q23 74 29 90q7 21 8 23q4 6 9.5 19t9.5 18q2 4 2 8q0 10 10 25q1 2 8.5 17.5t9.5 23.5q10 10 17 24q5 16 6 17q5 5 12.5 15.5t11.5 14.5q1 3 23 41q-1 2 4 13q22 22 29 38q22 37 47 56l6 6q7 6 15 14t16.5 16t14 14t5.5 7q10 14 107 14q9 0 24 -3t38 -8.5t38 -8.5 q22 -5 51.5 -28t32.5 -25q51 -26 51 -27q-19 -22 -37.5 -30.5t-51 -12t-50.5 -8.5q-20 -7 -43.5 -36.5t-38 -58t-29.5 -61t-16 -33.5t-2 -5.5t-2 -6.5q-2 -8 -8.5 -23t-8.5 -20q-6 -13 -25 -88t-24 -100q-4 -10 -9.5 -29t-8.5 -25q-8 -16 -8 -32q0 -1 -4 -12t-4 -17v-8 q-9 -18 -9 -41v-12q-4 -1 -2 -32.5t2 -33.5q6 -10 9 -20q6 0 6 4q5 5 12 2q14 -6 17.5 -5.5t15.5 9.5q12 10 26 33q11 11 17 20q0 1 1 2.5t1 3.5q7 12 20 31t19 29q23 42 32 55q6 12 13 33q1 2 2.5 9.5t3.5 14.5q4 12 4 19q0 23 4 63q1 3 2 9.5t2 9.5q3 34 12 63l19 57 q3 21 10 37l2 4q5 8 12 26t7 19q6 12 6 13q6 12 6 18q0 17 2 21q2 2 2 8q0 10 10 10q13 0 21 2h4q2 3 7 3t7 1h6q2 -3 5.5 -3.5t9 0.5t6.5 1q18 -5 22 -10l19 -6q8 -4 16 -6q22 -7 43 -35q6 -6 10 -14q1 -3 6.5 -17t8.5 -22v-7q-2 -10 -2 -30q-9 -21 -9 -47q0 -1 -2 -10.5 t-4 -14.5q-2 -2 -3 -8.5t-3 -9.5q-4 -22 -2 -37q-2 -2 -2 -8q-3 -8 -6 -26.5t-6 -27.5q-2 -2 -2 -10q3 -5 -2 -14q-7 -18 -4 -33q-1 -8 -5.5 -23.5t-5.5 -23.5q-3 -8 -8 -49q-2 -4 -2 -17q-1 -10 -10 -45q-2 -20 -2 -61q4 -28 4 -39q0 -13 11 -26.5t22 -10.5q9 2 26.5 19.5 t20.5 19.5q-7 -1 32 67q12 20 35 58l19 33l88 155l-16 -21q2 4 20 31q70 113 86 148q6 15 29.5 74.5t33.5 79.5q10 18 29 11q22 -9 17 -37q-1 -4 -3 -9q-61 -138 -65 -142q-3 -26 -18 -47q-3 -13 -17 -45q0 -4 -13.5 -30t-30.5 -56.5t-19 -34.5q-106 -194 -179 -278 q-7 -13 -16 -18q-3 -2 -11 -10.5t-11 -10.5q-36 -18 -54 -20z" />
<glyph unicode="b" horiz-adv-x="866" d="M328 -172q-23 -6 -64 2l-33 6q-28 6 -57 25q-25 10 -31 20q-2 4 -4 4q-7 5 -37 35q-21 17 -39 57q-4 6 -4 19q3 3 -2 12q-4 4 -6 8q-9 17 -6 31v16q0 7 -6 7q-6 4 -6 14q0 11 -4 31q-5 27 -2 35q-2 6 -0.5 19t0.5 19q1 10 0.5 37t1.5 37v21q-3 16 4 36q2 8 2 29q1 2 2 9 t2 10t6 32q0 5 2 7q6 27 14 81q0 7 2 11q3 16 9 32q1 8 4 24t4 24q2 9 7.5 32.5t8.5 36.5q0 1 2 9t4 12q1 9 5.5 29t5.5 30q8 31 10 51q0 9 4 25q4 6 4 16q1 3 2 8t2 7q1 9 12 53q14 34 19 65q1 6 4 18.5t4 18.5q2 5 10.5 32t14.5 42v2q1 14 7 38t7 27q4 27 20 76 q2 12 11 39q6 18 16 62q4 15 8 41q3 8 11.5 30t11.5 35l12 45q4 14 8 21q7 27 8 30q0 15 -4 21q-4 8 -4 12q-4 6 -1 14t9 11l29 12q6 3 25 -2q32 -12 45 -23q16 -12 24 -14q6 0 9 -6l28 -23q17 -10 58 -41q20 -15 32 -32q3 -7 10 -16.5t9 -12.5q4 -8 4 -12q0 -41 -8 -74 l-13 -45q0 -1 -1 -4.5t-1 -5.5q-6 -16 -15 -49t-15 -50q0 -1 -1 -2.5t-1 -3.5q-4 -29 -17 -45q-4 -2 -4 -8q-3 -10 -8 -30.5t-8 -30.5q-3 -17 -15 -35l-2 -8q0 -1 -4 -14.5t-4 -20.5q0 -2 -4 -10q-10 -30 -10 -37q0 -1 -2 -4.5t-2 -4.5q-4 -4 -8 -16q0 -7 -3 -10 q-10 -16 -22 -72l-6 -24q-5 -21 -4 -27q0 -2 -1 -4.5t-1 -3.5q-10 -33 -11 -37q-9 -26 -12 -53l-12 -74v-4q-5 -10 -15 -68q-1 -2 -1 -5t-1 -5q-5 -16 -9.5 -46t-6.5 -38q-1 -3 -3 -18t-7 -23q0 -21 -8 -49q0 -2 -1 -6.5t-1 -5.5q0 -30 -11 -76q-2 -23 -2 -66q0 -6 -2 -17 t-2 -17q-3 -30 0 -56q0 -4 2 -9.5t2 -8.5q-3 -7 2 -29q3 -13 0 -27q-7 -29 -8 -30q-3 -7 0 -10q3 -10 10 -17l43 -33q12 -10 37 -14q38 0 60 12q31 12 51 39q11 11 30 33t21 25q9 18 18 30q18 36 33 56q9 18 15 36q11 28 26 78q6 13 15 43q12 37 20 111v6q3 15 -10 18 q-55 32 -88 60l-6 6q-5 3 -9.5 7t-10 10t-7.5 8q-18 20 -29 57q-4 12 -4 20q-10 26 0 52q5 24 17 51q2 6 61 26q22 10 47 -8l25 -24q6 -9 18.5 -24.5t16.5 -20.5q6 -6 6 -13q1 -8 12 -35q1 -3 4 -9t4 -9q0 -13 8 -29q9 -22 9 -32q10 -35 10 -52q0 -6 2 -8q0 -6 8 -10 q3 -1 10 -5t13.5 -6.5t11.5 -2.5q72 0 147 139q49 87 58 129l14 41q-2 5 8 8h4q13 6 29 -10q8 -2 8 -21q-2 -8 -24 -54l-8 -16l1 1q-2 -4 -26.5 -53.5t-40.5 -77.5q-49 -90 -113 -113q-53 -21 -88 -16h-10q-2 -2 -4 -2v-2q-7 -42 -17 -64q-3 -7 -8 -39q-5 -15 -10 -20 l-12 -43q-6 -15 -13 -29q-11 -14 -18 -31q0 -4 -4 -8q-8 -12 -25 -45q-4 -7 -13 -19.5t-11 -15.5q-36 -49 -70 -88l-49 -55q-2 -3 -8 -7.5t-8 -6.5q-16 -14 -54 -31q-4 -4 -8 -4q-8 -2 -43 -17q-14 -8 -53 -12q-4 0 -6 -2z" />
<glyph unicode="c" horiz-adv-x="768" d="M258 -152q-37 3 -92 27q-21 7 -33 16q-2 1 -3.5 2t-2.5 2t-2 1q-6 10 -16 16l-3 2l-4 6q-6 9 -14 17q-46 51 -65 155q-30 210 4 379q3 7 2 10q0 16 8 27q3 6 7 19t5 16l12 39l15 32q2 10 14 39q17 37 29 58l2 4q5 15 14 33q2 2 2 12q0 4 4 8q11 8 19 23q2 5 5.5 10 t8.5 11.5t8 10.5q32 36 54 58l34 32q48 51 99 76l43 23l12 12q7 7 18 4h9q20 -3 28 -16q16 -13 39 -23q39 -19 66 -43l6 -6q12 -18 31 -37l8 -16q1 -1 16 -21q6 -12 6 -22q8 -33 6 -51q3 -16 -2 -29v-4q-1 -8 -22 -78q-8 -16 -8 -25q-1 -1 -2 -4.5t-2 -5.5q0 -1 -1 -2 t-2 -2.5t-2 -3.5q0 -7 -5.5 -20t-6.5 -17q0 -1 -2.5 -3.5t-3.5 -4.5q-8 -16 -33 -16q-4 4 -6 4q-22 15 -24 32q0 5 -1.5 14t-1.5 13q0 12 5 57q0 19 4 43q0 61 -2 74l-2 12q0 2 -5 2l-6 -8l-10 -12q-10 -17 -20 -23q-6 -3 -11 -8q-7 -10 -27.5 -25t-21.5 -16l-14 -18 q-5 -3 -13.5 -13.5t-11.5 -13.5l-4 -8q-3 -3 -8.5 -12t-9.5 -13q-8 -8 -17 -20l-12 -16q-5 -6 -11 -17.5t-7 -13.5q-18 -36 -19 -39q-3 -10 -11 -30.5t-11 -30.5l-2 -5q-11 -27 -17 -49q-6 -9 -6 -18l-6 -27q-1 -3 -1.5 -7.5t-1.5 -8.5t-3 -8v-7l-12 -63q-8 -34 -7 -45v-6 v-41q0 -11 -4 -39v-43l6 -43l3 -12t3.5 -13.5t4.5 -9.5l2 -10q4 -19 10 -29q1 -2 3.5 -4.5t4.5 -5.5q9 -18 25 -31q8 -8 24 -20q16 -8 23 -8q100 -11 227 180q74 111 207 325l43 95q5 11 28.5 51.5t43 75.5t20.5 41q2 12 33 6q28 -5 26 -17l-1 -4q-27 -55 -35 -86l-19 -43 q-8 -15 -48.5 -88.5t-47.5 -85.5q-125 -195 -246 -362l-7 -10q-7 -10 -15 -21.5t-22 -28.5t-28.5 -32.5t-34 -33.5t-38.5 -32q-8 -6 -18 -10t-21.5 -6t-22.5 -3.5t-22 -2t-19 -0.5t-15 1h-7h-39z" />
<glyph unicode="d" horiz-adv-x="1024" d="M774 -240l-9 -4q-9 -3 -20 -6t-26 -6t-29.5 -3t-29.5 2.5t-27.5 11.5t-20.5 24q-1 2 -17 21.5t-30.5 38t-15.5 22.5q-1 3 0.5 17.5t-2.5 17.5q-5 9 -6.5 23t-0.5 36l1 22l-6 129q0 1 -1.5 3.5t-1.5 3.5h-6q-1 -1 -6 -11q-10 -20 -26 -28q-4 -3 -13.5 -8.5t-13.5 -8.5 l-10 -12l-33 -29q-9 -9 -21 -12q-2 -1 -9.5 -4.5t-10.5 -7.5q-1 0 -2 -1t-2 -1q-7 -1 -22 -6.5t-23 -6.5q-4 0 -7.5 -1t-8 -2.5l-7.5 -2.5l-32 -6q-23 -4 -68 4q-50 9 -94 39q-24 17 -41 37q-34 43 -49 76q-5 8 -2 18q4 21 -7 37q-4 8 -4 12q-3 9 -8 39q0 4 -2 6 q-6 15 -6 37q0 13 -4 37q-3 19 0 41q0 4 1 13.5t1 13.5q3 37 14 61q2 4 2 13q4 20 17 59q21 53 28 76q1 6 15 34l18 33q12 20 19 25l18 26q6 12 8 13q8 7 43 47q11 16 27 29q6 6 31 26l18 12q7 4 10 9q11 11 33 22l92 49l25 13q27 8 37 18h8h8q26 0 59 -22q2 -2 10 -8 t11 -11q1 -1 10 -6q13 -7 18 -16q5 -11 29 -35q2 -1 4 -0.5t2 2.5q1 6 4 14.5t4 11.5q0 5 3.5 14t3.5 11q3 6 14 39l18 63q4 12 8.5 25t11 28.5t9.5 24.5q16 28 35 80q7 24 33 78q7 15 20 40t17 34q11 23 47 79q30 43 45 70q18 29 47 62q9 13 49 63q16 21 39 41q13 13 14 18 q4 7 8 5h13q15 -3 26 -11q9 -7 25 -10q8 0 24 -8q6 -6 11 -6q22 -12 32 -43q3 -3 3 -6q-2 -4 -7 -31q-5 -30 -8 -39l-6 -29q-4 -26 -8 -35q0 -2 -1 -4.5t-1 -3.5q-11 -21 -27 -71q-6 -21 -18 -39l-13 -31q-9 -35 -14 -49q0 -2 -4 -10q-18 -35 -25 -66q0 -2 -4 -10l-12 -17 q-22 -37 -29 -65q0 -1 -1 -3t-1 -3q-24 -42 -30 -51q-10 -10 -13 -23q-6 -19 -31.5 -95.5t-29.5 -84.5q-3 -8 -10 -19q0 -1 -1 -3t-1 -3q-15 -57 -27.5 -93t-18.5 -46t-11 -18t-7 -17q-3 -17 -16 -37q-28 -41 -47 -96q-5 -16 -19 -33q-17 -20 -14 -49v-41q-2 -16 -2 -51v-27 q0 -27 2 -39q2 -6 2 -16q1 -9 11 -65.5t9 -67.5q-8 -124 20 -124q20 1 62 58l109 146q34 47 66.5 107t55 115t39 101t27 79t10.5 34l39 84q11 22 27 35q5 4 6 0l6 -23q1 -5 2 -13.5t2 -12.5q3 -22 0 -43q0 -15 -4 -21q-2 -7 -7 -21.5t-7 -21.5q-4 -8 -4 -10q-3 -13 -12 -25 q-9 -18 -9 -22q-10 -38 -24 -66q-5 -9 -15 -33q-2 -8 -7.5 -23.5t-6.5 -17.5q0 -1 -1 -3t-1 -3q-8 -12 -27 -55q-1 -3 -49 -94t-91.5 -177.5t-37.5 -86.5q-12 -5 -30.5 -45.5t-45.5 -83.5t-59 -54zM721 510q1 0 3 1t3 1q24 48 25 51q10 23 50.5 143t53.5 146q2 5 7 15.5 t7 15.5l37 88q26 60 37 98l12 31q30 70 39 94q3 6 8.5 19.5t8.5 19.5q2 6 8 18.5t8 18.5q13 26 27 61q13 36 18 70q3 16 10 33q0 4 4 16l7 49v6q0 2 -3 2.5t-4 -0.5l-12 -12l-47 -78q-4 -5 -12 -21.5t-15 -23.5q-2 -2 -2 -6q-13 -27 -20 -35q-3 -3 -5.5 -6.5t-5.5 -8 l-5 -7.5q0 -1 -1 -2.5l-2 -3t-2 -3.5q0 -3 -10 -28l-6 -15l-10 -18q-4 -7 -17 -25l-6 -10q-2 -7 -22 -53q-27 -62 -29 -68t-7.5 -20t-8.5 -21q-11 -19 -13 -28q-3 -16 -10 -33l-24 -86q-15 -65 -17 -74q0 -1 -43 -194l-6 -31q-1 -4 -2 -12.5t-2 -12.5q-4 -20 -4 -30v-29 q-1 1 -1 0q1 -1 1 -2zM350 63q18 5 27 9l39 18q21 9 30 27q3 6 11 6q1 1 4 2t4 2q6 0 14 8q6 6 8 10l33 50q4 6 9.5 70t5.5 75v18q1 4 2 12.5t2 12.5q4 3 4 18q4 54 4 80v8q4 14 8 54q0 10 2 16q2 14 7 40.5t7 39.5q4 24 4 39q0 6 3 12q6 21 10 64q0 2 -2 2h-2 q-30 -26 -43 -35q-16 -16 -19 -23l-6 -6q-8 -6 -20 -18q-2 -3 -8 -7t-7 -5q-6 -3 -10 -7q-26 -15 -37 -28q-1 -2 -18 -19q-11 -8 -17 -16l-14 -19q-2 -3 -20.5 -22t-24.5 -33l-4 -4q-5 -6 -12.5 -20t-12.5 -19q0 -1 -1 -3t-1 -3q-1 -7 -7 -19.5t-7 -13.5q-5 -10 -8 -22 q-12 -46 -27 -90q-11 -28 -8 -52q4 -44 10 -69q4 -12 4 -17q3 -31 17 -67q1 -2 4.5 -10t5.5 -11l18 -22q16 -19 39 -13z" />
<glyph unicode="e" horiz-adv-x="768" d="M238 -10q-8 1 -25 2t-25 2q-34 3 -55 14q-28 10 -47 27q-32 20 -51 59q-6 21 -15 39q-6 14 -10 43q-5 62 -2 80q2 4 2 10q0 33 8 103q4 26 15 71q0 15 2 23q29 89 45 147q26 72 53 131l29 56q15 26 26 51q18 42 41 65q31 39 76 84q9 9 37 25q2 2 18 12.5t23 16.5 q31 23 49 30l27 19q2 4 18 14h6q8 -4 25 -4q10 0 16 -2q10 0 19 -6q4 -2 14 -5t14 -5q42 -10 76 -31q2 -2 10 -6q4 0 11 -11q5 -10 14 -22q4 -4 4 -12v-41l-12 -90q-34 -139 -76 -203q-14 -19 -33 -49q-2 0 -2 -2q-4 -7 -9.5 -14t-13.5 -14.5t-12 -12.5q-20 -20 -24 -27 q-22 -22 -27 -25q-38 -21 -43 -26q-16 -16 -41 -23q-2 -1 -8 -4.5t-8 -5.5q-19 -11 -33 -16q-6 0 -12 -11q-5 -21 -8 -28l-13 -43l-4 -35q-4 -38 -8 -57q-2 -10 -2 -27q-2 -12 -3.5 -67.5t3.5 -67.5q20 -21 44.5 -21.5t55 18t82.5 60.5q32 15 103 72q10 9 26 26t29 29t27 21 q35 26 71 71q39 48 47 62q17 17 45 57t39 62q18 35 97 161q3 7 9.5 7t12.5 -7q30 -43 -8 -108q-35 -58 -41 -70q-17 -39 -80 -119q-4 -6 -16.5 -23.5t-18.5 -27.5q-1 -1 -2 -4.5t-2 -5.5q-27 -27 -59 -68q-12 -13 -37.5 -35.5t-36.5 -35.5q-1 -4 -12 -11q-18 -12 -51 -45 q-34 -31 -62 -45l-6 -7q-63 -57 -166 -112q-31 -17 -61 -30q-20 -9 -88 -2zM365 580l12 6q6 6 21.5 17t23.5 18l10 8q10 8 14 11t15 13t17.5 16.5t18 18.5t20.5 23.5t20.5 27t21.5 31.5q17 27 28 51t16.5 51t7.5 39.5t4 46t3 41.5v11q0 4 -2 6q-2 8 -8 11t-12 -1 q-14 -10 -16 -12q-10 -5 -13 -6q-7 -2 -16 -15q-13 -10 -27 -28q-30 -26 -41 -62q-1 -3 -5 -7.5t-5 -6.5q-9 -9 -16 -27q-18 -35 -21 -47q-16 -47 -20 -70q-40 -120 -56 -149v-8v-6q0 -2 5 -2z" />
<glyph unicode="f" horiz-adv-x="716" d="M156 -528q-19 0 -31 12q-5 6 -19 10q-1 1 -6.5 5t-7.5 7q-4 6 -9 11.5t-12.5 11.5t-11.5 10l-6 4q-6 6 -6 13q-7 31 -24 51q-13 26 -13 37q0 10 -8 26q-2 7 -29 68v10q0 10 -3.5 28.5t-4.5 24.5l-2 15q3 12 -4 22q-8 19 -12 62q0 9 -1 27.5t-1 27.5q-3 18 0 37q2 10 2 31 q4 46 8 73q1 13 2 39t2 39q0 9 4 29q3 25 10 59q2 21 15 60l6 18q12 68 22 102l13 33q0 1 1.5 6.5t0.5 7.5q-3 10 4 17q6 3 6 10q8 20 12 41q3 15 17 57q5 12 16.5 70.5t15.5 63.5l7 8q8 18 29 86t24 76q1 3 12.5 26t23 42t21.5 30q7 7 40.5 52.5t41.5 57.5q10 14 29.5 44 t29.5 44q23 38 74 89q21 24 58 53l47 43q9 8 27.5 24.5t27.5 24.5q6 4 22.5 18t26.5 21q18 15 37 20q3 1 10.5 6t11.5 5l21 -7q4 0 12.5 -1t12.5 -1q30 3 55 -12q12 -8 14 -16q1 -4 10 -17q14 -18 9 -37q-3 -12 0 -24q3 -13 0 -25q-2 -8 -2 -22q-1 -5 -2.5 -16t-2.5 -17 q-2 -15 -20 -70q-1 -2 -25 -63q-3 -6 -14 -39q-4 -12 -8 -18q-2 -6 -8.5 -17.5t-8.5 -17.5q-1 -6 -10 -23q-29 -41 -37 -67l-8 -15q-10 -16 -30.5 -47t-28.5 -43q-28 -39 -33 -45q-10 -14 -12 -16q-10 -8 -29 -37q-23 -36 -55 -68q-16 -16 -19 -22q-7 -14 -26 -29 q-27 -16 -51 -47q-10 -19 -29 -29q-6 -6 0 -12q30 -22 53 -27l31 -6q3 -1 27.5 -6.5t47 -10t27.5 -3.5q29 4 68 -2q37 5 88 24t67 29q11 8 39 27.5t43 33.5l13 15q33 38 43 47q8 4 12 4q21 3 39 -6q0 -2 2 -2q3 -2 4 -7t-2 -8q-6 -12 -14 -20q-1 -2 -11 -12q-25 -35 -86 -88 l-12 -11q-25 -9 -47 -22q-19 -8 -56 -22.5t-42 -16.5q-1 0 -23 -7.5t-44.5 -12.5t-35.5 -1l-56 7q-55 8 -87 18q-2 1 -5.5 -0.5t-4.5 -1.5q-9 0 -6 -10l6 -11q2 -2 24 -53q8 -21 23 -63q4 -11 8 -33q5 -32 10 -45q4 -13 2 -19l17 -161q0 -56 -7 -119v-14q0 -44 -2 -64 q0 -1 -6 -37q-2 -6 -5 -19.5t-5 -19.5q-2 -5 -5 -15t-5 -15q-12 -36 -21 -54q0 -8 -2 -10q-6 -27 -18 -51l-25 -49q-4 -13 -12 -21q-16 -16 -33 -43q-8 -14 -37 -35q-4 -4 -12 -8q-10 -5 -26 -18t-23 -17q-28 -19 -64 -32q-4 -2 -8 -2q-22 -4 -67 0zM322 641q3 -3 6 0 q3 2 8 7t8 7q50 43 80 78q1 1 16 19.5t21 29.5q58 83 67 99q2 5 9 12.5t8 9.5q6 10 14 21t17 23.5t14 19.5q20 34 57 88l45 75q6 9 19 35q3 9 10.5 29.5t11.5 30.5q4 4 8 16q7 17 25 72q7 26 10 47q2 16 2 51v39q-1 3 -2 8.5t-2 7.5q0 4 -4 4q-6 3 -12 3q-18 4 -27 -9 l-22 -18q-6 -6 -11 -6q-10 -2 -18 -15l-12 -12q-11 -8 -17 -20q-4 -6 -15.5 -26t-19.5 -30q0 -1 -1 -3t-1 -3q-17 -33 -32 -67q-2 -6 -25 -52q-5 -11 -17.5 -31t-17.5 -32q-15 -22 -22 -39l-13 -20q-12 -20 -14 -31l-12 -27q-35 -63 -45 -102l-6 -19q-5 -12 -13.5 -35 t-13.5 -34q-3 -9 -25 -76q-5 -19 -22 -68q-10 -21 -17 -55q1 -2 3 -2zM291 -401q20 -10 35 2q21 11 34 26q22 29 33 54q4 12 24.5 59t26.5 74q3 6 5 8q13 42 16 74q4 30 8 43q11 49 8 104q0 45 2 70q2 8 2 24v19q0 15 -4 43q-5 39 -10 49q-2 6 -4 16t-2 12q-5 34 -6 37 q-12 27 -19 58l-8 20q-8 21 -10 29q-9 21 -21 39l-18 26q-10 15 -16 21q-8 6 -45 43q-5 0 -5 2q-6 5 -14.5 2t-9.5 -10q-12 -36 -12 -56q0 -1 -1 -3.5t-1 -4.5q-8 -19 -15 -43q-6 -20 -14 -57q-18 -55 -21 -78q0 -2 -4 -14q-1 -7 -5 -24.5t-5 -26.5q-3 -15 -5 -32t-4 -37.5 t-3 -31.5q-3 -19 -4.5 -53.5t-3.5 -48.5q-2 -20 -2 -60q2 -14 3 -43.5t3 -44.5q2 -27 10 -86q1 -6 4 -21t4 -24q5 -34 10 -43v-4q2 -16 15 -51q7 -23 37 -49q4 -4 12 -8z" />
<glyph unicode="g" horiz-adv-x="815" d="M217 -733q-46 9 -57 14q-24 12 -33 21q-34 27 -47 63q-17 43 -17 82l7 51q2 34 16 80q2 5 7 15.5t7 15.5l15 33q1 3 3 7l3.5 7t3.5 6q10 20 51 82l21 27l24 30q3 5 23 25l22 24l15 15q12 10 33.5 29.5t23.5 21.5q3 2 7 5q13 10 14 17q0 1 1 4q1 7 2 13q6 17 9 37 q5 23 8 33q3 18 10 54t10 54q5 24 9 57v17q0 4 -5 4q-4 0 -4 6v6l-2 2l-4 -2q-18 -15 -49 -22q-10 -3 -27 -11q-4 -4 -16 -8q-41 -12 -82 -6q-23 2 -63 14q-32 13 -64 41q-7 7 -16 29q0 1 -2 6.5t-4 7.5q-25 45 -33 54q-4 0 -4 4q0 6 -9 50.5t-12 53.5q-2 2 -2 6q2 10 -2 29 q-2 12 -2 37q-1 7 -1 22t-1 23q0 9 1 27.5t1 27.5t4 25q5 32 8 39v4q0 2 11 41q0 4 4 4q3 0 4 2.5t-2 5.5q-2 2 -2 6l4 10q0 1 1 3.5t1 3.5q6 6 8 10q1 2 1 6.5t1 5.5q4 7 8 21v4q3 3 10 14.5t13 17.5q1 0 2 2t2 3q2 6 10 18l12 18q12 16 19 23q0 4 2 4q7 5 18 18t13 15 q7 8 20.5 25.5t20.5 25.5l8 8q6 6 8 10t5 8t8.5 8.5t7.5 6.5h4q3 0 18 10q3 3 10 9.5t13 12.5t10 11q2 0 6 4q18 13 47 31q2 1 16 10q15 10 19 10q9 3 14 11q2 4 8 4q5 0 13 4q36 13 49 20q12 4 14 10h2l8 -8q8 -8 17 -6h10q1 -1 3 -2t3 -2q6 -6 12 -8q1 0 13 -6 q18 -21 45 -41q2 -2 2 -8q-4 -16 -4 -27q0 -8 -6 -8q-10 -3 -13 -13q-12 -16 -24 -20l-13 -8q-2 -4 -8 -10q-17 -13 -20 -19q0 -4 -4 -4q-12 -8 -13 -12l-6 -6q-6 -2 -18.5 -10.5t-20.5 -10.5q-4 -2 -8 -6q-10 -15 -39 -35q-8 -4 -22 -18q-31 -36 -37 -47l-10 -13 q-17 -17 -29 -35q-12 -16 -16 -24l-7 -6q-3 -6 -10 -18.5t-10 -18.5q-18 -33 -25 -53q-5 -18 -16 -45q0 -1 -3 -9.5t-3 -13.5v-6q-6 -12 -6 -41v-8q0 -36 2 -43v-19q-3 -9 0 -18q2 -16 10 -57q1 -7 6 -20t6 -15q18 -37 19 -39q0 -1 1 -3t1 -3q30 -35 37 -41q3 -2 8 -7.5 t8 -7.5q16 -10 33 -4q9 2 22 11q35 27 52 63l18 39q3 10 10.5 28t9.5 23q10 31 11 35l6 14q1 3 3 8.5t3 8.5q0 6 4 14q2 4 14 33q1 12 11 45l18 69q0 7 4 15l6 28q1 3 2 8.5t2 8.5q5 21 4 26v9l7 20q3 8 18 53q1 3 2 10t2 11q3 13 17 16q6 0 8 2q11 3 20 0q8 -4 15 -4 q16 -5 20 -8q24 -14 31 -20q5 -2 8 -9q11 -11 8 -28q-3 -7 0 -17q0 -8 2 -12q3 -22 0 -43q-2 -2 -2 -8q0 -8 -1 -24.5t-1 -24.5v-47q0 -15 -8 -43q0 -2 -1 -6.5t-1 -6.5q-4 -20 -4 -30q0 -11 -4 -35q-11 -41 -13 -70v-2q1 -14 -8 -61l-6 -48q-3 -46 -8 -77l-6 -45 q0 -17 2 -23q2 -4 2 -10q-1 -6 -2 -17t-2 -16q-5 -24 -9 -57q0 -22 -6 -43q-8 -40 -14 -60q-4 -16 -4 -24q-1 -7 -4 -20.5t-4 -20.5l-6 -29q-1 -3 -4.5 -12t-4.5 -15q-6 -18 -6 -24v-8q-2 -2 -8 -25q0 -8 -4 -20q-8 -24 -8 -41q0 -1 -2 -8t-4 -11q-2 -2 -2 -6 q-10 -31 -11 -35q-2 -2 -2 -6q-12 -50 -24 -84q-4 -9 -13 -39q-3 -8 -8 -24.5t-8 -24.5q-7 -17 -14 -29q0 -4 -4 -12q-7 -14 -13 -22q-1 -1 -6 -11q-8 -19 -24 -38q-7 -10 -15 -25q-1 -2 -8.5 -8.5t-9.5 -12.5l-8 -8q-2 -1 -5.5 -3t-5.5 -3.5t-4 -3.5q-6 -8 -22 -16 q-12 -6 -15 -9q-24 -12 -36 -14q-8 -2 -29 -10q-24 -4 -35 -2zM174 -647q14 3 19 14l24 37q4 7 8 21q3 27 15 47v2q15 50 18 59q16 60 33 109l4 16q2 8 6 23.5t6 23.5q8 26 15 62l6 43v2h-2q-10 -8 -29 -27t-27 -29l-18 -20q-26 -34 -35 -51q-2 -2 -12 -17q-26 -39 -33 -59 q0 -1 -1 -2t-1 -2q-5 -8 -14 -31q-3 -21 -13 -45v-4q-5 -45 -4 -55v-11q0 -29 4 -41q2 -4 2 -12q2 -22 23 -51q0 -2 6 -2z" />
<glyph unicode="h" horiz-adv-x="956" d="M848 709q11 -36 4 -84q0 -2 -1 -7t-1 -8q0 -12 -2 -18q-4 -13 -8 -35q-4 -20 -17 -59q-12 -36 -16 -54l-25 -75q-2 -9 -5 -19t-7 -22t-6 -19q-6 -17 -25.5 -111t-19.5 -106q-1 -3 -2 -10t-2 -10q-2 -14 -2 -45q-2 -8 -2 -27q-3 -22 0 -43q0 -24 7 -58.5t11 -55t0 -21.5 q-60 -4 -94 10q-25 0 -37 4q-23 6 -68 29q-8 8 -8 14l-2 4q-27 31 -37 47q-16 27 -20 45q0 2 -1 5t-1 4q2 9 -6 24q0 4 -2 6q-2 5 -2 131q0 13 4 33q0 11 7.5 72.5t12.5 77.5q7 23 45 121q9 18 27 63q3 10 10 25l25 53q6 6 6 16q-1 2 4 12l49 84q7 9 14 27q0 4 4 12t5 11 q4 4 8 12q0 6 -4 6q-2 -2 -6 -2l-23 -10q-3 -2 -10.5 -7.5t-10.5 -7.5q-13 -7 -18 -14l-16 -18q-7 -7 -15 -19q-24 -33 -32 -39q-15 -15 -27 -30q-10 -15 -14 -19q-13 -11 -33 -39l-43 -63q-5 -8 -14.5 -21.5t-10.5 -15.5l-16 -29q-21 -34 -27 -51l-14 -25q-4 -8 -6 -10 q-3 -6 -8.5 -18.5t-8.5 -18.5q-11 -22 -16 -37q-4 -16 -8 -24q-18 -31 -31 -80q0 -8 -4 -20q-3 -13 -10 -23q-4 -8 -4 -16q-1 -7 -6.5 -21.5t-6.5 -21.5l-14 -17q-1 -1 -4 -3t-4 -3q-7 -15 -29 -22q-9 -9 -41 -23q-25 -9 -49 0q-6 0 -14 4q-51 25 -60 76l-4 35q-1 2 -2 6 t-2 6q-1 4 -2 13.5t-2 13.5q-3 10 2 18q4 4 0 8q-2 0 -2 4q-4 15 2 23q2 2 2 8v14v5q0 1 -1 3.5t-1 4.5q0 1 1 3t1 3q4 15 0 22q-4 14 6 27q6 7 4 14q1 4 3 13.5t4 16.5t6 13q2 4 2 13q0 14 6 32l6 25q0 6 8 18q1 3 1 10t1 11l6 18q3 10 6.5 30.5t6.5 29.5q5 20 6 22 q0 4 2 6q5 29 10 39q1 3 2 11t2 12l12 41q15 59 17 69q4 21 13.5 62t13.5 61q2 9 5 28t5 28q3 11 10 33t10 34q18 60 19 66q3 13 10 39.5t10 40.5q9 23 10 26q2 4 2 8q-2 9 5 23l4 6q14 45 26 74q13 42 21 57q1 2 2 8t2 9l12 24q20 31 33 47q4 4 6 4q4 1 6 3t4.5 5.5 t3.5 4.5l6 4q19 31 74 61q10 3 17 8l39 25q13 7 43 16q21 4 36 -4q12 -6 25 -6q21 0 39 -6q31 -9 51 -29q22 -22 37 -49q4 -8 4 -12q1 -5 2 -15.5t2 -15.5v-10q-3 -7 -6 -21t-4 -18l-6 -35q-2 -4 -6 -16q-9 -17 -11 -29q-11 -28 -12 -29l-6 -16q-5 -10 -14 -37l-25 -51 q-18 -29 -25 -47q-1 -1 -2 -4t-2 -4q-31 -52 -41 -70q-18 -27 -26 -35l-62 -74q-8 -8 -10 -12q-10 -18 -39 -47q-2 -2 -5.5 -5t-6 -5.5t-4.5 -5.5q-7 -7 -15 -19q-4 -4 -4 -8q-1 -6 -5 -17.5t-5 -15.5l-6 -16q-6 -12 -10 -41q0 -14 -6 -23l-2 -8q0 -8 -9 -26q0 -2 -1 -6 t-1 -5q0 -12 -8 -32q-6 -12 -6 -23q0 -1 -1 -3t-1 -3q-10 -22 -12 -41q-1 -2 -2 -7t-2 -7q-11 -27 -11 -33v-6q-10 -17 -10 -45q-1 -12 -6 -34.5t-6 -31.5l2 -2h2q1 3 4 8t4 8q4 7 13 23.5t14 24.5q12 17 31 49.5t22 36.5q13 27 29 45l32 45q36 45 50 59q41 46 57 66 q2 2 4 2q39 34 76 53l12 6q10 2 27.5 7t23.5 7q14 3 21 -4q14 -11 35 -18q32 -15 75 -53q13 -12 16.5 -18t8.5 -25zM432 963v-5l2 -2h2q6 5 25 33l55 86q32 47 49 86q1 2 9 18.5t10 24.5l30 66q11 22 17 43q15 50 26 78q0 2 1 7.5t1 8.5l-6 20q-3 5 -11.5 8t-14.5 -1 q-2 -2 -25 -13l-24 -12q-1 -1 -4.5 -3t-4.5 -3l-37 -31q-2 0 -6 -4q-8 -8 -10 -14l-6 -21q-14 -32 -21 -43q-4 -8 -4 -12q0 -10 -2.5 -35t-1.5 -39v-6q-9 -30 -12 -61q0 -7 -4 -23l-12 -67q0 -2 -3.5 -11t-3.5 -14l-6 -25q-1 -6 -4 -17t-4 -17zM666 -170q12 -4 39 -4 q-15 0 -21 2q-14 0 -18 2z" />
<glyph unicode="i" horiz-adv-x="563" d="M350 1204l-8 4q-7 1 -25 15q-20 30 -20 43q-8 23 0 61q0 54 12 68q4 6 9.5 11t9.5 6.5t12.5 4t9.5 2.5q14 4 39 -2q4 -4 6 -4q14 -2 37 -14q14 -5 29 -17q20 -13 22 -22q14 -28 9 -39q0 -18 -2.5 -34t-5 -24.5t-7 -18.5t-4.5 -11q-20 -29 -80 -29q-31 -5 -43 0zM180 -8 q-35 4 -49 10q-16 3 -39 16q-10 5 -24 19q-14 7 -25 29l-12 20q-13 26 -13 45q0 15 -6 27q-1 3 -2 9t-2 9v4q-8 12 -8 21v18l2 17v18q-3 14 0 29l2 24q0 17 2 25q4 34 8 51l11 68l6 22l4 23q2 9 7.5 31.5t8.5 33.5q9 48 31 111l4 10l2 10l16 51l7 19q5 11 14 41l12 28 q11 26 19 56l6 16l6 29q2 10 10 35l4 12q0 4 4 12v4q0 12 13 25l6 10l4 6l4 4q-4 8 2 17q8 8 16 8q9 0 11 -2q17 -3 30 -8l7 -2l14 -6l4 -3q35 -22 49 -34q13 -13 19 -23l6 -6q10 -10 14 -33v-4q2 -2 2 -8v-4v-14v-37q0 -16 -6 -37q0 -3 -1 -8t-1 -7q-1 -7 -10 -43l-7 -12 l-6 -24q-5 -14 -8 -19q-2 -2 -2 -4l-4 -14q-3 -5 -8 -19l-4 -6q-1 -4 -4 -12t-4 -12q0 -1 -1.5 -4t-1.5 -5v-2q-1 -1 -2 -4.5t-2 -5.5q-1 -1 -12 -35q0 -12 -10 -20q0 -1 -1 -3.5t-1 -4.5t-1 -8t-1 -9l-2 -2q0 -6 -2 -10q-1 -4 -4.5 -16t-4.5 -19q-4 -18 -6 -20 q-2 -7 -5 -20t-5 -19v-8q-1 -2 -2 -6.5t-2 -6.5l-4 -16l-4 -29q-2 -4 -2 -12v-2q-1 -1 -2 -4.5t-2 -5.5q-2 -4 -2 -13q-2 -4 -2 -10q-2 -2 -2 -8q-1 -2 -2.5 -6t-2.5 -6q0 -2 -1 -5.5t-1 -5.5l-2 -8q0 -6 -2 -8q0 -8 -4 -16q0 -3 -1 -9.5t-1 -9.5q0 -19 -2 -29v-2 q4 -16 4 -26l2 -15l2 -8q0 -4 4 -16l4 -16q3 -3 3 -7l6 -14v-2l4 -10q14 5 33 16l20 14l8 7q2 0 54 49.5t55 56.5q6 9 12 21l29 43l26 41q10 15 11 18l6 10q2 4 61.5 78t61.5 78l26 47l23 43q4 9 16 25t17 28l2 4q4 12 4 15q0 10 6 16l2 2q8 8 12 14q3 2 9 10t8 9l2 2 q8 4 14 4h16q15 -3 19 -10q7 -7 2 -21l-6 -18l-2 -2l-2 -6l-3 -2q-4 -7 -12 -23.5t-12 -23.5q-6 -15 -23 -44q-2 -6 -10 -18v-2q-4 -4 -4 -8q-6 -15 -18 -33q-2 -5 -63 -82.5t-64 -83.5q-13 -27 -29 -45q-6 -8 -14 -24l-7 -9q-7 -18 -20 -28q0 -2 -2 -4l-18 -25 q-1 0 -2.5 -1t-2.5 -1l-8 -12l-6 -6q-9 -9 -20 -31l-101 -101q-15 -17 -39 -38l-6 -7q-26 -21 -35 -26q-14 -14 -26 -21q-1 0 -2 -1t-2 -1q-21 -14 -56 -18h-6z" />
<glyph unicode="j" horiz-adv-x="569" d="M385 1020q-2 2 -4.5 3.5t-3.5 2.5q-10 2 -29 16q-22 44 -22 50q-8 21 0 69q0 62 14 78q3 7 7.5 11.5t10 7.5t9.5 4.5t10 3t8 2.5q24 5 47 -4q0 -4 6 -4q7 -1 23 -8t20 -9q3 -1 31 -18q21 -15 27 -27q6 -10 8.5 -26t-0.5 -19q0 -46 -23 -100q-19 -31 -90 -31 q-31 -9 -49 -2zM-109 -739q-27 -3 -53 10q-31 15 -49 31l-16 16q-4 8 -9 8q-8 8 -8 15l-6 22q-2 6 -5 20.5t-5 20.5q0 2 -1 5.5t-1 4.5q0 7 -2 21t-2 20q0 41 6 82q0 2 1 6t1 6q5 9 2 15q0 21 12 39q12 24 47 78q7 12 29 43l33 43q16 20 22 32q9 16 25 25q17 13 55 47 q12 9 33 20q14 9 53 31q11 7 13 17q0 8 4 24l6 39q0 4 4 12q9 12 6 25v4q2 7 3.5 25.5t4.5 27.5q1 6 4 15l4 12q5 15 2 37q0 6 2 8q1 2 7 8q4 8 4 12v15q-3 16 4 26q2 2 2 9q4 11 8 41q0 16 6 34q0 5 4 13v6q19 91 25 114l6 27q1 7 4 18t4 15q0 8 -2 12q5 26 4 33q-3 3 0 6 q1 2 4.5 11.5t6.5 13.5q-5 0 -5 6q0 1 17 65q6 48 11 75.5t18 63.5t32 62q14 18 62 -14l20 -6q2 0 5 -1.5t5 -1.5q4 -8 9 -8q1 -1 5 -2t5 -2q18 -9 33 -24q0 -11 12 -23q6 -6 14 -18q11 -11 17 -23q14 -16 14 -47q-5 -36 -4 -43v-2q-3 -9 -5 -30t-5 -31q0 -7 -2 -9 q-5 -15 -5 -39q-1 -5 -2 -15t-2 -15q-3 -8 -7 -24.5t-7 -24.5q-4 -13 -8 -35q0 -2 -1 -6.5t-1 -6.5l-25 -84q-1 -5 -4 -14t-4 -14q-6 -32 -18 -58q-2 -6 -5.5 -18t-5.5 -18q0 -13 -4 -17q-3 -5 -8 -30q-1 -7 -2 -22t-2 -22q0 -4 -6 -34q-8 -25 -10 -35q-10 -36 -15 -68 q0 -15 -8 -43q-1 -3 -1.5 -7.5t-1.5 -8.5t-3 -8v-19q6 -24 0 -45q-2 -7 -5 -21.5t-5 -21.5l-13 -53q-11 -48 -22 -72q-5 -20 -8 -26q-3 -8 -17 -31q-18 -35 -30 -72q-18 -55 -37 -90q-2 -2 -5.5 -7t-5.5 -7q-20 -20 -34 -51q-8 -16 -29 -41q-13 -16 -29 -29q-15 -12 -30 -27 q-16 -12 -27 -12q-10 0 -16 -6q-23 -10 -48 -10h-43zM-127 -510q12 0 16 4q3 3 6.5 5.5t8.5 6t8 5.5q3 1 16 14q18 24 33 51q1 3 4 9t4 9q9 33 15 46q3 8 24 73l19 72q1 2 2 6.5t2 7.5h-2l-2 2q-32 -24 -47 -39q-1 0 -3 -3q-1 -2 -2 -3q-37 -47 -53 -65q-37 -47 -47 -68 q0 -1 -1 -2t-1 -2q-17 -25 -33 -74q-7 -30 15 -49h4q8 -8 14 -6z" />
<glyph unicode="k" horiz-adv-x="819" d="M829 1577q3 -10 -2 -45q-2 -10 -8 -29.5t-8 -29.5l-18 -52l-19 -39q-2 -6 -8 -18t-8 -18q-1 -6 -13 -23q-7 -8 -30 -45q0 -4 -4 -8q-10 -15 -21 -37q-15 -20 -20 -23q-2 -1 -6 -6t-5 -6q-2 -3 -7 -10t-9.5 -12t-9.5 -9q-4 -7 -16.5 -20.5t-16.5 -20.5q-9 -11 -20 -20 q-10 -6 -17 -21q-1 -5 -16 -20q-5 -3 -12.5 -12.5t-10.5 -12.5q-2 -4 -12 -14q-12 -6 -20 -14q-9 -9 -21 -17q-4 -2 -8 -6t-11.5 -13t-11.5 -13q-10 -10 -12 -11q-7 -5 -10 -14q0 -10 -2 -14t-5 -13.5t-5 -13.5l-19 -37l-8 -12q-12 -24 -12 -27l-2 -8q-11 -11 -15 -37 q4 2 6.5 4.5t5 6t3.5 4.5l41 49q25 28 61 53q23 15 35 25q34 25 47 32q8 4 14 4l15 7q13 7 24 4h14q2 -1 11 -1t14 -3q15 -5 21 -9q12 -6 20 -14l31 -29q8 -8 10 -14q18 -46 25 -76q4 -16 4 -51q0 -2 -2 -7t-2 -7q-8 -15 -5 -25q0 -1 -1 -3t-1 -3q-1 -3 -4 -8t-4 -6 q-11 -34 -41 -64q-15 -18 -24 -39q-1 -1 -5 -6t-6 -6q-1 -2 -6.5 -10t-10 -11.5t-9.5 -5.5l-4 -6q-9 -12 -23 -26l-8 -13q-8 -10 -52.5 -34.5t-58.5 -30.5q-19 -12 -53 -27q-22 -11 -37 -16q-1 0 -3 -1t-3 -1q-4 -2 -4 -9q3 -3 23 -28q5 -5 2 -10q-3 -8 2 -13l10 -12 q6 -3 6 -12q0 -11 12 -23q11 -11 13 -18q2 -4 5 -13.5t5 -13.5q7 -13 10 -27l6 -14q0 -4 8 -4q7 0 11 -4q2 -6 8 -15l8 -12q12 -20 18 -26q9 -9 17 -29q4 -9 8 -10q12 -9 16 -31q0 -3 1 -9t1 -9q0 -8 9 -21q4 -8 6 -10q12 -19 8 -51q0 -3 -6 -15q-4 0 -6 -2q-3 -9 -11 -14 l-12 -8q-4 -2 -12 -2h-2l-37 22q-18 9 -29 27q-18 27 -22 35l-19 30q-8 15 -18 23q-5 5 -8 14q0 7 -8 19q-11 7 -11 18q0 6 -4 10q-1 2 -26 58q-3 9 -9 18q-6 6 -6 12q-3 10 -8 17q-6 6 -6 16q0 15 -12 31q-18 33 -33 55l-14 19q0 2 -5 2q-2 0 -2 -2q-9 -30 -12 -64 q0 -8 2 -12q2 -8 2 -21q-5 -31 -2 -69v-19q-4 -6 -4 -22v-31q0 -8 -4 -12q-9 -18 -16 -39q0 -2 -1 -4.5t-1 -3.5l-19 -21l-31 -30q-19 -14 -26 -17q-12 -6 -13 -6l-12 -6h-39h-2q-5 0 -8 6q0 3 -2 4.5t-4 -0.5q-4 0 -9 1t-11 2.5t-9 2.5q-2 2 -6 2q-8 1 -13.5 3.5t-8 4.5 t-6.5 7t-7 8t0 6q10 8 6 27q-3 10 -7 29.5t-5 23.5v2q-4 44 -2 63v76q6 67 6 68q2 2 0 4q-1 3 0 10t0 10q0 2 -3.5 6.5t-2.5 6.5l8 12q3 10 0 20q-5 11 -2 21q1 1 2 4t2 4l6 27q0 6 5 26v2q-3 3 -3 6l7 19q4 9 2 16q-3 10 6 15v-7q7 4 0 7q0 14 4 20q4 4 8 12q14 54 14 68 q0 1 5 16q6 24 6 25q4 18 8 29q2 2 2 8q0 1 6 37q5 11 8 32q2 6 5 20.5t5 20.5q15 57 17 70q2 2 2 4q9 31 14 43l2 2q0 1 7.5 18t7.5 19q4 8 11 29t7 24q2 4 2 6l2 2v3l6 14v4l2 4l2 2q19 43 19 45q0 6 6 12l18 39q4 9 29 54l6 12q0 4 2 6q7 10 15.5 31.5t11.5 27.5 q20 36 31 58l4 4q1 7 18 35l6 8q3 10 23 35q12 14 26 39q7 7 13 16q1 1 10.5 15t22 31t18.5 24q2 4 6 8q0 4 2 6q5 4 10.5 9.5t11.5 12t9 9.5q15 15 41 30q5 2 16 13q14 11 31 18l8 4q32 15 42.5 17t47.5 4q9 0 13 -2q29 -8 45 -6q3 2 12 -3q32 -19 33 -20q9 -9 16 -23 q11 -22 18 -63zM737 1532q0 1 6 35q0 3 -2.5 5t-3.5 1q-23 -10 -39 -23q-28 -25 -43 -47l-34 -47q-15 -23 -23 -41q-4 -8 -8 -12q-6 -8 -16.5 -26t-12.5 -21q-7 -6 -10 -17q-5 -10 -16.5 -29.5t-16.5 -29.5q-8 -12 -6 -20q0 -1 -6 -19l-14 -33q-2 -19 -21 -41q-6 -4 -10 -16 q-3 -12 -12 -21l-9 -12q-16 -29 -16 -61l8 16q3 3 6 2l6 2l25 25q4 6 14 16q43 37 68 74l20 25q21 21 41 51q14 24 21 28q2 0 2 2l14 21l13 20q4 7 11 22.5t11 22.5q28 54 41 97zM365 664q-13 -22 -17 -27q-4 -8 -11.5 -22.5t-8.5 -16.5q-3 -10 -11.5 -28t-11.5 -25 q12 2 31 10q57 27 76 33q9 3 14 8q2 1 5 4t6 5t7 3q7 7 7 8q7 15 20 21q21 17 55 65l4 5v10q-5 7 2 14q12 20 27 49q13 25 10 49q0 10 -6 19q-4 4 -6 8q-12 12 -29 4q-4 -2 -12 -10q-3 -1 -9 -5t-7 -5q-12 -8 -17 -13l-30 -36q-28 -32 -33 -43l-8 -13l-15 -18l-18 -27 q-10 -20 -14 -26z" />
<glyph unicode="l" horiz-adv-x="552" d="M236 -102q-6 1 -18 2t-17 2q-57 14 -88 45q-40 35 -72 84q-4 4 -4 8l-12 33q-18 44 -13 75v7q0 2 -2 0q-4 0 -6 2q-6 42 -6 43v16q0 10 4 16q2 4 2 13l-2 20q0 2 1 5t1 5q0 1 2.5 4.5t1.5 6.5q-4 -1 -5 1t-1 7q-2 3 -2 16.5t2 16.5q4 38 8 57q2 4 2 12q0 21 4 31l7 45 q0 4 -3 10v15q1 2 2 5t2 5t1 4l2 4q0 9 10 49v8q0 1 1 2t1 2q1 1 3.5 4t2.5 5t-1 4.5t-1 3.5q1 3 2 9t2 9l8 33q0 9 8 14q1 1 0.5 3t-2.5 2q-2 2 -2 6q0 1 1 2t1 2q16 8 7 20q0 16 10 29q0 2 6 8l2 8q-4 7 4 15t8 14q0 2 -4 2q0 -2 -2 -2q1 1 1 3t1 3q9 30 17 45q2 2 2 8 q0 1 1 2t1 2q4 0 6 2t3 6t1 5q2 4 2 12l-2 4q0 6 2 6q6 4 10 17q0 2 4 6q2 2 2 6q2 4 -4 4q0 6 4 8q6 6 4 13q-3 0 3 6q11 17 12 20q0 2 1 4.5t1 3.5q0 5 4 9l6 8q7 16 14 41q7 20 21 47l6 8q4 16 8 22q1 3 5 9t5 10l19 39l12 20q2 4 10 17.5t11 21.5q7 14 8 15q12 20 16 32 v2q5 8 12 22t11 19l4 6q46 66 86 109q18 18 20 29q3 6 9 6t18 4q8 4 14 2h49h9q8 0 10 2q8 2 22 2l29 -6q21 -9 31 -29q8 -21 6 -33q-2 -4 -2 -10q1 -8 -0.5 -21.5t-1.5 -17.5q0 -1 -3 -17t-3 -24t-4 -20q-1 -4 -6.5 -24t-6.5 -31q-2 -5 -5 -16t-5 -17q-9 -18 -16 -39 q-4 -11 -8 -29q-8 -32 -27 -63q-4 -7 -10.5 -22.5t-10.5 -22.5q-2 -3 -5 -11.5t-5 -11.5q-11 -21 -26 -57l-5 -10q-4 -5 -10.5 -17.5t-9.5 -17.5q-10 -20 -20 -35v-2q-8 -10 -23 -33t-23 -33q-6 -8 -18 -28q-2 -3 -24 -48.5t-29 -54.5q-10 -14 -25 -40t-25 -46t-10 -22 l-6 -13l-6 -12q0 -6 -3 -18t-3 -15q0 -8 -4 -28v-8q0 -6 1 -47.5t1.5 -72t-0.5 -52.5v-13v-18q4 -10 4 -31v-18q4 -11 8 -37q0 -18 8 -31q0 -2 4 -10q2 -12 21 -41q6 -10 25 -29q9 -6 18 -4q38 5 45 14q40 48 81.5 114.5t70.5 119.5t32 57q16 24 56 94q4 8 19.5 32t21.5 38 l24 53q6 14 29 49t29 54q0 1 1 2t1 2q15 28 35 25q19 -2 13 -28q0 -2 -1 -5q-10 -38 -78 -156q-2 -2 -23 -45q-24 -64 -49 -109q0 -2 -4 -6q-5 -8 -54 -102.5t-57 -104.5l-2 -4q-4 -8 -12 -20q-50 -75 -88 -113l-8 -8q-14 -10 -21 -20q-16 -19 -43 -39q-35 -22 -51 -29 q-32 -14 -71 -14zM276 668q3 0 3 2q32 53 71.5 110t48.5 72q7 13 23.5 40t27 46t19.5 41q3 8 10 24.5t10 24.5q17 33 21 55q6 27 18 54q10 25 11 30l12 35q19 64 20 80q0 7 4 27q3 18 3 37q0 8 -3 14q0 8 -12 16q-9 4 -12 -2q-2 -2 -10.5 -12t-12.5 -16q-25 -40 -30 -50 q0 -2 -4 -6l-19 -33l-6 -16q-5 -8 -12.5 -27.5t-12.5 -27.5l-12 -33q-15 -31 -16 -35q0 -2 -2 -4q-1 -2 -9 -17.5t-12 -23.5q-12 -24 -12 -39q2 -2 -2 -10l-12 -33q-14 -32 -15 -43q0 -12 -6 -24q0 -1 -1 -4t-1 -5q-2 -14 -16 -47q-4 -17 -2 -22q-2 -4 -2 -6q-4 -8 -9 -13 l-6 -14q0 -4 -1 -12.5t-1 -12.5q-2 -4 -2 -10q-2 -4 -12 -33q-2 -9 -2 -14.5t-2 -15.5q-4 -18 -8 -29l-7 -14q0 -4 2 -4z" />
<glyph unicode="m" horiz-adv-x="1177" d="M53 -158q-32 5 -63 33q-2 4 0 4h4q1 0 3 -1.5t3 -0.5q0 2 -4 6q-10 13 -10 27q-1 7 -11 31q0 1 -1 3t-1 3q-4 4 -4 6l2 2q0 3 6 90q0 3 1.5 7.5t1.5 6.5q2 3 2 17q-6 14 2 33q1 1 6 28q1 5 2 16.5t2 16.5q6 42 6 43t1 4.5t1 5.5q4 9 8 35q2 9 5 27.5t5 27.5q4 15 13 72 q1 4 2 12.5t2 12.5q2 13 7 34t7 29q6 39 17 70q11 44 14 53q2 10 10 35q1 2 29 102q0 2 1 5.5t1 4.5q26 71 35 117q7 20 14 53q0 2 1 6.5t1 6.5q3 16 -4 26q-3 4 -1.5 9.5t7.5 5.5q2 2 4 2q11 0 31 4q4 2 10 2q25 -4 35 -10l23 -11q28 -14 55 -41q10 -10 31.5 -29.5 t31.5 -29.5q8 -4 11 -10l10 -13q21 -18 14 -49q-2 -5 -5 -17t-5 -17q-6 -18 -10 -54q-1 -6 -4.5 -17t-4.5 -15q0 -2 -1 -6.5t-1 -6.5t-6 -20l-12 -39v-2h2q4 4 6 8q8 11 19 29q11 13 20 32q1 2 29 41q6 7 17.5 22.5t17.5 22.5q29 33 47 45q3 2 8 11q3 8 8 16q9 15 25 12 q16 -4 24 -4h4q2 0 8.5 1.5t8.5 0.5q3 -2 16 -6.5t19 -9.5l28 -18q13 -6 25 -31q0 -9 3.5 -25.5t4.5 -23.5q0 -18 -4 -54q-2 -4 -2 -12q0 -17 -8 -49v-2q-4 -6 -6 -14t-4 -19t-3 -16l-4 -16t-4 -19q0 -4 -4 -8q-8 -20 -8 -33q0 -6 -4 -14q0 -2 2 -2l2 4q9 16 20 45 q6 18 15 39q8 20 14 30q17 32 57 103q11 22 21 37q8 16 14 24q6 13 17 27q8 14 22 31q3 5 12 10q6 5 18.5 12t16.5 10q10 7 27 4l35 -12q2 0 10 -4q28 -11 41 -43q12 -27 18 -57v-19q0 -27 6 -51q4 -24 4 -37q4 -22 3 -28v-9q2 -6 2 -20q2 -18 2 -53q0 -3 1 -8.5t1 -8.5v-8 q-1 -4 -1 -10t0.5 -13t0.5 -10q-2 -2 -2 -8q1 -8 -4 -47q-5 -20 -7 -23l-2 -2q0 -7 -4 -20t-4 -19q0 -8 -2 -12q-2 -6 -12 -55q-2 -12 -10 -45q0 -2 -1 -6.5t-1 -7.5v-5q-7 -16 -11 -61q0 -9 -4 -21t-4 -36v-13q-3 -11 0 -20q2 -5 -2 -17q-4 -16 -4 -24t-2 -10q0 -2 -1 -6.5 t-1 -6.5q0 -4 4 -4t6 2l12 9l7 8q6 9 17.5 25t20.5 29t15 26q4 6 12.5 19t11.5 19q6 9 74.5 143.5t71.5 139.5q7 13 20.5 40.5t20.5 41.5q5 10 20 35q13 26 19 35l16 49q1 1 20 33q2 5 8.5 32.5t14.5 36.5q6 3 13 3t19.5 -2.5t16.5 -2.5q10 0 6 -8q0 -4 -4 -8q-5 -8 -14 -31 q-6 -24 -31 -65q-8 -13 -18 -37q0 -2 -2 -4q-9 -14 -11 -21l-10 -22q-2 0 -2 -2q-5 -22 -20 -52q-10 -17 -21 -47l-12 -24l-10 -17q-10 -10 -13 -22q-5 -14 -8 -17q-4 -4 -4 -8q-2 -5 -137 -272q-1 -2 -11 -16.5t-12 -22.5l-6 -12q-6 -9 -19.5 -27t-19.5 -27q-1 0 -2 -1 t-2 -1q-4 -5 -13 -14t-13 -14q-3 -3 -6.5 -5.5t-8.5 -6t-8 -5.5q-8 -6 -49 -24q-18 -9 -39 -9q-29 0 -53 9q-25 7 -51 30q-24 21 -39 45q-15 30 -17 35q-8 21 -10 29q-6 12 0 24q4 8 2 11q0 19 -8 32q-4 7 0 15q6 8 6 24q0 8 1 26t1 26q4 41 8 63q4 44 8 62q1 4 23 90 q6 25 22 71l19 60q5 20 8 26l25 62l12 35l25 65q15 47 22 76q0 1 -1 2t-1 2l-8 -8q-12 -6 -15 -17l-4 -6q-4 -2 -7.5 -10.5t-4.5 -9.5t-2 -4t-2 -4l-23 -41q-2 0 -2 -2q-25 -51 -30 -64q-1 -1 -2 -4t-2.5 -6t-3.5 -6q-20 -29 -25 -47q0 -2 -1 -6.5t-1 -6.5q-3 -18 -14 -32 q0 -2 -2 -2q-2 -5 -9.5 -12.5t-9.5 -12.5q-4 -22 -8 -29q-2 -10 -10 -30q-6 -32 -21 -58q-4 -4 -4 -10q-1 -5 -4 -15.5t-4 -15.5l-2 -8q-12 -24 -17 -39q-11 -22 -16 -37q-2 -2 -2 -4q-4 -12 -10 -16q-1 0 -2 -3q-1 -2 -2 -3q0 -7 -4 -9q-2 -1 -5.5 -3t-6 -3t-5.5 0 q-9 3 -16 -2h-6q-17 0 -25 -2q-16 0 -22 2q-8 4 -13 4q-23 8 -37 35q-14 36 -20 74q0 5 -3 38t-3 50q0 43 6 84v12q3 41 12 78q3 7 8 35q2 10 4.5 20.5t6.5 23.5t6 21q1 1 12 41v7l-2 2l-2 -2q-4 -4 -4 -9q-4 -4 -12 -16q-3 -5 -21 -29q-12 -14 -26 -39q-2 -4 -29 -53 q-8 -8 -17 -31l-24 -51q-5 -12 -23 -49q-2 -5 -8 -27q0 -6 -4 -18q0 -6 -6 -12q-20 -33 -29 -70l-6 -27q0 -2 -1 -6t-1 -6q-7 -14 -14 -35l-6 -18q0 -6 -5 -16q-8 -23 -10 -37v-4q-3 -6 -8 -31t-4 -31q-3 -11 -8 -45l-2 -8q-10 -17 -13 -33v-4q-6 -6 -6 -16v-11q0 -2 -4 -6 q-8 0 -8 -8q0 -6 -4 -6q-5 -5 -10 -19q-3 -6 -4 -6q-5 -4 -11.5 -14.5t-11.5 -13.5q-4 -4 -4 -9q-4 -8 -8 -10l-23 -12q-6 0 -14 -4q-4 0 -4 -4q-3 -8 -13 -8l-20 -7q-12 -7 -33 -4z" />
<glyph unicode="n" horiz-adv-x="921" d="M150 -63q-44 5 -52 4q-2 0 -26 6q-1 1 -6 4.5t-7 7.5q0 1 -1 3t-1 3q-2 2 -8.5 12t-9.5 13q-3 16 -10 33q-2 2 -2 6q0 10 -4 30q-4 6 -11 30.5t-6 35.5v68q1 6 1 17t1 17q0 11 4 31q3 53 11 92q5 16 10 62v16l6 18q1 9 4 27t4 27q0 1 4 25t8 36q0 10 -2 14q-2 5 2 9 q2 4 7 24q1 9 4 27t4 27v2q-1 16 12 67q0 3 8 40.5t10 57.5q2 7 7 35l6 37l12 76q1 3 1 9.5t1 10.5q0 12 -8 17q-10 0 -2 8q20 18 57 14q4 0 12.5 -2t12.5 -2q15 -4 41 -16.5t32 -14.5l3 -2q19 -9 24.5 -14.5t15.5 -23.5q14 -29 17 -52q0 -3 1 -8.5t1 -7.5q1 -3 2.5 -6l3 -6 t2.5 -4q8 -16 8 -41q5 -43 2 -56q0 -4 1 -11t1 -11v-2h2q2 2 12.5 18t16.5 23q12 20 19 34q23 44 73 91l2 4q12 12 28 23.5t24.5 16.5t34 19t28.5 16t23 7q33 6 67 -9q44 -21 78 -55l16 -17q17 -17 23 -28l6 -18q4 -7 8 -21.5t4 -15.5q1 -5 2 -15t2 -14q-3 -11 0 -20 q8 -31 2 -66q-10 -58 -10 -67q-1 -9 -5 -27t-5 -27q-1 -1 -2 -4.5t-2 -5.5l-6 -27q2 -10 -6 -26l-7 -19q0 -6 -2 -8q-8 -16 -8 -41q-8 -36 -8 -51q-1 -5 -2.5 -14t-3.5 -16.5t-6 -12.5q0 -5 -6 -35q2 -9 -5 -20q-4 -8 -4 -11q2 -15 15 -41q14 -21 18 -26q10 -13 23 -21 q10 -10 22 -4q22 8 43 29q5 7 14.5 17.5t12.5 13.5q19 23 26 39q6 11 87.5 138t103.5 189q8 23 19 17q17 -11 3 -62q-10 -40 -38 -88l-50 -92q-1 -1 -11 -16.5t-24 -39t-22 -40.5q-18 -36 -50 -71t-34 -38q-8 -12 -12 -16l-43 -49q-4 -4 -4 -6q-8 -3 -23 -12.5t-22 -12.5 q-12 -6 -17 -6q-6 0 -18 -2t-17 -2q-33 -3 -63 14q-47 22 -70 41q-4 3 -10.5 8.5t-9.5 7.5t-5.5 4.5t-6 6.5t-5.5 6q-3 7 -11.5 18t-10.5 15l-6 12l-8 8q-7 10 -19 32t-16 29q-4 8 -4 15q-9 36 -9 49q-4 33 3 90q4 40 4 59q1 2 2 6.5t2 6.5l18 86q3 20 21 71q13 30 16 54 l6 16q17 49 23 72q9 26 12 59q4 16 4 25q2 4 2 10q3 14 -10 8q-20 -7 -47 -26q-2 -1 -5.5 -5.5t-4.5 -5.5q-12 -6 -17 -16q-6 -11 -16 -25q-2 -2 -5 -4.5t-5.5 -5t-5.5 -6t-5 -6.5q-11 -11 -26 -37q-4 -6 -17 -19q-10 -9 -24 -36q-1 -4 -2.5 -8t-4.5 -9.5t-4 -9.5 q0 -11 -12 -27l-24 -45l-13 -26q-6 -12 -6 -25q-4 -26 -8 -37q-2 -4 -2 -14q-1 -12 -5 -37.5t-5 -38.5q-2 -8 -2 -24q0 -9 -2 -13q-2 -9 -5.5 -28.5t-5.5 -28.5q-3 -8 -14 -62q-2 -2 -2 -12q0 -18 -6 -33q-1 -1 -1 -4.5t-1 -5.5q-1 -8 -6.5 -32.5t-6.5 -38.5q0 -30 -10 -50 q-4 -6 -9 -38.5t-3 -41.5q0 -3 -0.5 -7t-0.5 -7t1 -6q0 -6 -2 -10q-6 -8 -2 -23q0 -6 -4 -6l-13 -8q-14 -6 -14 -25q0 -6 -6 -6q-1 -3 -14 -12q-15 -5 -17 -8q-2 -1 -8 -1.5t-8 -2.5t-8 -2q-2 -2 -8 -2z" />
<glyph unicode="o" horiz-adv-x="819" d="M1055 727q11 -8 6 -18q-7 -14 -8 -17q-9 -9 -9 -16l-4 -6q-4 -5 -12.5 -21t-15.5 -24q-40 -40 -60 -64l-2 -2q-7 -3 -15.5 -11.5l-10.5 -10.5q-6 -4 -16 -12t-11 -9q-10 -7 -41 -22.5t-39 -16.5l-14 -6q-6 -6 -23 -10q-4 -1 -21.5 -8.5t-21.5 -8.5q-5 -2 -63 -10h-4 l-4 -4q0 -11 -3.5 -31.5t-3.5 -21.5v-8q0 -19 -4 -27q-2 -4 -2 -10l-6 -45l-2 -7q-2 -8 -5 -18t-8 -24.5t-12 -32.5t-15.5 -37.5t-21 -42.5t-26.5 -45l-53 -82q-3 -9 -10 -16q-21 -21 -31 -29q-23 -18 -31 -21q-8 -4 -12 -8q-12 -7 -29 -14q-38 -11 -61 -16q-35 -5 -45 -5 q-56 3 -109 33q-18 12 -33 27q0 4 -4 4q-13 9 -30 39q-5 5 -5 8q0 4 -8 16q-11 13 -18 39l-12 29q-8 12 -17 12q-2 0 -2.5 2t0.5 4q2 5 -2 17q-4 16 -4 22q0 11 -4 17q-2 4 -2 10l-6 20q0 2 -1 6.5t-1 6.5q-5 15 -7 18q-4 16 -4 29v10q-4 10 -4 33q0 3 -1 9.5t-1 10.5v11 q4 12 4 36q0 5 1 14.5t1 14.5q1 14 11 62q11 71 22 112v10q6 9 6 21q0 4 4 16q1 4 11 29l36 74q1 2 3.5 6t3.5 6l30 49q9 17 43 66q12 17 17 28q4 4 4 6l22 25q1 2 4.5 6t4.5 6q9 15 18 27q4 4 12 8q1 0 3 1t3 1q21 18 39 27q24 12 86 6q17 -2 76.5 -19t69.5 -24 q13 -9 58 -48.5t50 -47.5q6 -9 -3 -23t-23 -20q-8 -3 -17 2t-24.5 17.5t-30.5 19.5q-44 20 -129 -70q-14 -14 -29 -41q-3 -7 -8 -21.5t-8 -21.5l-2 -4q-1 -2 -12 -29q-1 -4 -4.5 -11l-4.5 -9q-17 -45 -18 -47q-6 -10 -14 -29t-11 -25q-6 -12 -6 -22l-6 -31q-2 -6 -5 -19.5 t-5 -19.5q0 -6 -2 -8q-4 -20 -4 -33q0 -8 -4 -28l-7 -52v-12q0 -8 -2 -12v-21q-1 -4 5 -39q0 -3 1 -9.5t1 -10.5q0 -19 2 -29q2 -4 2 -8q-1 -3 4 -22q8 -20 8 -33q0 -6 2 -8q4 -12 4 -21q0 -2 2 -4q10 -26 27 -49l2 -2q35 -27 59 -29h15q13 0 22 6q11 7 16 15q13 13 25 28 q3 6 18.5 29.5t22.5 36.5q27 53 51.5 116t28.5 82q11 38 14 91v18q0 3 1 10.5t1 10.5q-2 3 -5 5t-7 4l-6 3t-6.5 3.5t-8 5t-6.5 5.5q-26 23 -53 57l-6 9q-21 43 -23 75q0 28 9 52l12 28q1 2 3 6.5t3 6.5l6 14q0 6 6 6l13 6h6q3 -2 18 -2q15 3 29 0q12 -4 18 -4q13 -3 21 -14 q15 -15 20 -31q3 -4 13 -33q4 -11 0 -22q0 -13 2 -19q4 -16 4 -53q0 -25 -2 -37v-12q0 -8 6 -8q8 -4 12 -4q8 1 21 3t17.5 3t14 2.5t12.5 2t9.5 2t9 2.5t7 2.5t7.5 3.5t7 4t8 5q5 3 32 19.5t51 32t31 22.5q5 3 11 12t8 11q41 45 57 71q8 15 29 33q6 6 12 6q17 0 25 -6z M610 561q2 0 2 6q0 23 -2 35q0 2 -1 7.5t-1 8.5l-8 15q0 1 -2 1t-4 -1q-4 -8 -4 -15q0 -1 2 -13.5t4 -18.5l6 -13q0 -4 4 -8q0 -4 4 -4z" />
<glyph unicode="p" horiz-adv-x="802" d="M23 -479q-3 1 -8 2t-7 2q-10 3 -6 18q0 4 -2 6q-21 53 -25 80l-6 95v22q0 35 2 53v27q0 36 11 176q2 27 2 76q4 36 4 55q4 25 2 37q0 9 1 25.5t1 25.5q0 10 2 12q1 4 2 13t2 12q4 44 8 70q-2 5 0 10v6q3 10 5.5 30.5t4.5 26.5q0 17 2 23q6 6 2 14v11q6 41 15 81 q6 12 6 27q2 8 9.5 41.5t12.5 50.5q16 82 17 90q1 6 12 78q17 105 25 187q2 8 5 24t5 25q2 7 -4 16q-1 0 -1 2.5t1 3.5q5 14 10 17q13 4 23 2q29 3 59 -9l4 -4q6 -3 12 0q7 7 13 0q4 -4 6 -8q3 -6 26 -33l13 -12q7 -8 10 -20q5 -35 2 -45v-5q4 -23 4 -65q0 -2 2 -2 q17 29 19 33q5 18 34 73q6 13 19 33t16 25q2 2 10 11.5t13 12.5q40 35 41 35t8.5 6t18 11.5t24.5 12t33.5 10.5t40.5 3q8 1 16 -0.5t12.5 -3t12.5 -5.5l10 -5q18 -6 35 -23l2 -2q18 -10 43 -43q0 -1 1 -2.5t1 -3.5q13 -13 18 -29q2 -8 10 -20q18 -34 31 -86 q11 -21 5.5 -132.5t-31.5 -246.5l-27 -92q-9 -26 -16 -35l-7 -18l-10 -25q-4 -8 -10 -14q-4 -15 -10 -17q-4 0 -4 -6q-6 -13 -17 -26l-10 -19q-7 -13 -14 -18q-11 -11 -13 -23l-6 -14q-17 -17 -24 -31q-6 -6 -9 -6q-3 -1 -14 -12q-11 -18 -24 -23q-1 0 -7 -6q-4 -4 -4 -8 q-5 -8 -22 -21q-4 0 -4 -2q-3 -3 -11.5 -7.5t-13.5 -8.5h-6q-18 -5 -25 -8q-6 -2 -18 -2l-16 6q-14 6 -41 24l-23 21q-1 2 -10 16q-11 15 -17 17q-11 8 -14 28v11q-2 4 -2 18q0 4 2 4q1 2 6 21q1 9 6 26.5t7 26.5q8 22 18 33q13 15 28 -19q9 -20 9 -35q-1 -7 8 -18.5 t8 -16.5v-2q2 -6 10 -6q5 1 19 15q19 19 37 55l20 41q20 46 29 74q3 6 12.5 37t22 84.5t20.5 105.5q20 120 27 223q11 189 -41 189q-31 0 -66 -15q-5 0 -8 -10q-4 -6 -12 -14q-3 -1 -5.5 -4.5t-4.5 -4.5q-20 -20 -23 -28q-12 -23 -24 -33q-6 -2 -15 -16q-6 -18 -8 -21 l-8 -16q-3 -3 -29 -51q-1 -2 -2 -10t-2 -11q-14 -35 -27 -82q-7 -25 -10 -45q-2 -2 -2 -10q-2 -10 -2 -27q-2 -2 -2 -8q-3 -8 0 -14q-4 -21 -2 -29l-6 -20q0 -3 -1 -11t-1 -12v-10q0 -13 -10 -60t-15 -84q-1 -5 -3.5 -12t-2.5 -10q-1 -1 -1 -4.5t-1 -5.5q-4 -12 -8 -35.5 t-4 -26.5q-2 -6 -2 -20q0 -9 -4 -29q-2 -2 -2 -6v-18l-7 -21q1 -6 -4 -33v-43v-16q-1 -9 -2 -26.5t-2 -26.5q-1 -5 -1 -11t0.5 -12.5t0.5 -9.5q-4 -20 -4 -31q-1 -4 -4 -16.5t-6 -18.5q-4 -4 -4 -10q-8 -155 -8 -158q2 -10 -2 -26q0 -5 -5 -35v-10q-7 -10 0 -23v-8 q4 -30 0 -41q-4 -28 2 -45q0 -3 0.5 -9.5t0.5 -12t-1 -9.5l-8 -35q0 -6 -8 -22q-2 0 -2 -2q-7 -14 -29 -25q-2 -1 -5.5 -2t-4.5 -2q-10 -12 -35 -16q-30 -4 -45 -2h-30z" />
<glyph unicode="q" horiz-adv-x="768" d="M348 -455q-17 0 -45 4q-6 3 -10 7l-5 4q-6 4 -7 8q3 3 2 4l-4 2q-7 4 -7 10q-7 14 -8 15q-17 14 -24 39q-10 20 -11 24q-7 15 -14 45q-5 17 -6 17v14q0 2 -1 4.5t-1 3.5q-4 4 -4 12q0 15 2 23v33q2 8 2 22l2 4q0 20 8 60q0 12 2 20l12 70l7 24q5 26 16 70q2 11 7 31.5 t7 27.5q15 56 17 64q5 15 14 53q2 14 10 47v2h-2q-12 -8 -16 -14l-19 -19q-1 -1 -4 -2t-4 -2q-22 -11 -35 -24l-4 -4l-30 -6q-19 0 -27 -2q-44 -6 -82 12q-12 8 -18 10q-29 14 -45 47q-19 35 -29 78q-8 54 -8 82q2 31 2 90v8q0 9 4 17q2 3 3.5 6t2.5 6t2 4v6q0 8 2 12 q6 9 6 15q4 16 10 22q2 2 2 6q2 4 5.5 13.5t5.5 13.5q13 26 16 35l8 14q3 3 8.5 10.5t8.5 10.5q1 2 16 22l18 23q32 36 44 47q1 1 53 47q38 33 45 37q46 36 69 47q26 16 66 33q22 9 29 16q2 2 8 2q4 -2 10 -2q15 -4 19 -8l4 -4q6 -4 26 -29q14 -17 25 -24q1 0 2 -1.5l2 -3 t2 -2.5q3 -10 10 -20q7 -14 -2 -23l-4 -6q-5 -3 -13.5 -11t-13.5 -11q-10 -7 -20 -21q-7 -11 -16 -14l-9 -6q-1 -1 -5 -7t-7 -8q-4 -8 -8 -10q-10 -8 -21 -22l-4 -4q-4 -3 -20 -19l-33 -37q-7 -3 -10 -10q-8 -8 -17 -14q-2 -1 -10 -9q-12 -16 -16 -24q-17 -29 -19 -31 q-2 -4 -24 -43l-4 -4q-4 -16 -8 -22q-3 -3 -3 -7q-1 -2 -6.5 -17.5t-7.5 -23.5q-7 -18 -10 -32q-2 -7 -4 -21.5t-2 -15.5q0 -35 2 -51q0 -6 1 -17t1 -16l6 -21l6 -14q0 -4 4 -4l15 6q6 0 10 4q44 28 67 60q22 28 25 32l6 17q2 8 10 20q5 5 9 17q15 54 26 84q9 22 39 84 q5 11 59 122q2 3 5.5 10.5t5.5 10.5q2 5 0 10q-3 3 2 8q7 10 26 6q12 -4 21 -4l14 -6q12 -12 27 -18q16 -10 16 -29l4 -22q2 -8 2 -29q2 -6 2 -19q2 -8 2 -22q-2 -6 -2 -21v-10q-2 -7 -2.5 -20t-1.5 -17v-34q0 -11 -2 -17v-10q0 -13 -2 -19q-2 -2 -2 -4q3 -13 -4 -30 q-1 -3 -8.5 -43t-11.5 -49v-3l2 -2q20 10 24 13q3 2 46 27.5t57 39.5q16 16 34 31l17 16q9 12 38.5 40.5t41.5 37.5q6 6 12 15q30 35 39 47q15 20 16 22q4 12 21 33q12 12 20 16l10 6q7 4 11 0q20 -10 22 -12q5 -5 2 -10q0 -4 -4 -8t-8 -19q0 -4 -4 -8l-27 -31l-2 -2 q-1 -6 -8 -13.5t-8 -10.5q-4 -12 -12 -17q-9 -6 -17 -14t-14 -20q0 -5 -8 -13q-3 -3 -9 -6l-4 -4q-30 -30 -73 -63q-7 -5 -21.5 -18t-23.5 -19q-40 -23 -50 -35q-3 -4 -33 -21t-40 -20q-14 -5 -17 -8l-28 -17q-12 -3 -15 -16q-2 -10 0 -23q0 -14 8 -34l11 -33q1 -7 4 -20.5 t4 -20.5l12 -64q4 -24 4 -41q0 -10 2 -14q0 -23 2 -35q0 -41 2 -49q0 -8 -2 -12q-2 -11 -5 -34.5t-5 -35.5q-3 -38 -14 -69q-1 -4 -13.5 -39t-13.5 -39q-2 -8 -16.5 -35.5t-16.5 -32.5q-11 -28 -24 -47l-6 -10q-3 -8 -19 -29q-18 -24 -20 -26q-14 -17 -39 -31q-9 -3 -16 -10 q-6 0 -9 -7q0 -4 -4 -4q0 4 -2 4t-6 -1t-6 -1q-17 -4 -25 -2h-6zM438 -371q2 2 4 2q15 12 25 29q1 3 4 8t4 8q40 92 47 111q13 35 15 49q3 9 8 39l8 70q6 21 6 47v12q3 18 0 33l-6 37q-1 12 -4 33t-4 30l-10 53l-7 23h-2q-8 -17 -10 -23q0 -8 -4 -20q0 -4 -4 -12 q-4 -7 -7.5 -16t-6.5 -20t-5 -16q-1 -1 -1 -4t-1 -4q0 -19 -8 -30q-1 -2 -8 -23q-5 -21 -4 -25l-2 -4q-3 -7 -6 -22.5t-6 -22.5q-2 -6 -5 -19.5t-6.5 -24t-7.5 -19.5v-6q0 -7 -4 -27q-2 -2 -2 -8t-4 -14v-7q2 -7 -2 -16q-6 -21 -6 -41q0 -8 -4 -16q-2 -6 -2 -17 q-2 -10 2 -26q0 -11 -2 -15q-2 -6 -2 -18q4 -24 4 -33q0 -8 -2 -10v-6q7 -14 8 -15q7 -14 20 -4z" />
<glyph unicode="r" horiz-adv-x="614" d="M844 696q4 0 7 -3.5t1 -6.5q-1 -5 -4 -11.5t-4 -8.5q-16 -22 -27 -50q-2 -4 -15 -33.5t-29.5 -68t-27.5 -61.5q-13 -26 -24.5 -54t-17.5 -44.5t-5 -16.5q-4 -5 -15 -31t-35 -72t-56 -98l-4 -6q-3 -8 -21 -31l-30 -37q-4 -5 -12.5 -16t-12.5 -16q-1 -1 -16 -21 q-9 -15 -21 -30q0 -3 -2 -3q-3 -3 -18.5 -23t-24.5 -28q-9 -6 -12 -12q-6 -9 -18.5 -23t-16.5 -20q-24 -29 -35 -35q-10 -10 -22 -16q-48 -27 -78 -29q-3 -1 -9.5 -2t-9.5 -2q-20 -4 -39 -4q-31 0 -77 24q-28 17 -54 46l-8 8q-10 10 -20 30l-6 15q-7 18 -2 33q0 1 1 3t1 3 q-2 6 -2.5 20.5t-2.5 20.5q-1 4 3 22q2 4 2 17q0 41 2 59q6 61 34 119q4 6 11 20q18 43 49 96q13 20 34 56.5t27 46.5q0 2 4 10q12 26 54 86q5 7 12.5 21.5t9.5 17.5q5 5 8 18q2 3 -2 7h-4q-17 4 -49 18q-2 2 -6 2q-5 2 -38.5 21.5t-37.5 23.5q-1 2 -18 18t-19 23l-6 19 q-12 33 4 98v6q0 7 12.5 37t27 63t16.5 37q22 49 57 86q27 27 49 27q35 0 59 -17q4 -3 12.5 -5t12.5 -5t9 -7t10.5 -10.5t7.5 -8.5q12 -6 12 -25q6 -12 2 -35q0 -1 -2 -19.5t-4 -29.5q-3 -21 -41 -90q-2 -3 -4 -9t-4 -9l-7 -15q-4 -8 -4 -10q-4 -14 -24 -43q-17 -22 -17 -23 q-5 -8 -2 -18q5 -14 23 -25q4 -4 6 -2q6 0 13 -1t15 -2.5t13 -2.5q23 -3 41 -18q19 -10 63 -45q9 -9 11 -15q1 -1 2.5 -2t2.5 -2t1 -2q14 -28 14 -41v-2q0 -3 1 -8.5t1 -7.5l-6 -25q-14 -44 -29 -84l-22 -43q0 -2 -2 -6t-2 -6q-4 -12 -14 -32.5t-11 -22.5q-2 -2 -2 -6 q-10 -20 -26 -56q-19 -43 -19 -45q-11 -22 -14 -26q-11 -22 -27 -62q-2 -2 -2 -4q-6 -10 -14 -31t-10 -26q-8 -22 -15 -49q0 -3 -1 -8.5t-1 -8.5q-1 -1 -2 -5.5t-2 -6.5q-6 -9 -4 -16v-7q-2 -3 -2 -18q0 -2 1 -5t1 -5q0 -14 14 -25q10 -6 45.5 10t42.5 23q30 24 62 70 q3 5 18.5 27.5t26.5 39t28.5 39.5t32.5 39q3 4 23 46.5t41 87t22 46.5q13 18 83 167.5t77 162.5q0 -1 10.5 13.5t21 29.5t11.5 16q6 10 31 2zM233 807q0 1 32 58.5t32 58.5q6 17 2 22.5t-13.5 1.5t-15.5 -14l-61 -107q-8 -22 1.5 -34t22.5 14z" />
<glyph unicode="s" horiz-adv-x="768" d="M903 713q7 5 15 1.5t15 -15.5t7 -27q0 -7 -13 -19t-43 -37.5t-55 -52.5q-22 -24 -43 -42t-33 -27t-39 -27t-42 -29q-61 -44 -154 -133q1 -2 21 -31t28 -45q51 -97 58 -161q7 -104 -31 -172q-15 -27 -45 -48q-48 -32 -119 -88q-6 -5 -41 -30q-19 -13 -58.5 -32t-49.5 -24 q-4 -3 -25 -8l-72 -10h-8q-8 5 -23.5 8t-17.5 4q-42 15 -59 39q-8 13 -21 19q-39 24 -49 75q-1 8 -4 21.5t-5 25t-3 21.5q0 33 4 47q11 45 20 68q12 32 39.5 66.5t54.5 60t68 56t60.5 44t50.5 33.5q-2 6 -10 18q-18 30 -38.5 59.5t-53 71.5t-42.5 56q-77 105 -96 190 q-38 158 92 295q11 14 37 35q19 15 33.5 23.5t37.5 18t42.5 7.5t48.5 -8q0 -2 -2 -2q41 -17 70 -54.5t20 -91.5q-3 -16 -12.5 -38t-17.5 -36.5t-24 -41t-20 -33.5q-38 -61 -92 -109q3 -11 10 -18q10 -11 57.5 -62t71.5 -78q52 -60 78 -94l23 13q45 30 74 53q13 10 20.5 17 t16.5 17t16 17q12 12 65.5 57t77.5 66q79 71 129 121zM301 776q56 54 67 103q3 19 -6 18q-27 -6 -39 -18.5t-32 -49.5q4 0 0 -4q-1 -1 -2 -4t-2 -4q-4 -16 -4 -22q-2 -16 3 -22t15 3zM377 -113q22 47 24.5 105t-16.5 86q-15 21 -27 41.5t-25.5 46t-19.5 37.5 q-13 -10 -42.5 -32.5t-43.5 -33.5q-1 -1 -12.5 -11t-21.5 -19t-11 -11q-4 -7 -28 -37t-43 -57.5t-19 -38.5q-1 -5 -8.5 -33t-7.5 -36q0 -62 55 -98t94 -15l22 11t26.5 13.5t24.5 13.5t27 16.5t21 15.5t19.5 18t11.5 18z" />
<glyph unicode="t" horiz-adv-x="743" d="M221 -172q-11 0 -22.5 3t-25 8t-21.5 7q-5 1 -32 26t-34 34l-14 18q-34 46 -54 96q-2 4 -2 13q0 15 -4 35q-9 51 -12 96q0 14 -4 20q-1 3 -2 9.5t-2 9.5q0 1 6 55q0 1 3 5.5t-1 6.5v15q0 18 2 28q9 55 21 111l18 63q11 29 29 76q1 5 4 14.5t4 14.5q11 26 16 43l25 51 q11 22 16 37q8 23 35 84q45 93 53 111q2 4 5 12t5 12q1 3 12.5 30t16.5 42l6 12q3 10 1.5 13t-13.5 3q-4 0 -10.5 1t-9.5 1q-4 0 -11.5 -1t-11.5 -1h-12q-13 -1 -38.5 -2t-35.5 -2l-18 2q-2 0 -10 -1t-17 -1l-12 -1q-11 -1 -21.5 -0.5t-19.5 3.5t-8 39.5t10 36.5 q10 0 21.5 0.5t18.5 1.5h7h33q25 0 76 -1t77 -1h29q8 0 12 2q5 0 8 6q7 7 11 19q19 44 24 59l6 15l15 32q3 9 -2 17q-7 7 0 20q1 0 2 1t2 1q7 26 39 19q32 -8 47 -23q9 -6 16 -6q27 -10 41 -27q3 -3 13.5 -12.5t15.5 -15.5q36 -39 39 -84q2 -4 2 -17q0 -8 10 -8h4 q59 2 174 2h25q12 3 26 -4l21 -20l-2 -37q0 -9 -8 -14t-17 -3l-37 4q-3 0 -21 -2t-22 -2h-14q-58 -6 -59 -6q-12 -2 -35 1.5t-33 2.5h-10q-21 -4 -22.5 -5t-10.5 -19q-12 -28 -14 -45q-3 -12 -8.5 -34.5t-8.5 -33.5q-4 -18 -8 -25q-21 -58 -45 -114q-9 -31 -14 -43 q-12 -34 -31 -66q-7 -10 -10 -20q-2 -11 -15 -33q-5 -9 -8 -23l-6 -14q-18 -36 -23 -51l-6 -14q-11 -20 -18 -43l-25 -68q-5 -16 -8 -20q-2 -12 -10 -31q-8 -20 -6 -29q0 -4 -2 -6q-2 -5 -3 -15.5t-3 -15.5q-7 -32 -7 -55v-14q5 -19 2 -47q0 -4 -1 -12.5t-1 -12.5v-8 q2 -28 9 -66q7 -30 26 -49q0 -4 4 -4q38 -30 68 -37h18q57 16 64 23q16 20 55 55q44 41 70 88l47 80q7 12 62 116.5t59 114.5q5 15 20.5 42t20.5 38q32 56 82 131l12 19q6 12 6 14q3 11 10 18q6 8 14.5 8t14.5 -8q0 -1 1 -3t1 -3q0 -2 3.5 -9.5t4.5 -12.5q3 -9 0 -19l-6 -16 q0 -1 -3 -9.5t-3 -13.5q-2 -19 -21 -45q-11 -19 -14 -32q0 -11 -8 -35q-1 -9 -16.5 -25t-18.5 -22q-1 -2 -4 -9t-9.5 -20.5t-19.5 -36t-40.5 -65.5t-65.5 -99q-1 -1 -3.5 -4.5t-2.5 -5.5q-1 -2 -17 -29l-24 -47l-15 -20q-13 -22 -47 -64q-41 -51 -51 -67q-26 -32 -31 -41 q-34 -39 -47 -49q-1 -1 -6.5 -5.5t-12 -9t-16.5 -11.5t-24 -14.5t-31 -15.5q-14 -6 -28 -8.5t-21 -1.5t-14 0q-66 -15 -105 -6z" />
<glyph unicode="u" horiz-adv-x="1024" d="M160 6l-10 2q-37 8 -66 37q-25 25 -33 41l-6 10q-9 12 -12 25q-1 3 -17 35q-12 21 -14 29.5t-2 29.5q0 5 1 14t1 13v37q0 8 8 39t16 60l7 28q0 20 2 24q2 5 2 14t2 13q1 4 1 12t1 12q1 3 8 38t8 38q5 8 9 37q0 8 4 21t4 14q0 4 2 12t2 12q3 10 7 30t7 30q3 19 12.5 53 t12.5 49q17 53 22 96q2 4 2 13l6 47q0 2 2.5 10.5t2.5 13.5q-4 13 -9 15l-2 2l-2 2q-9 9 2 14q2 1 21 6q19 3 43 -4q30 -4 45 -8q26 -9 35 -14q3 -5 10 -9q8 -4 16 -10q3 -4 19 -20q10 -3 10 -13q3 -8 8 -16q8 -5 12 -18q13 -16 17 -43v-11q0 -27 -6 -41q-4 -16 -4 -28 q0 -6 -3.5 -17.5t-3.5 -13.5l-4 -16q0 -13 -4 -33q0 -2 -1 -6t-1 -6q-10 -17 -10 -33q-4 -21 -10 -29q-7 -10 -4 -18q0 -2 -7 -23q-4 -13 -8 -39q-2 -8 -2 -20q-4 -12 -4 -15v-8q-4 -5 -7 -36.5t-3 -32.5q-6 -18 -6 -39l-25 -86q-6 -15 -6 -31l-2 -51q0 -6 -2 -8 q-4 -7 -4 -31l2 -17q1 -2 2 -6t2 -6q4 -8 4 -24l4 -17q0 -6 6 -12q1 -3 4 -2q11 0 23 8l18 12q38 33 60 70l63 109q13 16 19 34q21 44 39 84l16 31l49 104l8 17q5 9 15 33q14 43 34 129q10 34 13 65q2 10 2 29q0 8 6 10q5 5 2 10q-3 6 4 9q4 2 12 10q0 4 7 4q20 8 32 8 q5 0 17 -4l8 -4l6 -4q6 -9 16 -4q8 3 17 -6q6 -5 19.5 -13t15.5 -10q12 -8 14 -16l2 -4q14 -10 14 -25q0 -4 2 -6q12 -21 9 -45q-2 -25 2 -66q2 -14 2 -45v-14l-2 -23q0 -18 -2 -26q-10 -29 -11 -37l-2 -6q-1 -7 -4 -19l-4 -16q-4 -24 -4 -35l-2 -8q-2 -8 -4 -25.5t-2 -19.5 l-2 -17q3 -15 -6 -30q-10 -17 -7 -33q3 -20 -4 -41q-5 -14 4 -23q23 -21 50 -12q5 2 15 7t15 7q4 2 8 5t9 7.5t8 6.5q24 21 49 57q9 12 39 47l8 7q4 6 8 18q12 38 39 68q24 27 45 57l31 43l4 6l39 61l14 25q5 5 5 14l-3 7q-2 3 5 10l6 4q5 4 6 8q24 12 37 8q4 -4 4 -6 q-5 -29 -10 -39q-10 -24 -15 -33l-4 -10q-7 -12 -29 -43q-2 -2 -20 -26l-14 -19q-17 -15 -41 -47l-6 -8l-11 -15q-2 -4 -8 -11t-8 -11l-12 -25q-5 -12 -19 -26q-14 -16 -35 -58l-2 -2q-2 -17 -24 -39l-31 -32q-25 -25 -37 -35l-37 -33l-18 -12l-8 -6q-6 -9 -19 -13 q-8 -5 -24 -9.5t-21 -6.5q-50 -15 -98 2q-53 22 -84 59q-22 22 -35 60q-3 3 0 10l4 8q2 6 2 17l-2 8q-4 24 -4 35q0 19 -4 55q0 4 -2 6h-4l-6 -14q-5 -15 -6 -17q-2 -4 -4.5 -12t-4.5 -12q-2 -3 -7.5 -15t-10.5 -18q-2 -3 -3.5 -6l-3.5 -7t-3 -7q-21 -48 -35 -68l-6 -16 l-10 -19q-1 -2 -33 -53q-3 -10 -23 -35l-20 -22q-18 -25 -35 -35l-39 -27q-12 -8 -18 -14q0 -1 -1.5 -1.5l-3 -1t-2.5 -1.5l-47 -19q-31 -13 -67 -4z" />
<glyph unicode="v" horiz-adv-x="819" d="M211 -199q-17 3 -33 19l-6 4q-1 2 -4.5 4t-5.5 4q-3 3 -18.5 32.5t-20.5 31.5q-1 3 -9.5 20.5t-16 33.5t-9.5 19q-10 35 -10 45q0 3 -6 33q-3 12 -10.5 37t-10.5 37q-8 31 -10 51q0 6 -2 18.5t-2 18.5l-4 29q-4 36 -4 57l-6 53v53l2 13q0 12 -2 18l-5 19q-2 5 0 10v16v21 v8l-4 8q0 4 2 4q4 0 4 4v35v23q0 12 -2 20q-3 10 0 23v4q1 1 0.5 15.5t-1.5 31t-2 30.5l-1 15q-4 27 -4 51v31q0 6 -4 14l-4 14q0 5 4 5v2v4q-5 5 -4 6q0 1 3 2q2 1 3 2q21 0 31 -4h10q25 3 49 -6q1 0 11.5 -4.5t15.5 -8.5l6 -4q12 -2 29 -16l28 -23q2 -1 11 -10 q1 -2 26 -45q4 -16 4 -27v-57q0 -4 1 -13.5t1 -13.5q2 -10 2 -30q-2 -11 3 -43v-15q-3 -27 -3 -55v-39v-33q0 -5 3 -8v-8q-3 -10 0 -20q2 -4 2 -13l-2 -57q0 -4 -5 -29q-2 -2 -2 -6l4 -12q3 -6 3 -17v-8q0 -2 1 -6t1 -6q-3 -17 4 -37l2 -14q0 -6 2 -8l10 -29l6 -16l14 -48 q0 -1 1.5 -2t1.5 -2q-1 -2 6 -22l14 -45q3 -9 6 -21l8 -14q4 -11 2 -16q0 -9 4 -25l3 -4q5 -5 12 -2q6 2 14 10q9 9 17 25l22 45q2 2 6 10q10 17 21 47l30 88q2 7 8 18t7 15q11 24 18 53q1 2 20 60t27 79q4 14 8 50v26q0 15 -2 23l-2 4q-8 16 -12 22q-10 20 -16 41 q-8 13 -11 23q-2 6 -2 22q-3 14 -8 23q-8 20 -8 37q0 13 -4 41q-2 10 2 35q1 7 10 38q5 13 8 17l35 55q0 1 1 3t1 3q13 21 37 45l19 19q16 16 32 24q4 2 12.5 8.5t12.5 8.5q27 12 47 4q14 -5 16 -12q0 -4 5 -9q8 -12 8 -22q4 -21 2 -35q-3 -12 0 -25q0 -10 -2 -16 q-4 -23 -11 -37q-5 -26 -8 -33l-20 -69q-8 -23 -10 -37l-7 -17l-28 -178q17 -70 217 88q3 3 80 74.5t88 91.5q3 4 16.5 25.5t22.5 30.5q7 4 14 0q10 -7 10 -17l-2 -4q-2 -2 -2 -6q-11 -22 -16 -37q-3 -8 -17 -31q-9 -15 -40.5 -47.5t-38.5 -40.5q-6 -7 -56 -48t-55 -46 q-58 -66 -117 -98t-88 -25q-8 2 -22.5 9.5t-18.5 9.5l-4 2q-6 3 -10 -4l-4 -7l-13 -34q-5 -15 -14.5 -33t-9.5 -19l-6 -22q-4 -8 -4 -12q-1 -7 -6.5 -19t-6.5 -16q-7 -17 -13.5 -50.5t-8.5 -39.5q0 -3 -3 -17.5t-3 -21.5l-2 -6q0 1 -25 -45.5t-52 -96t-30 -53.5l-10 -14 q-20 -24 -31 -35q-18 -18 -33 -23l-14 -8q-25 -11 -90 6zM608 668q12 -3 28 41.5t18.5 84t-13.5 46.5q-18 -4 -30.5 -47t-11.5 -79.5t9 -45.5z" />
<glyph unicode="w" horiz-adv-x="1026" d="M193 -176l-15 2q-13 0 -26 10q-4 1 -7 2l-22 12q-14 5 -17 13q-1 4 -3.5 8t-2.5 6q-16 10 -24 23l-10 10q-7 17 -24 45t-22 37l-6 14q-4 6 -4 14q8 11 4 23l-10 45q0 14 -2 18q-2 14 -2 70l-4 57q-2 10 -2 62l-2 10q2 4 2 27l4 55q0 8 1 23.5t1 23.5l2 33l14 176l4 45 q3 12 0 21l5 39q0 7 3 19.5t3 14.5l12 70q0 8 2 16l4 21q0 21 6 45l15 70q6 24 6 49q-2 15 -13 26q-6 4 -4 8l25 11q2 1 49 6q11 4 27 -4l41 -13q25 -9 43 -26l8 -6q7 -7 12.5 -11.5t11.5 -11.5q18 -9 25 -31q8 -8 8 -22q-4 -14 0 -25v-10q0 -28 -4 -98l-2 -12 q-4 -9 -10 -52v-10l-12 -55q0 -3 -5 -33l-4 -53q-4 -38 -2 -56l-2 -12q-2 -11 -2.5 -32.5t-1.5 -28.5l2 -127l2 -35q0 -6 1.5 -26.5t0.5 -30.5l9 -27v-2q1 1 3 4t3 6l20 70q5 37 19 84q2 6 5 13.5t5 12t2 5.5q17 58 24 104q5 30 5 33l8 41v10l12 63q9 50 14 72l11 49 q4 16 4 31l4 8q11 11 14 23q4 2 4 4l6 6q16 16 41 16l9 -2q8 -2 20 -2l14 -2q16 -5 33 -22q20 -35 23 -47l14 -46q8 -41 10 -57l4 -8q4 -28 4 -43l2 -18q4 -29 2 -44v-8q5 -15 5 -55q-1 -13 0 -36.5t0 -35.5l4 -149q0 -6 2 -6q7 6 26 39l9 43q1 3 9 23.5t19 49t17 43.5 l36 107q13 30 33 90t31 86l37 78q8 21 8 55q1 2 -2 12l-31 62q-12 55 -0.5 90t45.5 41q53 8 68 -31q3 -7 5 -27.5t2 -38t-0.5 -43.5t-0.5 -28v-18l4 -23q2 -4 4 -6t4.5 -3.5t3.5 -2.5l54 -70q9 -14 77.5 -60.5t86.5 -50.5l61 -12q3 -1 10.5 -2t11.5 -2l11 -2q25 -4 6 -16 l-21 -29q-3 -6 -14 -10q-5 0 -27 -4t-26 2q-33 13 -55 23.5t-47 28t-33.5 23.5t-43.5 36.5t-49 41.5l-38 33q-7 4 -14 -3.5t-9 -18.5q-4 -42 -8 -52l-10 -32q-1 -3 -6.5 -22.5t-6.5 -27.5l-12 -45q-8 -21 -14 -49l-9 -31q0 -14 -4 -20l-4 -14q0 14 -2 -2q-4 -21 -8 -72 l-39 -180q-7 -5 -23 -81t-16 -87l-20 -117q-1 -5 -1 -13t-1 -11.5t-4 -6.5l-41 -47q-11 -11 -13 -14l-14 -10q-2 0 -4.5 -1.5t-5.5 -2.5l-4 -9q-12 -8 -21 -8l-6 -2q-25 -11 -49 -4l-72 41q-2 1 -4.5 3.5t-3.5 2.5l-12 19q-3 1 -10.5 127.5t-15 255t-9.5 131.5q-1 2 -6 -8 q-24 -46 -27 -70l-6 -27q0 -3 -18.5 -65.5t-18.5 -71.5l-12 -59l4 27q-3 -10 -8 -46l-6 -53q-3 -21 -9 -45v-15q-3 -38 -20 -61l-18 -61l-5 -13q-1 -1 -4 -6.5t-8 -7.5l-4 -6q-6 -14 -35 -33q-16 -4 -22 -10q-1 -1 -3 -1.5t-3.5 0.5t-1.5 3z" />
<glyph unicode="x" horiz-adv-x="921" d="M580 -188l-48 6q-9 3 -14 8t-14 8t-15 12q-3 8 -10 13q-7 15 -18 20l-8 6q-4 5 -14.5 15.5t-14.5 15.5q-2 2 -6 10q-13 18 -17 25q-9 11 -22 37l-12 24q0 1 -5 6q-6 2 -10 13v12q0 3 -3 8.5t-3 7.5q-6 6 -8 7q-3 0 -6 6v8q3 8 -4 18q-9 12 -13 27q-4 6 -8.5 17t-5.5 12 q0 4 -2 6q-4 7 -9 23t-9 24q-6 18 -15 33q-2 2 -6 2q-5 -5 -8 -11q-6 -9 -16 -23t-13 -18q-2 -1 -3.5 -4.5t-2.5 -3.5q-11 -25 -24 -41q-10 -7 -17 -22l-12 -15q-1 -2 -2 -6t-2 -6q-14 -27 -15 -29q-2 -2 -8 -14q-13 -27 -20 -35q-5 -8 -12 -22t-11 -19l-14 -26 q-16 -27 -17 -29q-8 -20 -8 -33q0 -4 -4 -8q-7 -3 -10 -10l-6 -8q-5 -4 -10 -9t-10.5 -12.5t-8.5 -11.5q-3 -6 -10 -6q-11 2 -27 -6q-7 -5 -12 0q-4 2 -8 10q0 3 -1 9t-1 9q-6 14 4 27l16 25q3 3 17 21t22 26q2 6 10 14q28 39 29 41q47 70 51 76t15 24t18 27q1 1 2 3 q1 3 2 3q4 4 19 29q20 30 24 35q42 63 53 83q9 9 11 13t6 8v12q-14 41 -19 53q-4 12 -4 21l-12 51q-1 3 -4 10.5t-4 10.5q0 6 -2 8q-1 3 -4 8t-4 8q0 11 -5 21q-4 8 -4 16q-2 10 -7 29.5t-7 29.5q-20 72 -25 87q-2 2 -2 6l-12 47q-7 22 -16 35q0 2 -2 4q-8 32 -21 45 q0 6 -4 10q-2 2 -2 10q-2 4 -8 4q-4 -4 -4 0q0 11 8 11q14 4 24 10q8 2 23 2q3 -1 8.5 0.5t7.5 1.5q6 2 19 2h4q3 -1 15.5 -1.5t19.5 -2.5q7 0 10 -6t10 -6q5 0 8 -3q4 -6 15 -6q6 0 6 -6q3 -6 10 -8q14 -5 33 -16q1 -2 6 -6t6 -5q14 -11 17 -24l2 -4q6 -8 12.5 -24.5 t7.5 -18.5q10 -21 12 -29q3 -22 13 -45q3 -25 14 -47v-4q5 -8 11.5 -26.5t9.5 -24.5l2 -5h6l2 3q4 5 11 15t11 15q6 9 19 25t18 24q8 9 23.5 30t23.5 30q2 3 14 18.5t19 22.5l57 67q3 4 12.5 12.5t12.5 14.5q12 12 20 18q9 9 25 13q4 0 12 8q4 4 6 4q11 4 17 -2q8 -4 12 -8 q5 -5 2 -8q-3 -6 -10 -13q-11 -15 -16 -18q-32 -32 -39 -37q-5 -4 -25 -29h-2q-22 -32 -41 -47q-1 -1 -3.5 -4.5t-4.5 -5.5l-25 -33q-11 -9 -26 -31l-21 -24q-18 -18 -29 -37q-1 -2 -4.5 -6.5t-5.5 -7.5q-6 -6 -15.5 -18.5t-12.5 -16.5q-3 -6 -11 -14t-12 -23q15 -15 12 -31 v-12v-10v-13q0 -8 4 -21t5 -17q0 -5 6 -17q0 -1 6 -21t12 -28q1 -1 2 -4t2 -4q4 -14 8 -21q1 -3 7.5 -13t7.5 -17q0 -2 1 -5.5t1 -5.5q2 -2 2 -8q0 -12 8 -20q0 -7 2 -11q0 -2 1 -6t1 -6q0 -4 4 -8q10 -5 6 -12q2 -6 9 -13q5 -4 14 -22q15 -25 18 -35q0 -1 1 -2t1 -2 q6 -11 23 -33l29 -53q1 -2 2 -6t2 -6q1 -9 7.5 -26t8.5 -23q0 -2 3 -6t3 -5q4 -2 12 2q6 2 15 11q59 80 69 96q8 14 61.5 134t55.5 124q14 29 46 91t57.5 111t29.5 62q2 7 13.5 30.5t26 50t16.5 30.5q27 60 46 56q16 -4 11 -41v-3q-10 -59 -23 -92q-12 -26 -60.5 -120.5 t-74.5 -154.5q-38 -86 -123 -227l-4 -8q-4 -9 -36 -64.5t-35 -60.5l-25 -49q-10 -15 -16 -19q-2 -3 -6 -7.5t-5 -6.5q-2 -4 -6 -8q-8 -11 -16 -17q-4 -4 -12 -8q-11 -9 -29 -16q-25 -16 -55 -10z" />
<glyph unicode="y" horiz-adv-x="915" d="M236 -662q-20 0 -50 17q-1 1 -4 3.5t-5 4.5t-3 4q-12 12 -22 12q-7 0 -7 7q-2 12 -14 36l-6 13l-6 16q-13 27 -10 66q0 8 6 14q3 4 8 20q0 13 8 33q3 9 11 26t10 21q11 18 16 31q23 36 53 66q15 15 47 51q20 15 25 18q13 9 35 27q28 18 59 31q4 2 12.5 5t12.5 5q6 3 6 12 q8 38 10 66q4 28 4 45q4 30 8 86q1 13 2 36.5t2 36.5q0 11 5 41l6 50v2q4 11 6 22.5t3.5 26t2.5 22.5q2 8 4 25t2 18q0 2 1 6.5t1 6.5q0 3 1 9t1 9l2 2l-2 2v-4l-6 -12q-5 -16 -16 -39q-2 -4 -25 -49q-14 -37 -49 -84q-32 -43 -84 -68q-12 -8 -18 -10q-16 -10 -31 -4 q-4 1 -12 2t-11 2q-12 0 -16 2q-36 3 -66 18q-5 4 -17 10.5t-17 10.5q-31 16 -46 45q-5 8 -14 31q-15 37 -20 63q0 3 -3 17.5t-3 21.5q-5 78 -5 88q2 20 2 62q0 38 3 75q1 12 4 33.5t4 30.5q3 16 8 28q8 41 24 86v3q2 10 10.5 40t10.5 48q1 5 1.5 15t1.5 18.5t3 15.5 q3 17 -4 37q0 4 -4 8q-3 3 -4 6t-1 7t-1 7v11q2 2 5 7t5 7q4 4 8 4q44 15 58 16h10q15 0 47 -4q12 0 18 -2q20 0 31 -14q3 -3 10.5 -8.5t10.5 -8.5q40 -21 67 -55q13 -16 19 -35q10 -24 4 -49l-25 -96l-10 -29q-9 -24 -12 -49q-10 -49 -11 -61q-1 -6 -2 -18.5t-2 -18.5 q-6 -54 -6 -55q-4 -41 0 -62q2 -8 2 -24q-2 -17 6 -50q1 -6 17 -53l4 -6q0 -2 2 -2.5t4 0.5q4 4 4 6q3 6 17 29.5t20 38.5q4 4 4 8q8 26 45 106q5 9 12.5 28.5t10.5 25.5q0 1 1 3.5t1 4.5q19 36 59 131q0 1 1 3t1 3q2 7 13 38.5t16 49.5q3 11 10 29q12 39 14 61q1 6 4 17.5 t4 17.5q1 3 17 35q7 7 16 10q29 4 43 -2l8 -4l58 -33q16 -12 22 -18l15 -19l16 -18q13 -11 20 -31q0 -1 7 -22l12 -31q9 -21 6 -39l-6 -49q-4 -44 -8 -62q0 -8 -2 -14q-7 -18 -11 -51q0 -1 -6 -41q-1 -5 -2 -16t-2 -17l-14 -63l-8 -58q-10 -49 -11 -63q0 -4 -2 -6 q0 -6 -1 -18t-1 -17q-3 -17 -5 -36.5t-4 -41.5t-3 -35q-1 -14 -4 -39t-4 -39q-2 -18 -17 -100l-6 -27q-3 -13 -8 -36.5t-8 -34.5q-3 -18 -16 -78l-5 -23q0 -4 -2 -8q-13 -52 -30 -100l-13 -25l-16 -35q-16 -32 -29 -45q-2 -2 -2 -4q-5 -6 -10.5 -14t-12 -17t-9.5 -14 l-31 -41q-3 -4 -23 -24q-10 -7 -24 -25q-21 -27 -58 -43q-27 -11 -47 -14q-2 -1 -6 -2t-6 -2q-40 -10 -74 -7h-30zM236 -506q20 -4 30 2q39 19 53 43q11 14 17 27q7 14 20 38t17 31l6 17q4 8 4 14q-3 10 4 17q4 8 4 14q0 8 4 16q2 8 2 25v12q0 2 -4 2q-1 -1 -4.5 -2t-5.5 -2 q-26 -10 -43 -27l-10 -10q-2 -1 -6.5 -3.5t-8 -5t-6.5 -5.5q-20 -17 -28 -35q-3 -12 -13 -22q-9 -11 -16 -33q-11 -34 -12 -39q0 -2 -2 -6t-2 -6q-5 -5 -9 -13q-4 -4 -4 -10v-14q0 -5 4 -17q0 -8 9 -8z" />
<glyph unicode="z" horiz-adv-x="899" d="M131 -49q-15 5 -55 31q-6 2 -13.5 9t-11.5 9q-30 15 -43 68q-15 81 43 120q23 20 74 27q11 -2 19.5 3.5t11 9t10.5 16.5q60 110 172 225q70 73 295 289q17 14 -6 14q-30 4 -56.5 14t-44.5 20t-52.5 29.5t-63.5 34.5q-16 8 -50 28.5t-53 29.5q-9 7 -33 0q-28 -6 -57 -39 t-29 -66q0 -30 17.5 -62t42.5 -32q23 0 14 -22q-11 -25 -41 -37q-18 -7 -33 -2q-8 2 -14.5 5.5t-10.5 6.5t-9.5 9t-8 8.5t-8.5 10.5t-8 11q-33 46 -19 109.5t54 97.5q59 45 121 45q69 -3 137 -27q133 -46 196 -63q41 -12 84 -4q77 13 148 -7q35 -11 45.5 -42.5t-12.5 -57.5 q-3 -2 -8.5 -7.5t-10.5 -9t-10 -5.5q-14 -9 -31 -32t-22 -28q-12 -14 -34.5 -39.5t-41 -46t-35.5 -37.5q-15 -14 -31.5 -32.5t-27 -31.5t-29.5 -36.5t-27 -32.5q-106 -125 -186 -242q-8 -11 -8.5 -15.5t3.5 -8.5t19 -10q19 -9 50.5 -27.5t59.5 -32t56 -22.5 q47 -15 96.5 -4.5t71.5 39.5q19 25 42 19q26 -8 13 -49q-7 -24 -28 -54q-22 -31 -72 -47.5t-100 -16.5q-27 0 -53.5 9t-40.5 17t-44 29.5t-40 28.5q-4 2 -30.5 22t-33.5 21q-6 1 -13.5 -14t-14 -33t-9.5 -21q-4 -3 -17.5 -17t-24 -21.5t-23.5 -12.5q-70 -25 -117 -18zM82 61 q6 0 7 1.5t3 7.5q14 36 29 86q2 7 -0.5 9.5t-11.5 -1.5q-35 -11 -41 -39q-6 -19 -6 -25t4 -26q3 -9 16 -13z" />
<glyph unicode="{" horiz-adv-x="776" d="M612 1360q-12 -24 -26 -31l-11 -4l-10 -6q-9 -3 -33 -19q-21 -21 -53 -34q-13 -5 -33 -25q-39 -39 -79 -117q-18 -37 -15 -69q0 -35 13 -82l10 -45l10 -41l14 -62l2 -14q3 -61 -4 -98l-14 -54l-4 -12q-6 -22 -25 -41q-6 0 -2 -8l2 -8q12 -6 27 -21l22 -22q2 -3 3.5 -6.5 t3 -7.5t2.5 -5q8 -19 24 -39q17 -29 19 -34l8 -19l2 -12l8 -37l2 -18l2 -15l2 -28l-6 -66l-2 -20l-8 -33l-6 -41v8q0 -6 -6 -16l-15 -29l-2 -6l-8 -21l-10 -24q-15 -33 -19 -55l-4 -15l-4 -12q-7 -26 -4 -41q2 -36 25 -86v-4l12 -21q25 -28 57 -41l21 -6q3 -1 14.5 -6 t17.5 -8q2 -1 9.5 -2.5t11.5 -3.5l12 -27l-24 -49q-17 -14 -35 -25l-29 -8q-19 -8 -39 -8h-6v21h-4v-21h-12l-51 16l-21 9l-31 14q-3 11 -18 25l-2 2q-10 10 -12 16q-1 2 -9 10q-2 2 -14 19q-3 7 -31 61l-6 12v2l-6 15q-13 10 -10 41q2 2 2 14l-12 37l-2 4l12 102l8 33l2 6 l8 17l21 57l16 39l21 43q20 55 24 80q6 50 -2 72l-8 16q-2 16 -6 27q-9 17 -23 20q-26 7 -39 18l-18 15q-8 4 -16 4h-13q-23 0 -47 12l-12 8l-10 6q-20 13 -27 39q-2 6 -2 19q1 9 4 24t4 21v22l2 5v34l21 11h16l6 -2l8 2l15 6l6 2l14 8l31 12q12 6 15 12t1 21q-4 34 -8 51 q-8 33 -8 86q-3 74 4 139v11l8 63v74q0 17 4 33q10 44 35 92q34 55 53 74q36 41 97 71l26 11l23 10l4 2l18 8q21 13 64 27l18 -15q14 -11 19 -20l12 -33l2 -8l6 -19l21 -32q-3 -12 -11 -27v-6z" />
<glyph unicode="|" horiz-adv-x="464" d="M207 66q0 -9 -1 -28t-1 -28v-41q1 -12 1 -37t1 -38q1 0 1 -8l-1 -9q1 -11 2 -35t2 -35q1 -5 2 -16t2 -16q0 -27 16 -33q3 -2 10.5 -5t10.5 -5q7 -3 12 2q16 8 25 6q2 0 16 24.5t14 28.5q4 12 5 14q6 18 6 39q-3 28 4 45q0 2 1 9t1 10v70q-2 10 -2 28v234q0 12 -2 18 q-1 8 -1.5 34t-2.5 40v4q1 11 1 32.5t1 32.5q0 70 2 103q2 6 2 20q0 13 1 41t1 43q1 21 2 62.5t2 62.5q0 5 1 17t1 18q-1 5 -1 11.5t0.5 14t0.5 11.5q2 20 2 57q2 27 2 82v21l2 20q0 61 2 92q1 8 1.5 35.5t2.5 42.5v17q0 50 2 75q4 58 4 84q-3 28 0 56q3 12 0 26q0 19 2 29 v33q0 35 -18 47q-16 12 -25 14q-5 1 -7.5 2.5t-3.5 3t-4 4.5t-7 6q-1 0 -3 1t-3 1q-13 0 -39 13q-4 4 -10 4q-9 0 -9 -19v-10v-33q-4 -32 -4 -49l-6 -127q-4 -50 -4 -73q-3 -26 0 -48q0 -22 -2 -32q-2 -8 -2 -27q0 -3 -1 -9t-1 -9q-4 -53 2 -78v-8q-2 -37 -2 -113 q-1 -20 -2 -59.5t-2 -59.5q1 -12 2 -34t2 -33v-13q4 -20 2 -30q0 -7 4 -15t4 -14v-29q-1 -13 -2 -38t-2 -38q0 -49 -4 -61v-8q-4 -37 -2 -55q0 -17 -2 -27q0 -8 -2 -12q-2 -2 -2 -9q4 -14 4 -45q0 -50 -2 -75q-4 -106 -2 -158v-59z" />
<glyph unicode="}" horiz-adv-x="735" d="M643 666q4 -8 4 -35q-3 -14 0 -31q0 -35 -12 -59q-14 1 -62 -13l-34 -10h-4l-5 -2h-8q-20 0 -45 -22q-6 -12 -6 -15l-2 -26v-43q0 -19 8 -27q20 -17 29 -45l12 -29l8 -16q3 -6 11 -14l2 -7l12 -16l12 -23q8 -14 17 -43q3 -8 5 -17.5t4 -20.5t3 -17l2 -10v-10q0 -20 4 -56 v-10q-6 -15 -6 -39v-20q0 -34 -10 -51l-2 -11v-4q-7 -25 -19 -45q-6 -6 -6 -26q3 -11 -6 -29l-19 -31l-41 -51l-8 -8l-8 -6q-21 -24 -76 -47q-8 -5 -20 -5l-8 -2h-9q-6 -2 -18 -2q-8 -4 -33 -4h-10q-36 0 -61 25q-10 8 -17 10q-22 19 -26 25l-9 10l-24 33q-8 13 -8 32 q0 37 6 64v65l55 -73l10 -9q13 -10 19 -22q4 -6 10 -12l33 -17h4q4 0 6 2q36 16 49 33q27 27 37 43q18 26 18 55q11 33 11 72l2 23q3 18 -4 47v8q-9 40 -27 108l-6 25l-8 16q-3 9 -7 19l-18 37q-17 35 -29 71q-8 19 -8 39q0 51 4 84q0 30 21 74l4 10l6 13q4 8 0 20l-8 20 l-10 23q-12 27 -9 53q3 50 27 109q26 59 64 117q49 83 53 90l2 2q23 42 35 88l14 49q9 49 -2 86q-8 38 -29 72q-15 19 -30 28q-46 31 -99 47h-4l-61 19h-17q-2 10 -5.5 18t-11.5 20t-9 13q-4 4 -11 21q-6 32 4 56t31 23l25 -4h10q67 -12 123 -39q25 -7 70 -39l12 -12 q45 -45 78 -115q34 -64 51 -133l6 -30l12 -99v-14q0 -45 -14 -86l-27 -82q-6 -17 -32 -68l-23 -38l-12 -19l-8 -16q-2 -6 -2 -10q3 -7 4 -7h8l8 -4l12 -12l54 -27q15 -14 22 -32z" />
<glyph unicode="~" horiz-adv-x="1019" d="M403 829v-2h-26q-4 0 -13.5 -1t-13.5 -1q-3 0 -11.5 -2.5t-14.5 -1.5q-5 -2 -16.5 -4t-16.5 -4q-12 -2 -41 -10q-16 -5 -41 -17l-27 -20q-7 -4 -28 -21l-13 -6q-3 0 -9 -1t-9 -1q-14 -3 -21 -16q-4 -15 7 -19q11 -6 14 -16q2 -2 6 -10q13 -13 18 -23q2 -4 13 -8 q2 0 10 -4l4 -4q8 -4 12 -2l4 2q12 6 23 6q3 0 8 -4.5t6 -5.5q0 -2 2 -2q5 -5 13 2l12 14l18 23q10 10 15 12q12 8 14 10q18 13 27 17q32 11 57 8h6q15 0 21 -2q8 0 12 -2q22 0 43 -6q39 -13 57 -21q1 0 3 -1t3 -1q18 -4 29 -12q4 0 8 -4q8 -3 58 -31q12 -4 16 -8 q21 -14 39 -19q4 -1 22 -10q18 -6 19 -6q25 -4 37 -2h24q25 5 27 6q2 2 6 2q18 4 27 8q1 0 3 1t3 1q9 0 18 6q1 1 7 5.5t8 7.5q2 2 14 8l2 2l2 4q-3 8 4 8q8 4 12 21v10q5 18 -10 41q-8 12 -14 18q-5 9 -2 15l2 8q0 6 -4 6h-4q-31 0 -45 -2q-15 -2 -39 -14q-11 -9 -35 -17 q-25 -12 -53 -6q-3 1 -9.5 2t-9.5 2q-40 10 -71 23q-20 11 -58 28q-66 27 -74 29q-20 5 -26 8q-21 6 -45 6h-15z" />
<glyph unicode="&#xa1;" horiz-adv-x="677" d="M340 1042q6 0 10 -2q11 0 19 -8q11 -8 20 -2q2 2 6 2q21 4 34 -16t7 -31v-12q0 -13 2 -19q6 -20 -2 -57q-6 -15 -6 -31q0 -11 -14 -14h-17q-15 0 -30 -6q-40 -4 -56 -8q-12 0 -16 4q-12 14 -27 37q-2 4 -2 16q0 4 -4 16t-4 21q0 10 -4 22q-4 8 -2 13q1 1 1.5 10.5 t3.5 19.5t17 21.5t39 17.5zM350 715q30 7 53 -2q5 0 11 -6q21 -25 24 -54q4 -28 4 -43q6 -84 -2 -157q-3 -63 2 -115q0 -6 2 -8q7 -29 7 -74q2 -8 2 -47v-29q3 -42 -2 -76q-1 -8 0.5 -21t1.5 -17q-7 -58 -4 -105q-3 -30 -3 -65q0 -7 3 -7q8 -45 6 -86q0 -10 -2 -16v-47v-62 q0 -6 4 -26q1 -2 6 -5.5t6 -6.5q8 -11 0 -19q-18 -22 -35 -22q-6 -2 -20 -2q-23 -5 -49 6l-21 6l-8 8q-5 10 -21 10q-10 0 -30 8l-25 13q-16 13 -22 33q-5 10 -5 14q-4 11 -18 14q-2 0 -6 8q-4 20 -4 35q6 25 10 78q2 6 2 20q1 4 2 14t2 15v10q-2 7 -2 37q2 6 2 15l-2 53 q4 62 2 92q-3 25 0 57q0 23 2 35q4 8 4 17q-1 9 0.5 27.5t1.5 23.5l7 47q0 10 10 45q8 14 12 39v18q0 25 2 35v6q0 21 4 53q0 45 6 91q2 10 2 30q2 10 11 39q0 6 4 6q7 0 16 17q3 3 5.5 10.5t4.5 9.5q4 8 6 10q6 1 16 6.5t15 6.5z" />
<glyph unicode="&#xa2;" horiz-adv-x="1179" d="M461 901q-20 0 -31 -8l-20 -10q-13 -5 -29 -25q-7 -16 -31 -33q-33 -23 -69 -59q-37 -34 -66 -102q0 -4 -1 -7t-1 -4q-9 -23 -12 -47v-20q0 -7 1 -20.5t1 -20.5v-29q0 -43 2 -63q4 -4 0 -13q-3 -24 10 -47q9 -22 16 -45q12 -32 54 -82l24 -28q2 -1 3.5 -2t2.5 -2t2 -1 q7 0 15.5 -6.5t9.5 -7.5q5 -7 2 -12q-27 -48 -49 -70q-16 -16 -42 -50t-36 -46l-4 -8q-19 -32 -20 -33q-8 -9 -19.5 -27t-17.5 -26q-1 -1 -4 -5t-5 -5q-10 -10 -28 -46q-2 -9 -13 -20q-11 -14 3 -21l13 -6.5t13 -5.5q20 -8 31 0q8 5 20 2q3 -1 10.5 -2t10.5 -2q10 0 12 4 q4 4 4 10q7 20 25 41l39 62q8 13 25.5 40t25.5 40q8 15 32 49.5t33 54.5q5 9 13 15q5 5 12 0q33 -23 68 -37q45 -9 63 -9q19 -2 55 5q14 2 82 16q48 14 58 20q3 2 10.5 7.5t13.5 7.5q8 2 23.5 10t19.5 10q12 5 23 23q16 37 20 43q4 4 4 8q6 12 6 27q3 3 3 10q-3 37 -33 55 q-8 4 -23 14t-26.5 16t-22.5 9q-2 0 -3 1t-1.5 2.5t-1.5 2.5q-4 4 -8 0q0 -1 -2 -2.5t-2 -3.5q-14 0 -17 -8q0 -1 -1 -1.5l-3 -1.5t-4 -3q-2 -1 -8.5 -4t-11.5 -4q-70 -37 -76 -39q-15 -5 -58 -29q-2 0 -5 -2.5t-3 -3.5q-5 -8 -14 -8q-10 -1 -43 8q-2 2 0 4q0 1 2 4.5t2 5.5 q2 3 11 15.5t12 19.5q4 4 10 15.5t10 15.5q3 6 10.5 17.5t10.5 17.5l36 53q16 27 17 28q15 25 20 35q10 10 13 19q1 7 14 24q15 21 24 45q9 27 19 35q6 9 12 21q5 7 13.5 21.5t13.5 21.5q8 12 14 18q10 10 21 2q40 -17 43 -18q39 -11 43 -11q17 3 26 -6q7 -10 13 0l6 4 q7 5 8 9q24 17 27 45q0 10 4 22q12 18 0 37v4q-11 26 -33 37q-27 8 -55 22q-10 5 -5 13q13 22 29 45q28 46 37 61q4 6 16 25.5t19 28.5q4 8 11.5 25t10.5 24q19 24 37 69q2 7 12 17q5 7 16.5 19t14.5 16q6 9 -2 12q-12 4 -18 10q-3 4 -7.5 7.5t-11.5 8t-10 7.5q-3 6 -6 0 q-31 -41 -33 -45q-5 -5 -11 -14t-9 -13q-2 -4 -9 -14.5t-10 -14.5q-3 -5 -11.5 -19t-14.5 -20q-45 -60 -76 -129q-24 -46 -39 -80q-4 -6 -14 -4q-1 0 -20.5 8.5t-29.5 10.5q-35 13 -81 16q-23 2 -68 2q-2 0 -6.5 -1t-7.5 -1q-11 -4 -32 -10.5t-38 -12.5t-31 -14 q-7 -10 -18 -6zM391 471q0 45 19 100l8 13q2 13 7.5 27t11 23t15 24t13.5 22q4 8 10.5 17.5t14.5 20.5t12 17q3 3 9 7.5t9 7.5q6 3 12 0q2 -3 7 2q13 13 32 16q29 4 43 10q11 5 31 2q12 -4 64 -14q5 0 5.5 -3.5t-3.5 -6.5q-3 -8 -12.5 -23t-12.5 -22l-4 -2 q-14 -27 -42.5 -74t-33.5 -55l-31 -45q-9 -15 -28.5 -42t-28.5 -42q-16 -21 -40 -59t-32 -50l-4 -6q-7 -3 -10 0q-1 1 -2 4t-2 4q-22 47 -33 90q-8 26 -4 37z" />
<glyph unicode="&#xa3;" d="M846 -47h-12q-20 0 -48 16l-22 13q-12 4 -21 4q-14 0 -26 6q-7 2 -32 11.5t-40 12.5q-6 0 -15.5 4t-11.5 5q-12 6 -30 6q-9 0 -29 4q-8 2 -27 4t-28 4q-7 1 -20 -0.5t-17 -1.5q-6 0 -18.5 -1t-18.5 -1q-8 3 -18 -2q-26 -13 -60 -6h-8q-17 0 -33 8q-50 24 -71 59 q-15 22 -19 35q-15 40 0 80q17 34 37 57q37 59 47 95q3 13 11 35.5t10 29.5q4 16 4 49q0 27 -6 62q-6 39 -21 80l-4 10q-4 8 -10 8q-17 0 -25 -2q-41 -6 -84 10l-41 10q-20 8 -24 19q-23 23 -29 59v6q0 1 -1 3.5t-1 3.5t-6 49q0 8 8 24q3 8 10 4q9 -9 15 0q27 0 34 -6 q8 -6 23 -6h55h8q2 0 4 2.5t1 3.5q0 3 -1.5 8t-1.5 7q-17 66 -22 90q-12 48 -8 123q0 7 6 16q5 7 10 31q6 29 33 77q28 49 74 86q29 29 41 43q3 4 6.5 8.5t9.5 9.5t8 7q10 7 10 18q0 5 7 5q31 -3 51 4q4 4 12 0q15 -2 31 4q33 10 102 22h49q6 0 17.5 -1t17.5 -1q42 0 92 -16 q17 -5 41 -21q16 -9 53 -32q29 -26 48 -47q19 -19 24 -21q14 -8 33 -27q4 -6 14 -16q15 -10 17 -12q2 -4 4 -12t2 -9q11 -49 2 -82q0 -12 -8 -28q-6 -13 -9 -23q-5 -14 -16 -33q-18 -27 -27 -34l-14 -11q-32 -20 -53 -22q-18 -4 -31 -8q-17 -9 -41 -2q-10 5 -26 2 q-12 -3 -29 4q-16 4 -23 16q-6 6 -2 25q2 4 5 13t6.5 16.5t7.5 13.5q11 13 24 51q3 17 -6 24q-10 17 -22 29q-16 13 -47 33q-6 9 -15 12l-8 6q-40 20 -88 33q-14 3 -27 0q-23 -11 -41 -14q-16 -4 -20 -4q-12 0 -21 -9l-24 -14q-12 -3 -23 -14q-15 -15 -34 -49 q-8 -16 -15 -23q-2 -5 -14 -29q-2 -10 -8 -33.5t-7 -37.5q0 -25 5 -45q12 -56 24 -84q6 -15 17 -15q29 2 88 2h30q35 -2 111 -2q17 0 29 -6q38 -12 55 -26q6 -3 12 -8t8.5 -8t8 -11t6.5 -10q14 -26 26 -82q0 -8 -6 -12l-4 -11q-5 -10 -12 -10q-6 1 -24.5 1.5t-28.5 2.5 q-24 7 -43 4q0 -1 -26 -1l-26 1q-10 0 -14 -2q-48 -6 -51 -6q-26 -4 -39 -2q-6 0 -14 -4q-7 0 -19 -4q-13 -3 -10 -15l6 -16q3 -8 10.5 -24.5t10.5 -24.5q17 -39 24 -68q15 -62 8 -102q-2 -8 -2 -25q1 -19 -8 -86l-2 -6q0 -8 4 -10l41 -10q16 -4 74 -21q6 -1 15 -6.5 t13 -7.5l9 -2q62 -20 77 -21l21 -6q17 -3 35 0l67 15q29 3 39 30q11 22 11 39q0 2 2 2.5t4 -0.5l14 -4q49 -28 68 -71q5 -10 12 -28.5t10 -25.5q7 -17 -4 -28q-6 -6 -6 -15q0 -14 -4 -20q-4 -14 -8 -23q-4 -16 -17 -18l-6 -6l-6 -6q-19 -25 -21 -25q-2 -6 -5 -10.5 t-10 -10.5t-9 -8q-16 -8 -29 -8q-4 0 -16 -6q-3 0 -9.5 -1.5t-10.5 -2.5t-10 -0.5t-11 2.5z" />
<glyph unicode="&#xa4;" d="M182 1184q-33 -3 -30 -35q0 -4 1 -12t1 -11q0 -8 10 -18q6 -6 8 -10q7 -25 29 -33q2 0 5 -3.5t5 -4.5l16 -29q36 -70 54 -98q2 0 2 -2v-15l-37 -43q-63 -63 -90 -145q-14 -39 -11 -72q2 -33 13 -84q10 -55 35 -98q9 -15 26 -59q3 -16 -8 -21l-16 -16q-8 -20 -37 -37 q-34 -18 -56 -49q-13 -14 -51 -62q-2 -3 -4.5 -5.5t-6 -5.5t-5.5 -5q-13 -6 -10 -21l6 -16q2 -24 30 -41q32 -16 54 -41q27 -30 63 -47q16 -3 21 4q11 11 26 2q3 -1 13 -7.5t16 -8.5q4 -1 15.5 3.5t17.5 2.5q0 -2 2 -2q11 0 14 10q2 5 5.5 10.5t8.5 11t7 7.5q18 18 36 43 q22 36 66 76q12 9 23 6q8 -2 23.5 -7.5t23.5 -7.5q66 -16 98 -18q93 -4 129 4q19 0 37 6q15 3 19.5 1.5t11.5 -13.5l26 -31q5 -6 27 -29t33 -38q1 -2 18 -19q24 -27 59 -12q47 20 50 22q34 19 45 29q3 2 6 11.5t4 11.5l12 12q13 7 10 20q-3 47 -26 76q-22 26 -31 39 q-28 50 -49 74q-10 13 -2 24q8 16 20 56q17 41 19 43q6 9 6 18q7 25 14 68q2 7 5 23.5t5 23.5q1 14 11 92q7 33 0 63q-4 25 -19 68q-12 35 -12 37q-6 13 -5 19.5t13 13.5q3 1 9.5 6t11.5 6q16 7 30.5 16.5t38 28t27.5 21.5q13 9 31.5 30t25.5 27q6 6 2 14q-2 8 -7.5 21.5 t-6.5 17.5q-5 32 -39 51q-10 7 -26 21.5t-23 19.5l-55 43q-10 7 -21 4q-26 -10 -33 -16q-9 -5 -18 -12.5t-20 -16.5t-17 -14q-1 -1 -12.5 -10t-13.5 -11t-12 -9.5t-13 -11t-11 -10.5t-12 -12t-10 -12t-11 -14t-9 -14q-5 -8 -17 -5q-43 15 -82 35q-14 11 -28 8q-13 -4 -19 5 q-7 8 -41 18q-18 9 -33 0l-75 -25q-13 -5 -19.5 -3t-15.5 12q-19 24 -29 32q-19 19 -31 43q-9 18 -12 21t-13 11t-15.5 12.5t-15.5 8.5t-19 5q-10 5 -11 6q-4 8 -18.5 13t-17.5 7q-6 6 -23 2q-53 -21 -61 -24q-13 -9 -15 -17q-9 -36 -43 -28zM588 326q-4 -5 -49 4.5 t-54 13.5q-15 8 -32 21q-51 38 -66 69q-10 18 -41 49q-13 15 -16 41q0 19 -6 43.5t-7 36t9 39.5l10 29q11 25 29 49q5 6 32.5 42t46.5 52q4 4 13 14t16 16.5t14 10.5q11 8 30.5 22.5t35.5 26t31 19.5q4 3 14 3t12 3q14 20 43 20l88 8q19 6 31 -6q43 -36 43 -37 q10 -10 19 -28q28 -59 40 -74q9 -13 9 -25q5 -22 -4 -81q-11 -49 -21 -103q-2 -12 -7 -55t-8.5 -59.5t-16 -44.5t-31.5 -50q-6 -6 -7 -6q-3 -4 -10 -15.5t-9.5 -15.5t-9.5 -13t-11.5 -11.5t-14 -8.5t-18 -7t-22 -3t-28.5 -0.5t-34.5 4t-42.5 7.5z" />
<glyph unicode="&#xa5;" horiz-adv-x="1286" d="M678 -164q-9 0 -21 4q-20 4 -28 4h-11q-14 -2 -38 -2q-21 0 -29 2q-32 3 -44 14.5t-15 47.5q-3 40 -3 88l7 110q0 6 1 17t1 16q1 9 2 28t2 28q0 6 1 19.5t1 20.5q3 35 -33 41q-9 1 -27.5 2.5t-25.5 2.5h-12h-13h-12h-6q-5 0 -20.5 -3.5t-24.5 -1.5q-5 3 -22.5 0.5 t-20.5 -2.5h-6q-7 0 -20 2t-22.5 2t-15.5 -4l-2 -2q-2 0 -6 4q-8 4 -8 11v37q0 16 2 26q1 9 2.5 13.5t6.5 7t15 2.5l50 -2h39q33 10 67 10h8h21h22h6h5q37 0 49 8q14 12 14 45v27q2 12 2 37q0 20 -10 30q-11 11 -27 11h-6q-25 0 -39 2h-41q-25 0 -37 -2h-24h-23h-10 q-21 0 -29 -2h-24h-2q-1 0 -12.5 -2.5t-32.5 -2.5l-15 -2q-3 2 -8 8.5t-8 8.5l-4 10h-2q-7 43 4 66l2 2q2 1 6 2t6 2l17 6q10 2 21 1.5t29 -2t23 -1.5h4q19 1 59.5 2t61.5 2h49q20 0 31 16q9 18 -2 35l-24 37l-7 10l-4 8q-1 2 -4 5.5t-4 5.5q-18 36 -33 61q-13 27 -26 47 q-12 23 -21 35q-14 29 -26 45q-6 10 -24.5 39t-27.5 45q-76 133 -108 233q-2 8 -19 60q-4 12 -4 16q-2 4 -5 12.5t-5 12.5q-6 18 -18 24q0 10 -11 25q41 13 93 20q62 5 69 5h4q13 0 21 -2h16h2v-3q5 -10 17 -22q4 -4 8 -12q21 -33 35 -68q12 -45 28 -76q3 -7 17 -26 q2 -2 2 -4q55 -74 106 -154q13 -26 35 -59l20 -31q3 -5 6.5 -11.5t8 -13.5t6.5 -10l18 -29q10 -16 27 -16q19 0 25 16l2 2q2 3 16 25q52 101 102 180q14 24 35 53q11 14 33 50q47 78 57 98q33 68 47 113q0 1 1.5 2t1.5 2q6 24 6 30v9h2q11 -3 32.5 -11.5t30.5 -11.5 q6 -3 17 -14q1 0 2 -1t2 -1l34 -35q31 -31 43 -47l3 -2q-11 -18 -11 -54v-6q-16 -60 -45 -118l-55 -99l-10 -12l-8 -12l-35 -54l-2 -6q-3 -5 -47 -73q-8 -12 -13 -17q-12 -10 -20 -29q-3 -10 -13 -24q-2 -2 -12 -17l-12 -18q-5 -9 -14 -25t-16 -29t-11 -26q0 -4 -4 -8l-6 -8 l-4 -6q-6 -9 -13 -23q-16 -38 -12 -47q2 -4 9 -5t19.5 -1.5t16.5 -1.5h10h6q13 0 37 1t35 1h23h12h10h13h26q28 0 82 4q23 2 68 2h2q11 0 16.5 -3.5t9.5 -16.5q0 -7 4 -15q13 -23 13 -26q0 -1 1 -3.5t1 -3.5q-8 -4 -10 -6h-3h-6h-6q-23 2 -62 -4t-53 -6q-41 0 -61 -2 q-4 0 -11 -1t-11 -1q-11 -1 -34.5 -1t-41 -1.5t-35.5 -5.5q-6 -2 -25.5 -2.5t-27.5 -3.5q-4 -4 -11 -4q-18 -9 -18 -37l4 -76q0 -8 8 -14.5t17 -8.5q2 -2 10 -2h6h2q36 6 53 6l99 7q106 8 145 12h6q20 0 39 -8q6 -2 6 -6q3 -22 15 -43q6 -8 2 -23q-25 -5 -31 -8q-2 -1 -7 -2 t-7 -2q-3 0 -11 -1t-12 -1q-14 0 -20 2h-7h-12h-10q-4 -1 -70 -6q-31 0 -45 -2h-41h-20h-21h-6h-16q-30 0 -45 -15q-13 -15 -8 -43v-22q0 -39 2 -47v-7v-6q0 -5 -1 -14t-1 -14q0 -8 -1.5 -24.5t-1.5 -23.5v-12v-8v-6v-25q-6 -30 -6 -57q0 -17 -4 -45q-2 -8 -2 -21 q-2 -4 -2 -12q-2 -6 -2 -22q-3 -25 -8 -35v-2q-16 -3 -23 -8q-13 -7 -55 -15h-6z" />
<glyph unicode="&#xa6;" horiz-adv-x="428" d="M307 1202q0 1 -2 28.5t-4 41.5q-4 32 -4 47q0 33 -10 53q-6 15 -6 29q0 11 -7 18l-20 19l-10 10q-8 4 -13 4q-9 -4 -14 4h-6q-4 0 -4 -8v-16q-4 -11 0 -29v-10q4 -34 8 -90v-140q-1 -29 -2 -88.5t-2 -87.5v-16q-2 -12 -2 -41q4 -49 2 -74v-10l6 -84l4 -29q8 -24 15 -26 l8 -9q4 -4 6 -2q2 0 10 -4q0 -6 4 -2q4 2 13.5 1t13.5 -3q3 -3 6 0q7 4 10 14q3 6 6 9q7 7 4 24q0 6 -1 19.5t-1 19.5q-4 27 -4 84q-2 33 -2 96q-4 74 -2 111v137zM326 113q0 16 -1 49t-1 51q0 7 -1 21.5t-1 21.5q-1 10 -2.5 32.5t-2.5 33.5v67q-1 8 -2 24t-2 23q-2 6 -2 21 v16q2 15 -4 27q-1 1 -3 4t-3.5 4.5t-3.5 1.5q-7 0 -21 14l-4 6q-23 13 -43 13q-3 0 -10 -15v-18v-12q0 -19 -2 -21l-2 -4q0 -25 -2 -39v-96q0 -2 1 -7.5t1 -8.5q3 -12 0 -25v-23l2 -28v-174q0 -13 1 -39t1 -41q0 -33 -2 -47q-2 -2 -2 -11q0 -11 1 -33t1 -34q3 -33 19 -39 q2 -1 8 -3t8 -2t8 1q2 -2 7.5 1t6.5 3q9 0 11 16q2 2 4 0q7 -3 8 -2q1 2 2 8q0 1 1 2.5t1 2.5q5 3 8 14q1 2 2 7t2 7q11 14 11 43q2 14 2 39v148z" />
<glyph unicode="&#xa7;" horiz-adv-x="1024" d="M920 1337q4 -20 2 -32l-7 -31q-2 -11 -20 -39q-7 -12 -27 -12q-27 -4 -39 10q-1 3 -8 6q-18 12 -22 14q-2 1 -7.5 2t-7.5 2q-4 1 -12 2.5t-12 2.5q-1 0 -16.5 2t-22.5 4q-8 2 -25.5 3t-25.5 3h-11q-14 -4 -48.5 -11.5t-53.5 -13.5q-56 -20 -88 -55q-30 -30 -37 -57 l-4 -11q-16 -18 -4 -55q2 -7 10.5 -22t9.5 -17q7 -11 17 -8q14 0 22 -12q2 -5 12 -17.5t11 -21.5l12 -11q12 -10 19 -14q57 -37 94 -57q91 -57 182 -152q57 -60 68 -131q3 -17 8 -50t8 -50q5 -20 -2 -47q-7 -23 -16 -45q-2 -6 -11 -15q-10 -7 -10 -16q-3 -20 -20 -31 q-6 -4 -19 -15.5t-20 -16.5q-14 -11 -37 -21q-3 -2 -22.5 -12t-30.5 -15q-8 -4 -2 -10l10 -12q40 -40 47 -49q47 -50 74 -129q12 -29 20 -107q0 -17 4 -49q6 -29 -2 -86q-8 -22 -18 -33q-3 -3 -8.5 -10t-8.5 -10q-12 -20 -34 -45q-6 -9 -23 -21l-39 -20q-9 -6 -20 -6 q-6 1 -13 0t-14.5 -3t-11.5 -3q-11 -2 -34 -7.5t-34 -7.5q-47 -14 -106 -4q-16 2 -84 21q-11 2 -27 14q-25 22 -45 29q-26 13 -35 22q-51 41 -67 49q-2 0 -2 2q2 2 8 2q0 6 -2 6q-27 31 -58 58q0 2 -4 2v-4q3 -6 13 -21q1 -2 7.5 -9t6.5 -13q-1 0 -4 2t-4 4q-45 39 -60 102 q-3 20 0 39q3 11 17 49q7 17 20 21q11 6 21 22q7 9 22 4q22 -11 33 -24q30 -39 33 -51q8 -20 6 -33q0 -11 12 -27q14 -14 29 -26q38 -34 71 -41q6 -2 21 -2q10 0 30 1t29 1l27 6q3 1 9 4t9 4q39 9 60 39l4 4q7 4 12.5 9t11 13.5t7.5 13t7.5 17t6.5 15.5q16 38 -4 86 q-43 92 -111 151q-2 1 -8.5 7t-11.5 8l-78 47q-28 14 -33 16q-44 21 -90 53l-49 31q-33 16 -41 35q-2 4 -10 8q-30 27 -54 57q-29 36 -43 99v14q-4 24 -2 37q0 2 3.5 15.5t3.5 21.5q3 30 12 53q30 82 74 139q39 49 73 78q6 6 18 14.5t15 10.5q10 9 10.5 12t-6.5 12l-37 53 q-22 33 -37 97q-2 12 -2 33q0 4 2 6q4 4 5.5 10.5t2.5 16t1 12.5q2 20 10 51q3 17 18 26q11 11 13 17q3 11 22 39q2 4 10 12q9 10 11 14l12 17q6 6 8 6q9 0 21.5 8.5t17.5 9.5q3 1 7.5 3.5t8 4.5t8.5 3t9 0l12 6l53 24q62 27 115 27q14 1 42.5 4t43.5 4q56 4 84 0q0 -1 8 -1 l8 1q16 0 19 -14q1 -2 2 -6.5t2 -6.5l6 -6q5 -2 14.5 -7t14.5 -7q4 -1 11 -4t11 -4q14 -3 23 -15l18 -39q3 -8 8.5 -24.5t8.5 -24.5zM430 784q-4 -4 -20.5 -16.5t-22.5 -22.5q-4 -4 -6 -4q-10 -2 -16 -12q-3 -6 -11 -2q-5 2 -7 0t-1 -6q4 -11 -6 -25q-3 -1 -8 -12 q0 -1 -3.5 -6.5t-6 -8.5t-7.5 -5q-6 0 -6 -5q0 -8 -6.5 -19.5t-7.5 -14.5q-4 -9 -8 -31q-6 -50 26 -80q4 0 4 -4q7 -12 35 -31l78 -49q25 -12 27 -14q9 -4 22 2q23 14 66 37.5t59 33.5q47 24 92 91q8 12 4 22l-12 49q-3 23 -18 41l-11 13q-19 28 -47 47q-30 18 -57 39 q-10 8 -41 26l-8 2q-6 -2 -18 -4t-13 -2q-16 -4 -24 -12q-3 -3 -10.5 -8.5t-10.5 -8.5zM236 -201v2v-2z" />
<glyph unicode="&#xa8;" d="M344 1276q-8 2 -29 2q-4 0 -12 1t-12 1t-4 2q-6 3 -21 7t-22 7q-1 1 -4 2t-4 2q-14 11 -17 21q-4 20 -4 31q0 24 4 78q4 33 2 53q-6 18 -8 20l-6 13q0 8 6 8q13 8 18.5 8.5t22.5 -2.5l22 -6q1 -1 15 -8q39 -17 43 -19q30 -13 37 -29q0 -4 4 -8t4 -14v-70q0 -6 -1 -19 t-1 -20v-26q0 -11 -6 -15l-15 -14q-3 -6 -12 -6zM596 1268q-15 0 -27 6q-12 8 -20 10q-30 8 -39 25q-4 4 -6 8q-11 25 -8 45v55h-2v56q3 16 -9 28q0 1 -1 2t-1 2q-4 4 2 4q7 11 21 11q32 4 49 2q26 -4 43 -11q2 0 4 -2q5 -4 17.5 -9t17.5 -9l18 -12q4 -4 7 -4q12 -5 8 -21 q-3 -24 0 -49q4 -44 8 -70v-35l-6 -10q-12 -6 -15 -6q-8 -4 -12 -8q-6 -6 -12 -6t-18.5 -1t-18.5 -1z" />
<glyph unicode="&#xa9;" horiz-adv-x="1449" d="M1348 657q-1 10 -2.5 32.5t-2.5 33.5q-1 10 -4 28t-4 25q-10 41 -12 45q-7 22 -10 35q-7 26 -15 41l-43 78q-17 32 -47 59l-30 33q-27 37 -72 70q-11 7 -29 19.5t-33.5 23t-31.5 18.5q-6 2 -18.5 8t-18.5 8t-72 29q-2 0 -6 1t-6 1q-9 0 -29 8q-41 10 -51 9h-6 q-4 2 -14.5 0.5t-14.5 -0.5q-1 0 -3 -1t-3 -1q-7 -7 -12 0l-6 8q-2 4 -9 4q-6 0 -8 2q-4 2 -12 2q-12 1 -64 -4q-25 0 -32 -6h-6q-17 -3 -31 -9q-20 -12 -33 -14q-10 -3 -12 -10q-9 -11 -29 -23q-4 -2 -8 -6l-43 -28l-6 -5q-10 -2 -21 -10l-14 -8q-4 -4 0 -4q6 0 2 -4 l-16 -17q-13 -13 -37 -34.5t-35 -32.5q-38 -43 -59 -70l-5 -4q-2 -9 -22 -33l-16 -22q-8 -12 -25 -32.5t-18 -22.5q-11 -13 -33 -48q-28 -43 -35 -79l-12 -66q-1 -10 -4.5 -30.5t-4.5 -30.5v-64q0 -7 3.5 -20.5t3.5 -16.5v-4l2 2v2q1 1 4 -2l6 -20l12 -45q22 -62 25 -70 q14 -24 33 -31q13 -5 20 -22q13 -39 43 -80l8 -12q32 -46 84 -82q6 -5 33 -21q1 -1 4 -2.5l6 -3t6 -2.5l31 -18q31 -17 57 -25l58 -12q91 -19 151 -21q37 -4 58 -2q28 4 41 4q14 0 38 3.5t33 4.5l29 7q54 14 63 14q2 0 5 1t4 1q13 6 49 20q13 3 33.5 14.5t27.5 14.5l6 4 q3 5 11 11t10 8q45 36 61 82q0 2 4 6q22 33 27 39q4 12 8 16q19 23 31 43l6 10q13 16 23 39q2 4 6 8q8 8 8 17q0 8 4 10t8 10q4 13 12 21q13 18 25 53l12 57q11 40 11 88zM1221 729q0 -39 -2 -59l-7 -37l-6 -45q0 -1 -2 -8t-4 -11q-18 -45 -45 -104l-6 -16q-15 -41 -39 -78 q-11 -14 -16 -25q-11 -20 -52 -61q-4 -5 -26 -27q-44 -49 -119 -76l-55 -18q-2 -1 -39 -6q-6 0 -18.5 -1t-18.5 -1q-31 0 -47 2q-20 2 -55 10q-11 0 -13 6q0 4 -4 4q-24 4 -39 4q-4 0 -65 11q-20 3 -41 20q-30 27 -66 49q-13 7 -28 25q-15 23 -25 35q-4 4 -14 24 q-5 9 -14 27l-13 26q-17 28 -18 31q-8 17 -11 27q-2 2 -2 6v10l-12 53q-1 6 -4 18.5t-4 18.5q-12 45 -2 94q4 20 4 27q0 4 1 13.5t1 13.5q-3 19 6 37l21 57l16 31q2 3 9 14t11 18l7 6q20 16 28 33q4 6 9 12.5t12 13.5t10 11q34 38 55 55q54 49 66 58q2 2 8 5.5t8 4.5 q20 17 45 35l25 16q1 1 4 2t4 2q11 11 20 11q12 0 17 8q3 5 12 10q27 11 45 14q14 4 43 0q15 -3 33 0q10 2 31 -2q18 -6 39 -6q18 3 36 -6q9 -6 23 -6q33 -7 49 -19q16 -10 35 -16q12 -8 18 -14l37 -37l47 -53q11 -11 15 -17q31 -39 45 -69l12 -31q26 -82 23 -156v-4h2z M770 375l49 6q6 0 31 10q15 4 45 21q23 16 33 30q32 53 37 68q13 34 -7 57q-8 12 -4 19q2 0 0.5 1.5t-2.5 0.5q-8 -2 -14 4l-10 10q-12 12 -39 16q-5 2 -7 -1t-1 -7q3 -10 -4 -20l-23 -31q-5 -7 -23 -16q-4 -2 -12 -5.5t-12 -5.5q-4 -4 -10 -4l-45 -12q-19 -4 -27 -10 q-6 0 -8 -2q-12 -4 -17 -4l-18 -6q-5 -3 -10 2q-14 8 -31 22q-10 8 -18 27q-10 37 -7 71q3 32 9 58l18 49q14 31 35 49l37 31l8 8q6 11 16 14q12 4 19 11q13 10 26 10l39 6q5 1 22.5 4t26.5 6q9 0 11 -6q2 -5 8 -8l43 -19q5 -4 14 5q4 4 6 8q14 25 9 49q-1 5 -7.5 26 t-7.5 33q-4 8 -4 15q-3 9 -14 12q-12 4 -21 4q-6 0 -6 4q-2 6 -10 10t-10 6h-4q-8 -2 -27 -2q-60 -8 -90 -18l-33 -12q-40 -13 -51 -23q-8 -4 -14 -4q-1 0 -9 -4t-10 -8l-12 -6q-5 -2 -25 -17l-16 -8q-8 -3 -12 -10q-12 -9 -21 -21q-17 -14 -27 -37q-12 -28 -20 -40 q-9 -19 -14 -21q-2 -2 -6 -10l-7 -29l-6 -37q-2 -6 -2 -20q0 -6 1 -18t1 -17q2 -37 17 -90q14 -48 36 -72q6 -6 9 -12q21 -30 55 -45q28 -14 96 -35q4 -2 13 -2q2 -1 6 -2t6 -2q14 -4 53 -4z" />
<glyph unicode="&#xab;" horiz-adv-x="751" d="M428 315q0 1 1 4t1 5l-6 6q-3 5 -10.5 14t-10.5 14l-2 2q-2 9 -16 23q-7 7 -10 16q0 5 -4 9q-15 15 -17 18q-5 6 -14 19.5t-14 19.5q-5 5 -15 20q-5 3 -12.5 12t-9.5 11q-2 4 -10 8l-4 3q-4 3 -5 5q-3 3 -18 23q0 2 -4 6q-3 7 2 12q2 0 6 4q7 5 19.5 17.5t19.5 17.5 q1 0 2 2t2 2q3 2 14 13l6 6q3 2 17 16q3 5 18 25q24 24 29 28l10 13l4 6q15 15 39 51q17 30 17 45v2q5 16 2 33q-3 5 0 8q0 6 -4 8q-12 4 -29 21q-6 6 -8 4q-1 0 -3 -1t-3 -1q-1 -1 -4.5 -2t-4.5 -2q-8 -3 -8 -13q3 -7 -4 -14l-4 -6q-12 -14 -37 -39q-3 -4 -10 -11.5 t-10 -11.5t-23 -24l-14 -14q-41 -47 -45 -52q-24 -25 -35 -32q-14 -10 -39 -35l-12 -11q-13 -13 -25 -22q-10 -8 -14 -23q-2 -4 -6 -8q-5 -5 -11 -8v-4q1 -1 4.5 -2t4.5 -2q11 -11 14 -12l6 -7q2 -4 10 -8q10 -7 15 -14l39 -62q17 -28 45 -63q4 -5 16 -21t20 -24l9 -12 q18 -22 34 -35q17 -13 29 -15q4 -2 12 -2t33 5l4 2q11 5 25 16q4 4 4 6q2 4 2 12zM625 803q2 9 -4 22q-3 2 -3 4q-3 11 -12 17l-6 6q-14 10 -25 16q-6 0 -6 -4q0 -6 -8 -18l-12 -19q-10 -15 -17 -22l-43 -53q-3 -6 -10 -13q-13 -20 -30 -34q-8 -8 -24 -27t-24 -27 q-16 -20 -26 -28q-11 -13 -33 -48q-4 -8 -10 -12l-4 -4l-3 -2q-3 -2 -3 -4q1 -2 8 -2h2q9 -3 14 -8q0 -6 6 -6q17 -3 27 -19q4 -6 11 -19.5t11 -19.5l13 -24l12 -19l4 -8q8 -8 16 -20q3 -3 7.5 -9.5t8 -11t7.5 -8.5q20 -24 31 -35l35 -35q4 -4 20 -12q4 -4 18 -4l21 2 q9 3 14 8q8 8 17 14q14 14 16 17l2 2q2 2 2 4q6 13 0 22q-6 5 -12.5 18.5t-11.5 18.5q-1 1 -1.5 2t-1.5 2q0 3 -2 5q-3 3 -8 11t-8 11l-6 6l-2 4q-2 3 -4 4q-2 2 -3.5 4t-3.5 5.5t-3 5.5q-7 7 -9 8q-5 5 -13 17.5t-13 17.5q-4 4 -4 6q-1 4 -11 14q-2 4 -8 12.5t-8 12.5l-8 8 q-4 4 -19 14q-2 5 0 9l13 14q14 22 28 33q1 1 2 4t2 4q9 12 21 24q6 9 12 21l4 4q11 14 27 41l12 18q6 6 6 13l11 22q4 4 4 15q-2 4 -2 12z" />
</font>
</defs>
</svg>
